# Made in Blockbench 4.8.0
mtllib ascending.mtl

o cube6
v 0 0.053033 0.323223
v -0.934375 0.053033 0.323223
v -0.934375 0.234229 0.142027
v 0 0.234229 0.142027
v -0.934375 0.22981 0.5
v 0 0.22981 0.5
v 0 0.411006 0.318804
v -0.934375 0.411006 0.318804
v 0.9343750000000002 0.053033 0.323223
v 0 0.053033 0.323223
v 0 0.234229 0.142027
v 0.9343750000000002 0.234229 0.142027
v 0 0.22981 0.5
v 0.9343750000000002 0.22981 0.5
v 0.9343750000000002 0.411006 0.318804
v 0 0.411006 0.318804
vt 0 0.75
vt 0.4375 0.75
vt 0.4375 0.875
vt 0 0.875
vt 0.4375 0.75
vt 0 0.75
vt 0 0.875
vt 0.4375 0.875
vt 0.4375 0.75
vt 0 0.75
vt 0 0.625
vt 0.4375 0.625
vt 0.4375 0.75
vt 0 0.75
vt 0 0.875
vt 0.4375 0.875
vt 0 0.75
vt 0.4375 0.75
vt 0.4375 0.875
vt 0 0.875
vt 0 0.625
vt 0.4375 0.625
vt 0.4375 0.75
vt 0 0.75
vn 0 -0.7071067811865476 -0.7071067811865476
vn 0 0.7071067811865476 0.7071067811865475
vn 0 -0.7071067811865476 0.7071067811865475
vn 0 -0.7071067811865476 -0.7071067811865476
vn 0 0.7071067811865476 0.7071067811865475
vn 0 -0.7071067811865476 0.7071067811865475
usemtl none
f 1/1/1 2/2/1 3/3/1 4/4/1
f 5/5/2 6/6/2 7/7/2 8/8/2
f 2/9/3 1/10/3 6/11/3 5/12/3
f 9/13/4 10/14/4 11/15/4 12/16/4
f 13/17/5 14/18/5 15/19/5 16/20/5
f 10/21/6 9/22/6 14/23/6 13/24/6
o cube7
v -0.934375 -0.035355 0.234835
v -0.934375 0.318198 0.588388
v -0.934375 0.499394 0.407192
v -0.934375 0.145841 0.053639
v 0 0.499394 0.407192
v 0 0.145841 0.053639
v 0.9343750000000002 0.318198 0.588388
v 0.9343750000000002 -0.035355 0.234835
v 0.9343750000000002 0.145841 0.053639
v 0.9343750000000002 0.499394 0.407192
v 0 0.499394 0.407192
v 0 0.145841 0.053639
vt 0.8125 0.46875
vt 0.8125 0.71875
vt 0.6875 0.71875
vt 0.6875 0.46875
vt 0.4375 0.71875
vt 0 0.71875
vt 0 0.46875
vt 0.4375 0.46875
vt 0.8125 0.46875
vt 0.8125 0.71875
vt 0.6875 0.71875
vt 0.6875 0.46875
vt 0 0.46875
vt 0.4375 0.46875
vt 0.4375 0.71875
vt 0 0.71875
vn -1 0 0
vn 0 0.7071067811865476 -0.7071067811865476
vn 1 0 0
vn 0 0.7071067811865476 -0.7071067811865476
usemtl none
f 17/25/7 18/26/7 19/27/7 20/28/7
f 19/29/8 21/30/8 22/31/8 20/32/8
f 23/33/9 24/34/9 25/35/9 26/36/9
f 27/37/10 26/38/10 25/39/10 28/40/10
o cube8
v -0.934375 0.296101 0.566291
v -0.934375 0.649654 0.919845
v -0.934375 0.83085 0.738649
v -0.934375 0.477297 0.385095
v 0 0.83085 0.738649
v 0 0.477297 0.385095
v 0.9343750000000002 0.649654 0.919845
v 0.9343750000000002 0.296101 0.566291
v 0.9343750000000002 0.477297 0.385095
v 0.9343750000000002 0.83085 0.738649
v 0 0.83085 0.738649
v 0 0.477297 0.385095
vt 0.8125 0.46875
vt 0.8125 0.71875
vt 0.6875 0.71875
vt 0.6875 0.46875
vt 0.4375 0.71875
vt 0 0.71875
vt 0 0.46875
vt 0.4375 0.46875
vt 0.8125 0.46875
vt 0.8125 0.71875
vt 0.6875 0.71875
vt 0.6875 0.46875
vt 0 0.46875
vt 0.4375 0.46875
vt 0.4375 0.71875
vt 0 0.71875
vn -1 0 0
vn 0 0.7071077811855311 -0.7071057811861499
vn 1 0 0
vn 0 0.707107781185531 -0.7071057811861499
usemtl none
f 29/41/11 30/42/11 31/43/11 32/44/11
f 31/45/12 33/46/12 34/47/12 32/48/12
f 35/49/13 36/50/13 37/51/13 38/52/13
f 39/53/14 38/54/14 37/55/14 40/56/14
o cube9
v -0.934375 0.627557 0.897748
v -0.934375 0.981111 1.251301
v -0.934375 1.162307 1.070105
v -0.934375 0.808753 0.716551
v 0 1.162307 1.070105
v 0 0.808753 0.716551
v 0.9343750000000002 0.981111 1.251301
v 0.9343750000000002 0.627557 0.897748
v 0.9343750000000002 0.808753 0.716551
v 0.9343750000000002 1.162307 1.070105
v 0 1.162307 1.070105
v 0 0.808753 0.716551
vt 0.8125 0.46875
vt 0.8125 0.71875
vt 0.6875 0.71875
vt 0.6875 0.46875
vt 0.4375 0.71875
vt 0 0.71875
vt 0 0.46875
vt 0.4375 0.46875
vt 0.8125 0.46875
vt 0.8125 0.71875
vt 0.6875 0.71875
vt 0.6875 0.46875
vt 0 0.46875
vt 0.4375 0.46875
vt 0.4375 0.71875
vt 0 0.71875
vn -1 0 0
vn 0 0.7071067811865477 -0.7071067811865474
vn 1 0 0
vn 0 0.7071067811865477 -0.7071067811865475
usemtl none
f 41/57/15 42/58/15 43/59/15 44/60/15
f 43/61/16 45/62/16 46/63/16 44/64/16
f 47/65/17 48/66/17 49/67/17 50/68/17
f 51/69/18 50/70/18 49/71/18 52/72/18
o rail1
v 0.3968750000000001 1.118113 1.114299
v 0.6593749999999998 1.118113 1.114299
v 0.6593749999999998 0.101647 0.097833
v 0.3968750000000001 0.101647 0.097833
v 0.3968750000000001 0.099437 0.100043
v 0.6593749999999998 0.099437 0.100043
v 0.6593749999999998 1.115903 1.116509
v 0.3968750000000001 1.115903 1.116509
vt 0 0.46875
vt 0 0.34375
vt 0.71875 0.34375
vt 0.71875 0.46875
vt 0 0.46875
vt 0 0.34375
vt 0.71875 0.34375
vt 0.71875 0.46875
vn 0 0.7071067811865476 -0.7071067811865476
vn 0 -0.7071067811865475 0.7071067811865476
usemtl none
f 53/73/19 54/74/19 55/75/19 56/76/19
f 57/77/20 58/78/20 59/79/20 60/80/20
o rail2
v 0.40312499999999996 1.312567 0.919845
v 0.6531250000000002 1.312567 0.919845
v 0.6531250000000002 0.296101 -0.096621
v 0.40312499999999996 0.296101 -0.096621
v 0.40312499999999996 0.293891 -0.094412
v 0.6531250000000002 0.293891 -0.094412
v 0.6531250000000002 1.310357 0.922054
v 0.40312499999999996 1.310357 0.922054
vt 0 0.28125
vt 0 0.15625
vt 0.71875 0.15625
vt 0.71875 0.28125
vt 0 0.46875
vt 0 0.34375
vt 0.71875 0.34375
vt 0.71875 0.46875
vn 0 0.7071067811865476 -0.7071067811865476
vn 0 -0.7071067811865477 0.7071067811865475
usemtl none
f 61/81/21 62/82/21 63/83/21 64/84/21
f 65/85/22 66/86/22 67/87/22 68/88/22
o rail3
v 0.625 0.101647 0.097833
v 0.4312499999999999 0.101647 0.097833
v 0.4312499999999999 0.296101 -0.096621
v 0.625 0.296101 -0.096621
v 0.625 1.118113 1.114299
v 0.625 1.312567 0.919845
v 0.4312499999999999 1.118113 1.114299
v 0.4312499999999999 1.312567 0.919845
vt 0.6875 0.75
vt 0.78125 0.75
vt 0.78125 0.875
vt 0.6875 0.875
vt 0 0.5
vt 0.71875 0.5
vt 0.71875 0.625
vt 0 0.625
vt 0.6875 0.75
vt 0.78125 0.75
vt 0.78125 0.875
vt 0.6875 0.875
vt 0 0.5
vt 0.71875 0.5
vt 0.71875 0.625
vt 0 0.625
vn 0 -0.7071067811865476 -0.7071067811865476
vn 1 0 0
vn 0 0.7071067811865471 0.7071067811865479
vn -1 0 0
usemtl none
f 69/89/23 70/90/23 71/91/23 72/92/23
f 73/93/24 69/94/24 72/95/24 74/96/24
f 75/97/25 73/98/25 74/99/25 76/100/25
f 70/101/26 75/102/26 76/103/26 71/104/26
o rail4
v -0.653125 1.312567 0.919845
v -0.40312499999999996 1.312567 0.919845
v -0.40312499999999996 0.296101 -0.096621
v -0.653125 0.296101 -0.096621
v -0.653125 0.293891 -0.094412
v -0.40312499999999996 0.293891 -0.094412
v -0.40312499999999996 1.310357 0.922054
v -0.653125 1.310357 0.922054
vt 0 0.15625
vt 0 0.28125
vt 0.71875 0.28125
vt 0.71875 0.15625
vt 0 0.34375
vt 0 0.46875
vt 0.71875 0.46875
vt 0.71875 0.34375
vn 0 0.7071067811865476 -0.7071067811865476
vn 0 -0.7071067811865476 0.7071067811865475
usemtl none
f 77/105/27 78/106/27 79/107/27 80/108/27
f 81/109/28 82/110/28 83/111/28 84/112/28
o rail5
v -0.43125 0.101647 0.097833
v -0.625 0.101647 0.097833
v -0.625 0.296101 -0.096621
v -0.43125 0.296101 -0.096621
v -0.43125 1.118113 1.114299
v -0.43125 1.312567 0.919845
v -0.625 1.118113 1.114299
v -0.625 1.312567 0.919845
vt 0.78125 0.75
vt 0.6875 0.75
vt 0.6875 0.875
vt 0.78125 0.875
vt 0.71875 0.5
vt 0 0.5
vt 0 0.625
vt 0.71875 0.625
vt 0.78125 0.75
vt 0.6875 0.75
vt 0.6875 0.875
vt 0.78125 0.875
vt 0.71875 0.5
vt 0 0.5
vt 0 0.625
vt 0.71875 0.625
vn 0 -0.7071067811865476 -0.7071067811865476
vn 1 0 0
vn 0 0.7071067811865471 0.7071067811865479
vn -1 0 0
usemtl none
f 85/113/29 86/114/29 87/115/29 88/116/29
f 89/117/30 85/118/30 88/119/30 90/120/30
f 91/121/31 89/122/31 90/123/31 92/124/31
f 86/125/32 91/126/32 92/127/32 87/128/32
o rail6
v -0.659375 1.118113 1.114299
v -0.396875 1.118113 1.114299
v -0.396875 0.101647 0.097833
v -0.659375 0.101647 0.097833
v -0.659375 0.099437 0.100043
v -0.396875 0.099437 0.100043
v -0.396875 1.115903 1.116509
v -0.659375 1.115903 1.116509
vt 0 0.34375
vt 0 0.46875
vt 0.71875 0.46875
vt 0.71875 0.34375
vt 0 0.34375
vt 0 0.46875
vt 0.71875 0.46875
vt 0.71875 0.34375
vn 0 0.7071067811865476 -0.7071067811865476
vn 0 -0.7071067811865475 0.7071067811865477
usemtl none
f 93/129/33 94/130/33 95/131/33 96/132/33
f 97/133/34 98/134/34 99/135/34 100/136/34
o cube6.001
v 0 0.384489 0.65468
v -0.934375 0.384489 0.65468
v -0.934375 0.565685 0.473484
v 0 0.565685 0.473484
v -0.934375 0.561266 0.831456
v 0 0.561266 0.831456
v 0 0.742462 0.65026
v -0.934375 0.742462 0.65026
v 0.9343750000000002 0.384489 0.65468
v 0 0.384489 0.65468
v 0 0.565685 0.473484
v 0.9343750000000002 0.565685 0.473484
v 0 0.561266 0.831456
v 0.9343750000000002 0.561266 0.831456
v 0.9343750000000002 0.742462 0.65026
v 0 0.742462 0.65026
vt 0 0.75
vt 0.4375 0.75
vt 0.4375 0.875
vt 0 0.875
vt 0.4375 0.75
vt 0 0.75
vt 0 0.875
vt 0.4375 0.875
vt 0.4375 0.75
vt 0 0.75
vt 0 0.625
vt 0.4375 0.625
vt 0.4375 0.75
vt 0 0.75
vt 0 0.875
vt 0.4375 0.875
vt 0 0.75
vt 0.4375 0.75
vt 0.4375 0.875
vt 0 0.875
vt 0 0.625
vt 0.4375 0.625
vt 0.4375 0.75
vt 0 0.75
vn 0 -0.7071067811865477 -0.7071067811865475
vn 0 0.7071067811865478 0.7071067811865474
vn 0 -0.7071047811815094 0.7071087811859289
vn 0 -0.7071067811865477 -0.7071067811865475
vn 0 0.7071067811865477 0.7071067811865474
vn 0 -0.7071047811815094 0.7071087811859288
usemtl none
f 101/137/35 102/138/35 103/139/35 104/140/35
f 105/141/36 106/142/36 107/143/36 108/144/36
f 102/145/37 101/146/37 106/147/37 105/148/37
f 109/149/38 110/150/38 111/151/38 112/152/38
f 113/153/39 114/154/39 115/155/39 116/156/39
f 110/157/40 109/158/40 114/159/40 113/160/40
o cube6.002
v 0 0.715945 0.986136
v -0.934375 0.715945 0.986136
v -0.934375 0.897142 0.80494
v 0 0.897142 0.80494
v -0.934375 0.892722 1.162913
v 0 0.892722 1.162913
v 0 1.073918 0.981717
v -0.934375 1.073918 0.981717
v 0.9343750000000002 0.715945 0.986136
v 0 0.715945 0.986136
v 0 0.897142 0.80494
v 0.9343750000000002 0.897142 0.80494
v 0 0.892722 1.162913
v 0.9343750000000002 0.892722 1.162913
v 0.9343750000000002 1.073918 0.981717
v 0 1.073918 0.981717
vt 0 0.75
vt 0.4375 0.75
vt 0.4375 0.875
vt 0 0.875
vt 0.4375 0.75
vt 0 0.75
vt 0 0.875
vt 0.4375 0.875
vt 0.4375 0.75
vt 0 0.75
vt 0 0.625
vt 0.4375 0.625
vt 0.4375 0.75
vt 0 0.75
vt 0 0.875
vt 0.4375 0.875
vt 0 0.75
vt 0.4375 0.75
vt 0.4375 0.875
vt 0 0.875
vt 0 0.625
vt 0.4375 0.625
vt 0.4375 0.75
vt 0 0.75
vn 0 -0.7071048299685142 -0.7071087323991966
vn 0 0.707106781186548 0.7071067811865471
vn 0 -0.7071067811865478 0.7071067811865474
vn 0 -0.7071048299685143 -0.7071087323991966
vn 0 0.7071067811865479 0.7071067811865471
vn 0 -0.7071067811865478 0.7071067811865472
usemtl none
f 117/161/41 118/162/41 119/163/41 120/164/41
f 121/165/42 122/166/42 123/167/42 124/168/42
f 118/169/43 117/170/43 122/171/43 121/172/43
f 125/173/44 126/174/44 127/175/44 128/176/44
f 129/177/45 130/178/45 131/179/45 132/180/45
f 126/181/46 125/182/46 130/183/46 129/184/46