# Made in Blockbench 4.6.1
mtllib wheels.mtl

o cube_0
v 0.6875 0.09375000000000011 0.09374999999999989
v 0.6875 0.09375000000000011 -0.09375000000000011
v 0.6875 -0.09374999999999989 0.09374999999999989
v 0.6875 -0.09374999999999989 -0.09375000000000011
v -0.6875 0.09375000000000011 -0.09375000000000011
v -0.6875 0.09375000000000011 0.09374999999999989
v -0.6875 -0.09374999999999989 -0.09375000000000011
v -0.6875 -0.09374999999999989 0.09374999999999989
vt 0.328125 0.859375
vt 0.671875 0.859375
vt 0.671875 0.8125
vt 0.328125 0.8125
vt 0.40625 0.96875
vt 0.453125 0.96875
vt 0.453125 0.921875
vt 0.40625 0.921875
vt 0.328125 0.859375
vt 0.671875 0.859375
vt 0.671875 0.8125
vt 0.328125 0.8125
vt 0.40625 0.96875
vt 0.453125 0.96875
vt 0.453125 0.921875
vt 0.40625 0.921875
vt 0.671875 0.8125
vt 0.328125 0.8125
vt 0.328125 0.859375
vt 0.671875 0.859375
vt 0.671875 0.859375
vt 0.328125 0.859375
vt 0.328125 0.8125
vt 0.671875 0.8125
vn 0 0 -1
vn 1 0 0
vn 0 0 1
vn -1 0 0
vn 0 1 0
vn 0 -1 0
usemtl m_0
f 4/4/1 7/3/1 5/2/1 2/1/1
f 3/8/2 4/7/2 2/6/2 1/5/2
f 8/12/3 3/11/3 1/10/3 6/9/3
f 7/16/4 8/15/4 6/14/4 5/13/4
f 6/20/5 1/19/5 2/18/5 5/17/5
f 7/24/6 4/23/6 3/22/6 8/21/6
o cylinder_0
v -0.4374999999999999 1.1102230246251565e-16 0
v -0.6249999999999999 1.1102230246251565e-16 0
v -0.4374999999999999 0.12944173824159244 0.3125
v -0.6249999999999999 0.12944173824159244 0.3125
v -0.43749999999999983 0.3125000000000001 0.12944173824159222
v -0.6249999999999999 0.3125000000000001 0.12944173824159222
v -0.43749999999999983 0.3125000000000001 -0.12944173824159222
v -0.6249999999999999 0.3125000000000001 -0.12944173824159222
v -0.4374999999999999 0.12944173824159244 -0.3125
v -0.6249999999999999 0.12944173824159244 -0.3125
v -0.43749999999999994 -0.1294417382415921 -0.3125
v -0.625 -0.12944173824159208 -0.3125
v -0.4375 -0.3124999999999998 -0.12944173824159244
v -0.625 -0.3124999999999998 -0.12944173824159244
v -0.4375 -0.3124999999999999 0.12944173824159233
v -0.625 -0.3124999999999999 0.12944173824159233
v -0.43749999999999994 -0.12944173824159233 0.3124999999999999
v -0.625 -0.1294417382415923 0.3124999999999999
vt 0.34375 0.9542359375
vt 0.2979859375 1
vt 0.265625 0.921875
vt 0.34375 0.953125
vt 0.40625 0.953125
vt 0.40625 1
vt 0.34375 1
vt 0.11059497476172828 0.7032756393773343
vt 0.04587481690493835 0.7032756393773343
vt 0.07823489583333332 0.6251502837453312
vt 0.34375 0.8895140625
vt 0.34375 0.9542359375
vt 0.265625 0.921875
vt 0.34375 0.953125
vt 0.40625 0.953125
vt 0.40625 1
vt 0.34375 1
vt 0.1106161458333333 0.7033854166666664
vt 0.04589427083333334 0.7033854166666664
vt 0.07825520833333328 0.6252604166666664
vt 0.2979859375 0.84375
vt 0.34375 0.8895140625
vt 0.265625 0.921875
vt 0.34375 0.953125
vt 0.40625 0.953125
vt 0.40625 1
vt 0.34375 1
vt 0.1105949747617283 0.703104806044001
vt 0.045874816904938345 0.703104806044001
vt 0.07823489583333332 0.624979450411998
vt 0.2332640625 0.84375
vt 0.2979859375 0.84375
vt 0.265625 0.921875
vt 0.34375 0.953125
vt 0.40625 0.953125
vt 0.40625 1
vt 0.34375 1
vt 0.11048593749999999 0.703125
vt 0.0457640625 0.703125
vt 0.078125 0.625
vt 0.1875 0.8895140625
vt 0.2332640625 0.84375
vt 0.265625 0.921875
vt 0.34375 0.953125
vt 0.40625 0.953125
vt 0.40625 1
vt 0.34375 1
vt 0.11076580809506159 0.7031048060440008
vt 0.04604565023827169 0.7031048060440008
vt 0.0784057291666666 0.6249794504119979
vt 0.1875 0.9542359375
vt 0.1875 0.8895140625
vt 0.265625 0.921875
vt 0.34375 0.953125
vt 0.40625 0.953125
vt 0.40625 1
vt 0.34375 1
vt 0.11035572916666667 0.7029947916666665
vt 0.045703125000000025 0.7029947916666665
vt 0.07799479166666665 0.6248697916666665
vt 0.2332640625 1
vt 0.1875 0.9542359375
vt 0.265625 0.921875
vt 0.34375 0.953125
vt 0.40625 0.953125
vt 0.40625 1
vt 0.34375 1
vt 0.11076580809506167 0.7028850143773346
vt 0.046045650238271674 0.7028850143773346
vt 0.07840572916666669 0.6247596587453316
vt 0.2979859375 1
vt 0.2332640625 1
vt 0.265625 0.921875
vt 0.34375 0.953125
vt 0.40625 0.953125
vt 0.40625 1
vt 0.34375 1
vt 0.11048593749999998 0.7032552083333333
vt 0.045764062500000015 0.7032552083333333
vt 0.07812499999999999 0.6251302083333333
vn 1 -2.220446049250313e-16 0
vn 1.5700924586837757e-16 0.7071067811865478 0.7071067811865474
vn -1 2.220446049250313e-16 0
vn 1 -2.220446049250313e-16 0
vn 2.220446049250313e-16 1 0
vn -1 2.220446049250313e-16 0
vn 1 -2.220446049250313e-16 0
vn 1.5700924586837757e-16 0.7071067811865478 -0.7071067811865474
vn -1 2.220446049250313e-16 0
vn 1 -2.220446049250313e-16 0
vn 0 0 -1
vn -1 2.220446049250313e-16 0
vn 1 -2.220446049250313e-16 0
vn -1.5700924586837747e-16 -0.7071067811865474 -0.7071067811865478
vn -1 2.220446049250313e-16 0
vn 1 -2.220446049250313e-16 0
vn -2.220446049250313e-16 -1 -4.2885047732942847e-16
vn -1 2.220446049250313e-16 0
vn 1 -2.220446049250313e-16 0
vn -1.5700924586837752e-16 -0.7071067811865476 0.7071067811865476
vn -1 2.220446049250313e-16 0
vn 1 -2.220446049250313e-16 0
vn -9.522393481052404e-32 -4.2885047732942847e-16 1
vn -1 2.220446049250313e-16 0
usemtl m_0
f 13/25/7 11/26/7 9/27/7
f 11/28/8 13/29/8 14/30/8 12/31/8
f 12/32/9 14/33/9 10/34/9
f 15/35/10 13/36/10 9/37/10
f 13/38/11 15/39/11 16/40/11 14/41/11
f 14/42/12 16/43/12 10/44/12
f 17/45/13 15/46/13 9/47/13
f 15/48/14 17/49/14 18/50/14 16/51/14
f 16/52/15 18/53/15 10/54/15
f 19/55/16 17/56/16 9/57/16
f 17/58/17 19/59/17 20/60/17 18/61/17
f 18/62/18 20/63/18 10/64/18
f 21/65/19 19/66/19 9/67/19
f 19/68/20 21/69/20 22/70/20 20/71/20
f 20/72/21 22/73/21 10/74/21
f 23/75/22 21/76/22 9/77/22
f 21/78/23 23/79/23 24/80/23 22/81/23
f 22/82/24 24/83/24 10/84/24
f 25/85/25 23/86/25 9/87/25
f 23/88/26 25/89/26 26/90/26 24/91/26
f 24/92/27 26/93/27 10/94/27
f 11/95/28 25/96/28 9/97/28
f 25/98/29 11/99/29 12/100/29 26/101/29
f 26/102/30 12/103/30 10/104/30
o cylinder_1
v 0.3125000000000001 7.771561172376096e-16 5.551115123125783e-16
v 0.4375000000000001 6.661338147750939e-16 4.440892098500626e-16
v 0.3125000000000001 0.15533008588991215 -0.3749999999999992
v 0.4375000000000001 0.15533008588991204 -0.37499999999999933
v 0.3125000000000002 0.375000000000001 -0.1553300858899097
v 0.4375000000000002 0.3750000000000009 -0.1553300858899097
v 0.3125000000000003 0.37500000000000056 0.15533008588991176
v 0.4375000000000003 0.37500000000000044 0.15533008588991176
v 0.31250000000000017 0.15533008588991104 0.3750000000000007
v 0.43750000000000017 0.15533008588991093 0.3750000000000007
v 0.31250000000000006 -0.15533008588991043 0.3750000000000003
v 0.43750000000000006 -0.15533008588991049 0.3750000000000003
v 0.31249999999999994 -0.3749999999999993 0.15533008588991087
v 0.43749999999999994 -0.37499999999999933 0.15533008588991087
v 0.3124999999999999 -0.374999999999999 -0.15533008588991082
v 0.4374999999999999 -0.37499999999999906 -0.15533008588991082
v 0.3125 -0.15533008588990962 -0.37499999999999944
v 0.4375 -0.15533008588990968 -0.37499999999999956
vt 0.13224533651827647 0.9996630894291781
vt 0.054580705148390245 0.9996630894291781
vt 0.09341302083333333 0.9059128836416436
vt 0.40625 0.96875
vt 0.484375 0.96875
vt 0.484375 1
vt 0.40625 1
vt 0.13224533651827639 1
vt 0.054580705148390224 1
vt 0.09341302083333333 0.9062497942124654
vt 0.1321921874999999 1
vt 0.054526562499999924 1
vt 0.09335937499999991 0.90625
vt 0.40625 0.96875
vt 0.484375 0.96875
vt 0.484375 1
vt 0.40625 1
vt 0.13258281249999998 1
vt 0.054917187499999964 1
vt 0.09375 0.90625
vt 0.1322453365182764 1
vt 0.05458070514839023 1
vt 0.09341302083333328 0.9062497942124654
vt 0.40625 0.96875
vt 0.484375 0.96875
vt 0.484375 1
vt 0.40625 1
vt 0.13224533651827644 1
vt 0.05458070514839028 1
vt 0.09341302083333333 0.9062497942124654
vt 0.13258281249999998 1
vt 0.05491718749999999 1
vt 0.09375000000000001 0.90625
vt 0.40625 0.96875
vt 0.484375 0.96875
vt 0.484375 1
vt 0.40625 1
vt 0.13258281250000004 1
vt 0.05491718749999999 1
vt 0.09375 0.90625
vt 0.13213804485160985 1
vt 0.054473413481723576 1
vt 0.09330572916666674 0.9062497942124654
vt 0.40625 0.96875
vt 0.484375 0.96875
vt 0.484375 1
vt 0.40625 1
vt 0.13213804485160974 1
vt 0.054473413481723534 1
vt 0.09330572916666664 0.9062497942124654
vt 0.13258281249999998 1
vt 0.05468749999999999 1
vt 0.09375 0.90625
vt 0.40625 0.96875
vt 0.484375 0.96875
vt 0.484375 1
vt 0.40625 1
vt 0.1325828125 1
vt 0.05491718750000002 1
vt 0.09375 0.90625
vt 0.1321380448516098 1
vt 0.05447341348172356 1
vt 0.09330572916666668 0.9062497942124654
vt 0.40625 0.96875
vt 0.484375 0.96875
vt 0.484375 1
vt 0.40625 1
vt 0.1325286698516097 1
vt 0.05486403848172351 1
vt 0.09369635416666662 0.9062497942124654
vt 0.1325828125 1
vt 0.0549171875 1
vt 0.09375 0.90625
vt 0.40625 0.96875
vt 0.484375 0.96875
vt 0.484375 1
vt 0.40625 1
vt 0.13258281249999998 1
vt 0.054917187499999964 1
vt 0.09375 0.90625
vn -1 4.440892098500624e-16 1.224646799147356e-16
vn 2.274228861132062e-16 0.7071067811865487 -0.7071067811865464
vn 1 -4.440892098500624e-16 -1.224646799147356e-16
vn -1 4.440892098500624e-16 1.224646799147356e-16
vn 4.440892098500628e-16 1 1.4547323094649232e-15
vn 1 -4.440892098500624e-16 -1.224646799147356e-16
vn -1 4.440892098500624e-16 1.224646799147356e-16
vn 4.0061409736030424e-16 0.7071067811865467 0.7071067811865483
vn 1 -4.440892098500624e-16 -1.224646799147356e-16
vn -1 4.440892098500624e-16 1.224646799147356e-16
vn 1.224646799147349e-16 -1.4547323094649232e-15 1
vn 1 -4.440892098500624e-16 -1.224646799147356e-16
vn -1 4.440892098500624e-16 1.224646799147356e-16
vn -2.2742288611320603e-16 -0.7071067811865483 0.7071067811865467
vn 1 -4.440892098500624e-16 -1.224646799147356e-16
vn -1 4.440892098500624e-16 1.224646799147356e-16
vn -4.440892098500627e-16 -1 -9.186692128031377e-16
vn 1 -4.440892098500624e-16 -1.224646799147356e-16
vn -1 4.440892098500624e-16 1.224646799147356e-16
vn -4.0061409736030414e-16 -0.7071067811865464 -0.7071067811865487
vn 1 -4.440892098500624e-16 -1.224646799147356e-16
vn -1 4.440892098500624e-16 1.224646799147356e-16
vn -1.2246467991473522e-16 7.399815139158758e-16 -1
vn 1 -4.440892098500624e-16 -1.224646799147356e-16
usemtl m_0
f 31/105/31 29/106/31 27/107/31
f 29/108/32 31/109/32 32/110/32 30/111/32
f 30/112/33 32/113/33 28/114/33
f 33/115/34 31/116/34 27/117/34
f 31/118/35 33/119/35 34/120/35 32/121/35
f 32/122/36 34/123/36 28/124/36
f 35/125/37 33/126/37 27/127/37
f 33/128/38 35/129/38 36/130/38 34/131/38
f 34/132/39 36/133/39 28/134/39
f 37/135/40 35/136/40 27/137/40
f 35/138/41 37/139/41 38/140/41 36/141/41
f 36/142/42 38/143/42 28/144/42
f 39/145/43 37/146/43 27/147/43
f 37/148/44 39/149/44 40/150/44 38/151/44
f 38/152/45 40/153/45 28/154/45
f 41/155/46 39/156/46 27/157/46
f 39/158/47 41/159/47 42/160/47 40/161/47
f 40/162/48 42/163/48 28/164/48
f 43/165/49 41/166/49 27/167/49
f 41/168/50 43/169/50 44/170/50 42/171/50
f 42/172/51 44/173/51 28/174/51
f 29/175/52 43/176/52 27/177/52
f 43/178/53 29/179/53 30/180/53 44/181/53
f 44/182/54 30/183/54 28/184/54
o cylinder_2
v 0.4375000000000001 6.661338147750939e-16 4.440892098500626e-16
v 0.6250000000000001 6.106226635438361e-16 4.440892098500626e-16
v 0.4375000000000001 0.12944173824159344 -0.31249999999999933
v 0.6250000000000001 0.12944173824159333 -0.31249999999999933
v 0.4375000000000002 0.3125000000000009 -0.12944173824159122
v 0.6250000000000002 0.3125000000000009 -0.12944173824159133
v 0.4375000000000003 0.31250000000000044 0.12944173824159316
v 0.6250000000000002 0.31250000000000044 0.12944173824159316
v 0.43750000000000017 0.12944173824159255 0.31250000000000067
v 0.6250000000000002 0.12944173824159244 0.31250000000000067
v 0.43750000000000006 -0.12944173824159197 0.3125000000000003
v 0.6250000000000001 -0.12944173824159205 0.3125000000000003
v 0.4375 -0.31249999999999933 0.1294417382415925
v 0.6249999999999999 -0.31249999999999944 0.12944173824159244
v 0.4374999999999999 -0.3124999999999991 -0.12944173824159233
v 0.6249999999999999 -0.31249999999999917 -0.12944173824159233
v 0.4375 -0.12944173824159128 -0.31249999999999956
v 0.625 -0.12944173824159136 -0.31249999999999956
vt 0.34375 0.9542359375
vt 0.2979859375 1
vt 0.265625 0.921875
vt 0.34375 0.953125
vt 0.40625 0.953125
vt 0.40625 1
vt 0.34375 1
vt 0.11059497476172828 0.7032756393773343
vt 0.04587481690493835 0.7032756393773343
vt 0.07823489583333332 0.6251502837453312
vt 0.34375 0.8895140625
vt 0.34375 0.9542359375
vt 0.265625 0.921875
vt 0.34375 0.953125
vt 0.40625 0.953125
vt 0.40625 1
vt 0.34375 1
vt 0.1106161458333333 0.7033854166666664
vt 0.04589427083333334 0.7033854166666664
vt 0.07825520833333328 0.6252604166666664
vt 0.2979859375 0.84375
vt 0.34375 0.8895140625
vt 0.265625 0.921875
vt 0.34375 0.953125
vt 0.40625 0.953125
vt 0.40625 1
vt 0.34375 1
vt 0.1105949747617283 0.703104806044001
vt 0.045874816904938345 0.703104806044001
vt 0.07823489583333332 0.624979450411998
vt 0.2332640625 0.84375
vt 0.2979859375 0.84375
vt 0.265625 0.921875
vt 0.34375 0.953125
vt 0.40625 0.953125
vt 0.40625 1
vt 0.34375 1
vt 0.11048593749999999 0.703125
vt 0.0457640625 0.703125
vt 0.078125 0.625
vt 0.1875 0.8895140625
vt 0.2332640625 0.84375
vt 0.265625 0.921875
vt 0.34375 0.953125
vt 0.40625 0.953125
vt 0.40625 1
vt 0.34375 1
vt 0.11076580809506159 0.7031048060440008
vt 0.04604565023827169 0.7031048060440008
vt 0.0784057291666666 0.6249794504119979
vt 0.1875 0.9542359375
vt 0.1875 0.8895140625
vt 0.265625 0.921875
vt 0.34375 0.953125
vt 0.40625 0.953125
vt 0.40625 1
vt 0.34375 1
vt 0.11035572916666667 0.7029947916666665
vt 0.045703125000000025 0.7029947916666665
vt 0.07799479166666665 0.6248697916666665
vt 0.2332640625 1
vt 0.1875 0.9542359375
vt 0.265625 0.921875
vt 0.34375 0.953125
vt 0.40625 0.953125
vt 0.40625 1
vt 0.34375 1
vt 0.11076580809506167 0.7028850143773346
vt 0.046045650238271674 0.7028850143773346
vt 0.07840572916666669 0.6247596587453316
vt 0.2979859375 1
vt 0.2332640625 1
vt 0.265625 0.921875
vt 0.34375 0.953125
vt 0.40625 0.953125
vt 0.40625 1
vt 0.34375 1
vt 0.11048593749999998 0.7032552083333333
vt 0.045764062500000015 0.7032552083333333
vt 0.07812499999999999 0.6251302083333333
vn -1 4.440892098500624e-16 1.224646799147356e-16
vn 2.2742288611320627e-16 0.7071067811865488 -0.7071067811865464
vn 1 -4.440892098500624e-16 -1.224646799147356e-16
vn -1 4.440892098500624e-16 1.224646799147356e-16
vn 4.440892098500628e-16 1 1.4547323094649232e-15
vn 1 -4.440892098500624e-16 -1.224646799147356e-16
vn -1 4.440892098500624e-16 1.224646799147356e-16
vn 4.006140973603043e-16 0.7071067811865468 0.7071067811865483
vn 1 -4.440892098500624e-16 -1.224646799147356e-16
vn -1 4.440892098500624e-16 1.224646799147356e-16
vn 1.224646799147349e-16 -1.4547323094649232e-15 1
vn 1 -4.440892098500624e-16 -1.224646799147356e-16
vn -1 4.440892098500624e-16 1.224646799147356e-16
vn -2.2742288611320603e-16 -0.7071067811865483 0.7071067811865468
vn 1 -4.440892098500624e-16 -1.224646799147356e-16
vn -1 4.440892098500624e-16 1.224646799147356e-16
vn -4.440892098500627e-16 -1 -1.0258818321354947e-15
vn 1 -4.440892098500624e-16 -1.224646799147356e-16
vn -1 4.440892098500624e-16 1.224646799147356e-16
vn -4.0061409736030424e-16 -0.7071067811865466 -0.7071067811865486
vn 1 -4.440892098500624e-16 -1.224646799147356e-16
vn -1 4.440892098500624e-16 1.224646799147356e-16
vn -1.224646799147351e-16 1.0258818321354947e-15 -1
vn 1 -4.440892098500624e-16 -1.224646799147356e-16
usemtl m_0
f 49/185/55 47/186/55 45/187/55
f 47/188/56 49/189/56 50/190/56 48/191/56
f 48/192/57 50/193/57 46/194/57
f 51/195/58 49/196/58 45/197/58
f 49/198/59 51/199/59 52/200/59 50/201/59
f 50/202/60 52/203/60 46/204/60
f 53/205/61 51/206/61 45/207/61
f 51/208/62 53/209/62 54/210/62 52/211/62
f 52/212/63 54/213/63 46/214/63
f 55/215/64 53/216/64 45/217/64
f 53/218/65 55/219/65 56/220/65 54/221/65
f 54/222/66 56/223/66 46/224/66
f 57/225/67 55/226/67 45/227/67
f 55/228/68 57/229/68 58/230/68 56/231/68
f 56/232/69 58/233/69 46/234/69
f 59/235/70 57/236/70 45/237/70
f 57/238/71 59/239/71 60/240/71 58/241/71
f 58/242/72 60/243/72 46/244/72
f 61/245/73 59/246/73 45/247/73
f 59/248/74 61/249/74 62/250/74 60/251/74
f 60/252/75 62/253/75 46/254/75
f 47/255/76 61/256/76 45/257/76
f 61/258/77 47/259/77 48/260/77 62/261/77
f 62/262/78 48/263/78 46/264/78
o cylinder_3
v -0.3124999999999999 5.551115123125783e-17 0
v -0.4374999999999999 1.1102230246251565e-16 0
v -0.3124999999999999 0.15533008588991093 0.375
v -0.4374999999999999 0.15533008588991093 0.375
v -0.31249999999999983 0.3750000000000001 0.15533008588991065
v -0.43749999999999983 0.3750000000000001 0.15533008588991065
v -0.31249999999999983 0.3750000000000001 -0.1553300858899107
v -0.43749999999999983 0.3750000000000001 -0.1553300858899107
v -0.3124999999999999 0.15533008588991093 -0.375
v -0.4374999999999999 0.15533008588991093 -0.375
v -0.31249999999999994 -0.1553300858899106 -0.375
v -0.43749999999999994 -0.15533008588991054 -0.375
v -0.3125 -0.3749999999999998 -0.15533008588991093
v -0.4375 -0.3749999999999997 -0.15533008588991093
v -0.3125 -0.37499999999999994 0.15533008588991082
v -0.4375 -0.3749999999999999 0.15533008588991082
v -0.31249999999999994 -0.15533008588991087 0.37499999999999983
v -0.43749999999999994 -0.15533008588991082 0.37499999999999983
vt 0.13224533651827647 0.9996630894291781
vt 0.054580705148390245 0.9996630894291781
vt 0.09341302083333333 0.9059128836416436
vt 0.40625 0.96875
vt 0.484375 0.96875
vt 0.484375 1
vt 0.40625 1
vt 0.13224533651827639 1
vt 0.054580705148390224 1
vt 0.09341302083333333 0.9062497942124654
vt 0.1321921874999999 1
vt 0.054526562499999924 1
vt 0.09335937499999991 0.90625
vt 0.40625 0.96875
vt 0.484375 0.96875
vt 0.484375 1
vt 0.40625 1
vt 0.13258281249999998 1
vt 0.054917187499999964 1
vt 0.09375 0.90625
vt 0.1322453365182764 1
vt 0.05458070514839023 1
vt 0.09341302083333328 0.9062497942124654
vt 0.40625 0.96875
vt 0.484375 0.96875
vt 0.484375 1
vt 0.40625 1
vt 0.13224533651827644 1
vt 0.05458070514839028 1
vt 0.09341302083333333 0.9062497942124654
vt 0.13258281249999998 1
vt 0.05491718749999999 1
vt 0.09375000000000001 0.90625
vt 0.40625 0.96875
vt 0.484375 0.96875
vt 0.484375 1
vt 0.40625 1
vt 0.13258281250000004 1
vt 0.05491718749999999 1
vt 0.09375 0.90625
vt 0.13213804485160985 1
vt 0.054473413481723576 1
vt 0.09330572916666674 0.9062497942124654
vt 0.40625 0.96875
vt 0.484375 0.96875
vt 0.484375 1
vt 0.40625 1
vt 0.13213804485160974 1
vt 0.054473413481723534 1
vt 0.09330572916666664 0.9062497942124654
vt 0.13258281249999998 1
vt 0.05468749999999999 1
vt 0.09375 0.90625
vt 0.40625 0.96875
vt 0.484375 0.96875
vt 0.484375 1
vt 0.40625 1
vt 0.1325828125 1
vt 0.05491718750000002 1
vt 0.09375 0.90625
vt 0.1321380448516098 1
vt 0.05447341348172356 1
vt 0.09330572916666668 0.9062497942124654
vt 0.40625 0.96875
vt 0.484375 0.96875
vt 0.484375 1
vt 0.40625 1
vt 0.1325286698516097 1
vt 0.05486403848172351 1
vt 0.09369635416666662 0.9062497942124654
vt 0.1325828125 1
vt 0.0549171875 1
vt 0.09375 0.90625
vt 0.40625 0.96875
vt 0.484375 0.96875
vt 0.484375 1
vt 0.40625 1
vt 0.13258281249999998 1
vt 0.054917187499999964 1
vt 0.09375 0.90625
vn 1 -2.220446049250313e-16 0
vn 1.5700924586837757e-16 0.7071067811865478 0.7071067811865474
vn -1 2.220446049250313e-16 0
vn 1 -2.220446049250313e-16 0
vn 2.220446049250313e-16 1 0
vn -1 2.220446049250313e-16 0
vn 1 -2.220446049250313e-16 0
vn 1.5700924586837754e-16 0.7071067811865477 -0.7071067811865474
vn -1 2.220446049250313e-16 0
vn 1 -2.220446049250313e-16 0
vn 0 0 -1
vn -1 2.220446049250313e-16 0
vn 1 -2.220446049250313e-16 0
vn -1.5700924586837747e-16 -0.7071067811865474 -0.7071067811865477
vn -1 2.220446049250313e-16 0
vn 1 -2.220446049250313e-16 0
vn -2.220446049250313e-16 -1 -5.360630966617855e-16
vn -1 2.220446049250313e-16 0
vn 1 -2.220446049250313e-16 0
vn -1.570092458683775e-16 -0.7071067811865475 0.7071067811865477
vn -1 2.220446049250313e-16 0
vn 1 -2.220446049250313e-16 0
vn -1.1902991851315503e-31 -5.360630966617855e-16 1
vn -1 2.220446049250313e-16 0
usemtl m_0
f 67/265/79 65/266/79 63/267/79
f 65/268/80 67/269/80 68/270/80 66/271/80
f 66/272/81 68/273/81 64/274/81
f 69/275/82 67/276/82 63/277/82
f 67/278/83 69/279/83 70/280/83 68/281/83
f 68/282/84 70/283/84 64/284/84
f 71/285/85 69/286/85 63/287/85
f 69/288/86 71/289/86 72/290/86 70/291/86
f 70/292/87 72/293/87 64/294/87
f 73/295/88 71/296/88 63/297/88
f 71/298/89 73/299/89 74/300/89 72/301/89
f 72/302/90 74/303/90 64/304/90
f 75/305/91 73/306/91 63/307/91
f 73/308/92 75/309/92 76/310/92 74/311/92
f 74/312/93 76/313/93 64/314/93
f 77/315/94 75/316/94 63/317/94
f 75/318/95 77/319/95 78/320/95 76/321/95
f 76/322/96 78/323/96 64/324/96
f 79/325/97 77/326/97 63/327/97
f 77/328/98 79/329/98 80/330/98 78/331/98
f 78/332/99 80/333/99 64/334/99
f 65/335/100 79/336/100 63/337/100
f 79/338/101 65/339/101 66/340/101 80/341/101
f 80/342/102 66/343/102 64/344/102