# Made in Blockbench 4.7.4
mtllib cr_bogey_wheels.mtl

o cube1
v 1.1875 0.5625 0.125
v 1.1875 0.5625 -0.125
v 1.1875 0.3125 0.125
v 1.1875 0.3125 -0.125
v -1.1875 0.5625 -0.125
v -1.1875 0.5625 0.125
v -1.1875 0.3125 -0.125
v -1.1875 0.3125 0.125
vt 0 1
vt 0.7916666666666666 1
vt 0.7916666666666666 0.9166666666666666
vt 0 0.9166666666666666
vt 0 0.9166666666666666
vt 0.08333333333333333 0.9166666666666666
vt 0.08333333333333333 0.8333333333333334
vt 0 0.8333333333333334
vt 0 1
vt 0.7916666666666666 1
vt 0.7916666666666666 0.9166666666666666
vt 0 0.9166666666666666
vt 0 0.9166666666666666
vt 0.08333333333333333 0.9166666666666666
vt 0.08333333333333333 0.8333333333333334
vt 0 0.8333333333333334
vt 0.7916666666666666 0.9166666666666666
vt 0 0.9166666666666666
vt 0 1
vt 0.7916666666666666 1
vt 0.7916666666666666 1
vt 0 1
vt 0 0.9166666666666666
vt 0.7916666666666666 0.9166666666666666
vn 0 0 -1
vn 1 0 0
vn 0 0 1
vn -1 0 0
vn 0 1 0
vn 0 -1 0
usemtl mat1
f 4/4/1 7/3/1 5/2/1 2/1/1
f 3/8/2 4/7/2 2/6/2 1/5/2
f 8/12/3 3/11/3 1/10/3 6/9/3
f 7/16/4 8/15/4 6/14/4 5/13/4
f 6/20/5 1/19/5 2/18/5 5/17/5
f 7/24/6 4/23/6 3/22/6 8/21/6
o cylinder1
v 0.8750000000000001 0.4374999999999998 0
v 0.7500000000000001 0.43749999999999983 0
v 0.8750000000000001 0.618718433538229 0.4375
v 0.7500000000000001 0.618718433538229 0.4375
v 0.8750000000000002 0.8749999999999998 0.1812184335382292
v 0.7500000000000002 0.8749999999999998 0.1812184335382292
v 0.8750000000000002 0.8749999999999998 -0.1812184335382292
v 0.7500000000000002 0.8749999999999998 -0.1812184335382292
v 0.8750000000000001 0.618718433538229 -0.4375
v 0.7500000000000001 0.618718433538229 -0.4375
v 0.8750000000000001 0.2562815664617708 -0.4375
v 0.7500000000000001 0.2562815664617708 -0.4375
v 0.875 -8.326672684688674e-17 -0.18121843353822942
v 0.75 -5.551115123125783e-17 -0.18121843353822942
v 0.875 -1.3877787807814457e-16 0.1812184335382292
v 0.75 -1.1102230246251565e-16 0.1812184335382292
v 0.8750000000000001 0.25628156646177036 0.4374999999999999
v 0.7500000000000001 0.2562815664617704 0.4374999999999999
vt 0.14583333333333331 0.71040625
vt 0.14582291666666664 0.83125
vt 0 0.7708333333333334
vt 0.08333333333333333 0.875
vt 0.20833333333333331 0.875
vt 0.20833333333333331 0.9166666666666666
vt 0.08333333333333333 0.9166666666666666
vt 0.14582291666666664 0.7104166666666667
vt 0.14583333333333331 0.8312604166666666
vt 0 0.7708333333333334
vt 0.14583333333333331 0.7104270833333333
vt 0.14583333333333331 0.8312395833333335
vt 0 0.7708333333333334
vt 0.08333333333333333 0.875
vt 0.20833333333333331 0.875
vt 0.20833333333333331 0.9166666666666666
vt 0.08333333333333333 0.9166666666666666
vt 0.14583333333333331 0.7104270833333333
vt 0.14583333333333331 0.8312395833333335
vt 0 0.7708333333333334
vt 0.14582291666666664 0.7104166666666667
vt 0.14583333333333331 0.8312604166666666
vt 0 0.7708333333333334
vt 0.08333333333333333 0.875
vt 0.20833333333333331 0.875
vt 0.20833333333333331 0.9166666666666666
vt 0.08333333333333333 0.9166666666666666
vt 0.14583333333333331 0.7104062500000001
vt 0.14582291666666664 0.83125
vt 0 0.7708333333333334
vt 0.14584375 0.7104166666666666
vt 0.14582291666666664 0.8312500000000002
vt 0 0.7708333333333334
vt 0.08333333333333333 0.875
vt 0.20833333333333331 0.875
vt 0.20833333333333331 0.9166666666666666
vt 0.08333333333333333 0.9166666666666666
vt 0.14582291666666664 0.7104166666666667
vt 0.14584375 0.83125
vt 0 0.7708333333333334
vt 0.14583333333333331 0.7104270833333333
vt 0.14584375 0.8312500000000002
vt 0 0.7708333333333334
vt 0.08333333333333333 0.875
vt 0.20833333333333331 0.875
vt 0.20833333333333331 0.9166666666666666
vt 0.08333333333333333 0.9166666666666666
vt 0.14584375000000008 0.7104166666666663
vt 0.14583333333333331 0.8312395833333335
vt 0 0.7708333333333334
vt 0.14583333333333331 0.71040625
vt 0.14583333333333331 0.8312604166666666
vt 0 0.7708333333333334
vt 0.08333333333333333 0.875
vt 0.20833333333333331 0.875
vt 0.20833333333333331 0.9166666666666666
vt 0.08333333333333333 0.9166666666666666
vt 0.14583333333333331 0.8312395833333335
vt 0.14583333333333331 0.7104270833333333
vt 0 0.7708333333333334
vt 0.14584375 0.7104166666666667
vt 0.14583333333333331 0.8312395833333335
vt 0 0.7708333333333334
vt 0.08333333333333333 0.875
vt 0.20833333333333331 0.875
vt 0.20833333333333331 0.9166666666666666
vt 0.08333333333333333 0.9166666666666666
vt 0.14583333333333331 0.7104270833333333
vt 0.14584375 0.83125
vt 0 0.7708333333333329
vt 0.14582291666666664 0.8312499999999998
vt 0.14584375 0.7104166666666666
vt 0 0.7708333333333334
vt 0.08333333333333333 0.875
vt 0.20833333333333331 0.875
vt 0.20833333333333331 0.9166666666666666
vt 0.08333333333333333 0.9166666666666666
vt 0.14584375 0.7104166666666667
vt 0.14582291666666664 0.83125
vt 0 0.7708333333333334
vn 1 -2.220446049250313e-16 0
vn 1.5700924586837752e-16 0.7071067811865476 0.7071067811865476
vn -1 2.220446049250313e-16 0
vn 1 -2.220446049250313e-16 0
vn 2.220446049250313e-16 1 0
vn -1 2.220446049250313e-16 0
vn 1 -2.220446049250313e-16 0
vn 1.5700924586837752e-16 0.7071067811865476 -0.7071067811865476
vn -1 2.220446049250313e-16 0
vn 1 -2.220446049250313e-16 0
vn 0 0 -1
vn -1 2.220446049250313e-16 0
vn 1 -2.220446049250313e-16 0
vn -1.5700924586837742e-16 -0.7071067811865471 -0.7071067811865479
vn -1 2.220446049250313e-16 0
vn 1 -2.220446049250313e-16 0
vn -2.220446049250313e-16 -1 -1.5316088476051018e-16
vn -1 2.220446049250313e-16 0
vn 1 -2.220446049250313e-16 0
vn -1.5700924586837757e-16 -0.7071067811865478 0.7071067811865474
vn -1 2.220446049250313e-16 0
vn 1 -2.220446049250313e-16 0
vn -6.801709629323146e-32 -3.0632176952102037e-16 1
vn -1 2.220446049250313e-16 0
usemtl mat1
f 13/25/7 11/26/7 9/27/7
f 11/28/8 13/29/8 14/30/8 12/31/8
f 12/32/9 14/33/9 10/34/9
f 15/35/10 13/36/10 9/37/10
f 13/38/11 15/39/11 16/40/11 14/41/11
f 14/42/12 16/43/12 10/44/12
f 17/45/13 15/46/13 9/47/13
f 15/48/14 17/49/14 18/50/14 16/51/14
f 16/52/15 18/53/15 10/54/15
f 19/55/16 17/56/16 9/57/16
f 17/58/17 19/59/17 20/60/17 18/61/17
f 18/62/18 20/63/18 10/64/18
f 21/65/19 19/66/19 9/67/19
f 19/68/20 21/69/20 22/70/20 20/71/20
f 20/72/21 22/73/21 10/74/21
f 23/75/22 21/76/22 9/77/22
f 21/78/23 23/79/23 24/80/23 22/81/23
f 22/82/24 24/83/24 10/84/24
f 25/85/25 23/86/25 9/87/25
f 23/88/26 25/89/26 26/90/26 24/91/26
f 24/92/27 26/93/27 10/94/27
f 11/95/28 25/96/28 9/97/28
f 25/98/29 11/99/29 12/100/29 26/101/29
f 26/102/30 12/103/30 10/104/30
o cylinder2
v 1.0625 0.4374999999999998 0
v 0.8750000000000001 0.4374999999999998 0
v 1.0625000000000002 0.5928300858899105 0.375
v 0.8750000000000001 0.5928300858899105 0.375
v 1.0625000000000002 0.8124999999999998 0.1553300858899107
v 0.8750000000000002 0.8124999999999998 0.1553300858899107
v 1.0625000000000002 0.8124999999999998 -0.1553300858899107
v 0.8750000000000002 0.8124999999999998 -0.1553300858899107
v 1.0625000000000002 0.5928300858899105 -0.375
v 0.8750000000000001 0.5928300858899105 -0.375
v 1.0625 0.2821699141100892 -0.375
v 0.8750000000000001 0.2821699141100892 -0.375
v 1.0625 0.062499999999999875 -0.15533008588991093
v 0.875 0.06249999999999992 -0.15533008588991093
v 1.0625 0.06249999999999982 0.1553300858899107
v 0.875 0.06249999999999986 0.1553300858899107
v 1.0625 0.28216991411008885 0.3749999999999999
v 0.8750000000000001 0.28216991411008885 0.3749999999999999
vt 0.3145833333333333 0.8226104166666668
vt 0.3142770833333334 0.71875
vt 0.4375 0.7708333333333334
vt 0.20833333333333331 0.8541666666666667
vt 0.3125 0.8541666666666667
vt 0.3125 0.9166666666666666
vt 0.20833333333333331 0.9166666666666666
vt 0.53094375 0.10416666666666674
vt 0.6041666666666666 0.17738958333333343
vt 0.47916666666666663 0.22916666666666674
vt 0.3125 0.8232229166666667
vt 0.3125 0.71844375
vt 0.4375 0.7708333333333334
vt 0.20833333333333331 0.8541666666666667
vt 0.3125 0.8541666666666667
vt 0.3125 0.9166666666666666
vt 0.20833333333333331 0.9166666666666666
vt 0.6041666666666666 0.17738958333333343
vt 0.6041666666666666 0.28094374999999994
vt 0.47916666666666663 0.22916666666666674
vt 0.3142770833333334 0.8229166666666667
vt 0.3145833333333333 0.7190562500000001
vt 0.4375 0.7708333333333334
vt 0.20833333333333331 0.8541666666666667
vt 0.3125 0.8541666666666667
vt 0.3125 0.9166666666666666
vt 0.20833333333333331 0.9166666666666666
vt 0.6041666666666666 0.28094374999999994
vt 0.53094375 0.35416666666666674
vt 0.47916666666666663 0.22916666666666674
vt 0.31280624999999995 0.8229166666666667
vt 0.3142770833333331 0.7187500000000002
vt 0.4375 0.7708333333333334
vt 0.20833333333333331 0.8541666666666667
vt 0.3125 0.8541666666666667
vt 0.3125 0.9166666666666666
vt 0.20833333333333331 0.9166666666666666
vt 0.53094375 0.35416666666666674
vt 0.4273895833333333 0.35416666666666674
vt 0.47916666666666663 0.22916666666666674
vt 0.3125 0.8232229166666667
vt 0.31280624999999995 0.71875
vt 0.4375 0.7708333333333334
vt 0.20833333333333331 0.8541666666666667
vt 0.3125 0.8541666666666667
vt 0.3125 0.9166666666666666
vt 0.20833333333333331 0.9166666666666666
vt 0.4273895833333333 0.35416666666666674
vt 0.35416666666666663 0.28094374999999994
vt 0.47916666666666663 0.22916666666666674
vt 0.3125 0.8226104166666668
vt 0.3125 0.7190562500000001
vt 0.4375 0.7708333333333334
vt 0.20833333333333331 0.8541666666666667
vt 0.3125 0.8541666666666667
vt 0.3125 0.9166666666666666
vt 0.20833333333333331 0.9166666666666666
vt 0.35416666666666663 0.28094374999999994
vt 0.35416666666666663 0.17738958333333343
vt 0.47916666666666663 0.22916666666666674
vt 0.31280624999999995 0.8229166666666667
vt 0.3125 0.71844375
vt 0.4375 0.7708333333333334
vt 0.20833333333333331 0.8541666666666667
vt 0.3125 0.8541666666666667
vt 0.3125 0.9166666666666666
vt 0.20833333333333331 0.9166666666666666
vt 0.35416666666666663 0.17738958333333343
vt 0.4273895833333333 0.10416666666666674
vt 0.47916666666666663 0.22916666666666674
vt 0.31427708333333326 0.822916666666667
vt 0.3148895833333333 0.71875
vt 0.4375 0.7708333333333334
vt 0.20833333333333331 0.8541666666666667
vt 0.3125 0.8541666666666667
vt 0.3125 0.9166666666666666
vt 0.20833333333333331 0.9166666666666666
vt 0.4273895833333333 0.10416666666666674
vt 0.53094375 0.10416666666666674
vt 0.47916666666666663 0.22916666666666674
vn 1 -2.220446049250313e-16 0
vn 1.5700924586837752e-16 0.7071067811865476 0.7071067811865476
vn -1 2.220446049250313e-16 0
vn 1 -2.220446049250313e-16 0
vn 2.220446049250313e-16 1 0
vn -1 2.220446049250313e-16 0
vn 1 -2.220446049250313e-16 0
vn 1.5700924586837752e-16 0.7071067811865476 -0.7071067811865476
vn -1 2.220446049250313e-16 0
vn 1 -2.220446049250313e-16 0
vn 0 0 -1
vn -1 2.220446049250313e-16 0
vn 1 -2.220446049250313e-16 0
vn -1.5700924586837742e-16 -0.7071067811865471 -0.7071067811865479
vn -1 2.220446049250313e-16 0
vn 1 -2.220446049250313e-16 0
vn -2.220446049250313e-16 -1 -1.7868769888726192e-16
vn -1 2.220446049250313e-16 0
vn 1 -2.220446049250313e-16 0
vn -1.5700924586837757e-16 -0.7071067811865478 0.7071067811865472
vn -1 2.220446049250313e-16 0
vn 1 -2.220446049250313e-16 0
vn -7.935327900877006e-32 -3.5737539777452383e-16 1
vn -1 2.220446049250313e-16 0
usemtl mat1
f 31/105/31 29/106/31 27/107/31
f 29/108/32 31/109/32 32/110/32 30/111/32
f 30/112/33 32/113/33 28/114/33
f 33/115/34 31/116/34 27/117/34
f 31/118/35 33/119/35 34/120/35 32/121/35
f 32/122/36 34/123/36 28/124/36
f 35/125/37 33/126/37 27/127/37
f 33/128/38 35/129/38 36/130/38 34/131/38
f 34/132/39 36/133/39 28/134/39
f 37/135/40 35/136/40 27/137/40
f 35/138/41 37/139/41 38/140/41 36/141/41
f 36/142/42 38/143/42 28/144/42
f 39/145/43 37/146/43 27/147/43
f 37/148/44 39/149/44 40/150/44 38/151/44
f 38/152/45 40/153/45 28/154/45
f 41/155/46 39/156/46 27/157/46
f 39/158/47 41/159/47 42/160/47 40/161/47
f 40/162/48 42/163/48 28/164/48
f 43/165/49 41/166/49 27/167/49
f 41/168/50 43/169/50 44/170/50 42/171/50
f 42/172/51 44/173/51 28/174/51
f 29/175/52 43/176/52 27/177/52
f 43/178/53 29/179/53 30/180/53 44/181/53
f 44/182/54 30/183/54 28/184/54
o cylinder3
v -0.8750000000000001 0.4375 4.517432523447336e-16
v -0.7500000000000001 0.4375 4.3643516735539167e-16
v -0.8750000000000002 0.6187184335382292 -0.43749999999999956
v -0.7500000000000002 0.6187184335382292 -0.43749999999999956
v -0.8750000000000002 0.875 -0.18121843353822875
v -0.7500000000000002 0.875 -0.18121843353822875
v -0.8750000000000002 0.875 0.18121843353822964
v -0.7500000000000002 0.875 0.18121843353822964
v -0.8750000000000001 0.6187184335382292 0.43750000000000044
v -0.7500000000000001 0.6187184335382292 0.43750000000000044
v -0.875 0.2562815664617709 0.43750000000000044
v -0.75 0.25628156646177097 0.43750000000000044
v -0.875 1.1102230246251565e-16 0.18121843353822986
v -0.75 1.1102230246251565e-16 0.18121843353822986
v -0.875 5.551115123125783e-17 -0.18121843353822875
v -0.75 5.551115123125783e-17 -0.18121843353822875
v -0.8750000000000001 0.2562815664617706 -0.43749999999999944
v -0.7500000000000001 0.2562815664617706 -0.43749999999999944
vt 0.14583333333333331 0.71040625
vt 0.14582291666666664 0.83125
vt 0 0.7708333333333334
vt 0.08333333333333333 0.875
vt 0.20833333333333331 0.875
vt 0.20833333333333331 0.9166666666666666
vt 0.08333333333333333 0.9166666666666666
vt 0.14582291666666664 0.7104166666666667
vt 0.14583333333333331 0.8312604166666666
vt 0 0.7708333333333334
vt 0.14583333333333331 0.7104270833333333
vt 0.14583333333333331 0.8312395833333335
vt 0 0.7708333333333334
vt 0.08333333333333333 0.875
vt 0.20833333333333331 0.875
vt 0.20833333333333331 0.9166666666666666
vt 0.08333333333333333 0.9166666666666666
vt 0.14583333333333331 0.7104270833333333
vt 0.14583333333333331 0.8312395833333335
vt 0 0.7708333333333334
vt 0.14582291666666664 0.7104166666666667
vt 0.14583333333333331 0.8312604166666666
vt 0 0.7708333333333334
vt 0.08333333333333333 0.875
vt 0.20833333333333331 0.875
vt 0.20833333333333331 0.9166666666666666
vt 0.08333333333333333 0.9166666666666666
vt 0.14583333333333331 0.7104062500000001
vt 0.14582291666666664 0.83125
vt 0 0.7708333333333334
vt 0.14584375 0.7104166666666666
vt 0.14582291666666664 0.8312500000000002
vt 0 0.7708333333333334
vt 0.08333333333333333 0.875
vt 0.20833333333333331 0.875
vt 0.20833333333333331 0.9166666666666666
vt 0.08333333333333333 0.9166666666666666
vt 0.14582291666666664 0.7104166666666667
vt 0.14584375 0.83125
vt 0 0.7708333333333334
vt 0.14583333333333331 0.7104270833333333
vt 0.14584375 0.8312500000000002
vt 0 0.7708333333333334
vt 0.08333333333333333 0.875
vt 0.20833333333333331 0.875
vt 0.20833333333333331 0.9166666666666666
vt 0.08333333333333333 0.9166666666666666
vt 0.14584375000000008 0.7104166666666663
vt 0.14583333333333331 0.8312395833333335
vt 0 0.7708333333333334
vt 0.14583333333333331 0.71040625
vt 0.14583333333333331 0.8312604166666666
vt 0 0.7708333333333334
vt 0.08333333333333333 0.875
vt 0.20833333333333331 0.875
vt 0.20833333333333331 0.9166666666666666
vt 0.08333333333333333 0.9166666666666666
vt 0.14583333333333331 0.8312395833333335
vt 0.14583333333333331 0.7104270833333333
vt 0 0.7708333333333334
vt 0.14584375 0.7104166666666667
vt 0.14583333333333331 0.8312395833333335
vt 0 0.7708333333333334
vt 0.08333333333333333 0.875
vt 0.20833333333333331 0.875
vt 0.20833333333333331 0.9166666666666666
vt 0.08333333333333333 0.9166666666666666
vt 0.14583333333333331 0.7104270833333333
vt 0.14584375 0.83125
vt 0 0.7708333333333329
vt 0.14582291666666664 0.8312499999999998
vt 0.14584375 0.7104166666666666
vt 0 0.7708333333333334
vt 0.08333333333333333 0.875
vt 0.20833333333333331 0.875
vt 0.20833333333333331 0.9166666666666666
vt 0.08333333333333333 0.9166666666666666
vt 0.14584375 0.7104166666666667
vt 0.14582291666666664 0.83125
vt 0 0.7708333333333334
vn -1 -2.220446049250313e-16 1.2246467991473532e-16
vn -2.4360485149192685e-16 0.7071067811865476 -0.7071067811865476
vn 1 2.220446049250313e-16 -1.2246467991473532e-16
vn -1 -2.220446049250313e-16 1.2246467991473532e-16
vn -2.220446049250313e-16 1 2.719262146893782e-32
vn 1 2.220446049250313e-16 -1.2246467991473532e-16
vn -1 -2.220446049250313e-16 1.2246467991473532e-16
vn -7.041364024482818e-17 0.7071067811865476 0.7071067811865476
vn 1 2.220446049250313e-16 -1.2246467991473532e-16
vn -1 -2.220446049250313e-16 1.2246467991473532e-16
vn 1.2246467991473532e-16 2.5407181807812022e-33 1
vn 1 2.220446049250313e-16 -1.2246467991473532e-16
vn -1 -2.220446049250313e-16 1.2246467991473532e-16
vn 2.436048514919268e-16 -0.7071067811865471 0.7071067811865479
vn 1 2.220446049250313e-16 -1.2246467991473532e-16
vn -1 -2.220446049250313e-16 1.2246467991473532e-16
vn 2.220446049250313e-16 -1 1.5316088476051016e-16
vn 1 2.220446049250313e-16 -1.2246467991473532e-16
vn -1 -2.220446049250313e-16 1.2246467991473532e-16
vn 7.041364024482826e-17 -0.7071067811865478 -0.7071067811865474
vn 1 2.220446049250313e-16 -1.2246467991473532e-16
vn -1 -2.220446049250313e-16 1.2246467991473532e-16
vn -1.2246467991473525e-16 -3.0632176952102037e-16 -1
vn 1 2.220446049250313e-16 -1.2246467991473532e-16
usemtl mat1
f 49/185/55 47/186/55 45/187/55
f 47/188/56 49/189/56 50/190/56 48/191/56
f 48/192/57 50/193/57 46/194/57
f 51/195/58 49/196/58 45/197/58
f 49/198/59 51/199/59 52/200/59 50/201/59
f 50/202/60 52/203/60 46/204/60
f 53/205/61 51/206/61 45/207/61
f 51/208/62 53/209/62 54/210/62 52/211/62
f 52/212/63 54/213/63 46/214/63
f 55/215/64 53/216/64 45/217/64
f 53/218/65 55/219/65 56/220/65 54/221/65
f 54/222/66 56/223/66 46/224/66
f 57/225/67 55/226/67 45/227/67
f 55/228/68 57/229/68 58/230/68 56/231/68
f 56/232/69 58/233/69 46/234/69
f 59/235/70 57/236/70 45/237/70
f 57/238/71 59/239/71 60/240/71 58/241/71
f 58/242/72 60/243/72 46/244/72
f 61/245/73 59/246/73 45/247/73
f 59/248/74 61/249/74 62/250/74 60/251/74
f 60/252/75 62/253/75 46/254/75
f 47/255/76 61/256/76 45/257/76
f 61/258/77 47/259/77 48/260/77 62/261/77
f 62/262/78 48/263/78 46/264/78
o cylinder4
v -1.0625 0.43750000000000017 1.148106374200645e-17
v -0.8750000000000001 0.43750000000000017 -1.1481063742006423e-17
v -1.0625000000000002 0.5928300858899108 -0.375
v -0.8750000000000002 0.5928300858899109 -0.375
v -1.0625000000000002 0.8125000000000002 -0.1553300858899107
v -0.8750000000000002 0.8125000000000002 -0.1553300858899107
v -1.0625000000000002 0.8125000000000002 0.1553300858899107
v -0.8750000000000002 0.8125000000000002 0.1553300858899107
v -1.0625 0.5928300858899108 0.375
v -0.8750000000000001 0.5928300858899109 0.375
v -1.0625 0.2821699141100895 0.375
v -0.875 0.2821699141100896 0.375
v -1.0625 0.06250000000000028 0.15533008588991093
v -0.875 0.06250000000000028 0.15533008588991093
v -1.0625 0.06250000000000022 -0.1553300858899107
v -0.875 0.06250000000000022 -0.1553300858899107
v -1.0625000000000002 0.2821699141100892 -0.3749999999999999
v -0.8750000000000001 0.2821699141100893 -0.3749999999999999
vt 0.3145833333333333 0.8226104166666668
vt 0.3142770833333334 0.71875
vt 0.4375 0.7708333333333334
vt 0.20833333333333331 0.8541666666666667
vt 0.3125 0.8541666666666667
vt 0.3125 0.9166666666666666
vt 0.20833333333333331 0.9166666666666666
vt 0.65594375 0.625
vt 0.7291666666666666 0.6982229166666668
vt 0.6041666666666666 0.75
vt 0.3125 0.8232229166666667
vt 0.3125 0.71844375
vt 0.4375 0.7708333333333334
vt 0.20833333333333331 0.8541666666666667
vt 0.3125 0.8541666666666667
vt 0.3125 0.9166666666666666
vt 0.20833333333333331 0.9166666666666666
vt 0.7291666666666666 0.6982229166666668
vt 0.7291666666666666 0.8017770833333333
vt 0.6041666666666666 0.75
vt 0.3142770833333334 0.8229166666666667
vt 0.3145833333333333 0.7190562500000001
vt 0.4375 0.7708333333333334
vt 0.20833333333333331 0.8541666666666667
vt 0.3125 0.8541666666666667
vt 0.3125 0.9166666666666666
vt 0.20833333333333331 0.9166666666666666
vt 0.7291666666666666 0.8017770833333333
vt 0.65594375 0.875
vt 0.6041666666666666 0.75
vt 0.31280624999999995 0.8229166666666667
vt 0.3142770833333331 0.7187500000000002
vt 0.4375 0.7708333333333334
vt 0.20833333333333331 0.8541666666666667
vt 0.3125 0.8541666666666667
vt 0.3125 0.9166666666666666
vt 0.20833333333333331 0.9166666666666666
vt 0.65594375 0.875
vt 0.5523895833333333 0.875
vt 0.6041666666666666 0.75
vt 0.3125 0.8232229166666667
vt 0.31280624999999995 0.71875
vt 0.4375 0.7708333333333334
vt 0.20833333333333331 0.8541666666666667
vt 0.3125 0.8541666666666667
vt 0.3125 0.9166666666666666
vt 0.20833333333333331 0.9166666666666666
vt 0.5523895833333333 0.875
vt 0.47916666666666663 0.8017770833333333
vt 0.6041666666666666 0.75
vt 0.3125 0.8226104166666668
vt 0.3125 0.7190562500000001
vt 0.4375 0.7708333333333334
vt 0.20833333333333331 0.8541666666666667
vt 0.3125 0.8541666666666667
vt 0.3125 0.9166666666666666
vt 0.20833333333333331 0.9166666666666666
vt 0.47916666666666663 0.8017770833333333
vt 0.47916666666666663 0.6982229166666668
vt 0.6041666666666666 0.75
vt 0.31280624999999995 0.8229166666666667
vt 0.3125 0.71844375
vt 0.4375 0.7708333333333334
vt 0.20833333333333331 0.8541666666666667
vt 0.3125 0.8541666666666667
vt 0.3125 0.9166666666666666
vt 0.20833333333333331 0.9166666666666666
vt 0.47916666666666663 0.6982229166666668
vt 0.5523895833333333 0.625
vt 0.6041666666666666 0.75
vt 0.31427708333333326 0.822916666666667
vt 0.3148895833333333 0.71875
vt 0.4375 0.7708333333333334
vt 0.20833333333333331 0.8541666666666667
vt 0.3125 0.8541666666666667
vt 0.3125 0.9166666666666666
vt 0.20833333333333331 0.9166666666666666
vt 0.5523895833333333 0.625
vt 0.65594375 0.625
vt 0.6041666666666666 0.75
vn -1 -2.220446049250313e-16 1.2246467991473532e-16
vn -2.4360485149192685e-16 0.7071067811865476 -0.7071067811865476
vn 1 2.220446049250313e-16 -1.2246467991473532e-16
vn -1 -2.220446049250313e-16 1.2246467991473532e-16
vn -2.220446049250313e-16 1 2.719262146893782e-32
vn 1 2.220446049250313e-16 -1.2246467991473532e-16
vn -1 -2.220446049250313e-16 1.2246467991473532e-16
vn -7.041364024482818e-17 0.7071067811865476 0.7071067811865476
vn 1 2.220446049250313e-16 -1.2246467991473532e-16
vn -1 -2.220446049250313e-16 1.2246467991473532e-16
vn 1.2246467991473532e-16 2.5407181807812022e-33 1
vn 1 2.220446049250313e-16 -1.2246467991473532e-16
vn -1 -2.220446049250313e-16 1.2246467991473532e-16
vn 2.436048514919268e-16 -0.7071067811865471 0.7071067811865479
vn 1 2.220446049250313e-16 -1.2246467991473532e-16
vn -1 -2.220446049250313e-16 1.2246467991473532e-16
vn 2.220446049250313e-16 -1 1.786876988872619e-16
vn 1 2.220446049250313e-16 -1.2246467991473532e-16
vn -1 -2.220446049250313e-16 1.2246467991473532e-16
vn 7.041364024482827e-17 -0.7071067811865478 -0.7071067811865472
vn 1 2.220446049250313e-16 -1.2246467991473532e-16
vn -1 -2.220446049250313e-16 1.2246467991473532e-16
vn -1.2246467991473525e-16 -3.5737539777452383e-16 -1
vn 1 2.220446049250313e-16 -1.2246467991473532e-16
usemtl mat1
f 67/265/79 65/266/79 63/267/79
f 65/268/80 67/269/80 68/270/80 66/271/80
f 66/272/81 68/273/81 64/274/81
f 69/275/82 67/276/82 63/277/82
f 67/278/83 69/279/83 70/280/83 68/281/83
f 68/282/84 70/283/84 64/284/84
f 71/285/85 69/286/85 63/287/85
f 69/288/86 71/289/86 72/290/86 70/291/86
f 70/292/87 72/293/87 64/294/87
f 73/295/88 71/296/88 63/297/88
f 71/298/89 73/299/89 74/300/89 72/301/89
f 72/302/90 74/303/90 64/304/90
f 75/305/91 73/306/91 63/307/91
f 73/308/92 75/309/92 76/310/92 74/311/92
f 74/312/93 76/313/93 64/314/93
f 77/315/94 75/316/94 63/317/94
f 75/318/95 77/319/95 78/320/95 76/321/95
f 76/322/96 78/323/96 64/324/96
f 79/325/97 77/326/97 63/327/97
f 77/328/98 79/329/98 80/330/98 78/331/98
f 78/332/99 80/333/99 64/334/99
f 65/335/100 79/336/100 63/337/100
f 79/338/101 65/339/101 66/340/101 80/341/101
f 80/342/102 66/343/102 64/344/102