# Blender 3.3.2
# www.blender.org
mtllib track.mtl
o bottom
v 0.673961 0.182500 1.027515
v 1.381068 0.182500 0.320408
v 0.673961 -0.005000 1.027515
v 1.381068 -0.005000 0.320408
v 0.673961 0.182500 -0.386699
v -0.033145 0.182500 0.320408
v 0.673961 -0.005000 -0.386699
v -0.033145 -0.005000 0.320408
vn 0.7071 -0.0000 -0.7071
vn 0.7071 -0.0000 0.7071
vn -0.7071 -0.0000 0.7071
vn -0.7071 -0.0000 -0.7071
vn -0.0000 1.0000 -0.0000
vn -0.0000 -1.0000 -0.0000
vt 0.500000 0.625000
vt 0.750000 0.578125
vt 0.250000 0.750000
vt 0.750000 0.671875
vt 0.750000 0.625000
vt 0.000000 0.750000
vt 0.500000 0.578125
vt 0.750000 0.531250
vt 0.250000 1.000000
vt 0.750000 0.625000
vt 0.750000 0.578125
vt 0.000000 1.000000
vt 0.500000 0.671875
vt 0.500000 0.718750
vt 0.000000 0.500000
vt 0.500000 0.578125
vt 0.750000 0.718750
vt 0.250000 0.500000
vt 0.500000 0.625000
vt 0.500000 0.671875
vt 0.000000 0.750000
vt 0.500000 0.531250
vt 0.750000 0.671875
vt 0.250000 0.750000
s 0
usemtl m_3
f 4/10/1 7/19/1 5/13/1 2/4/1
f 3/7/2 4/11/2 2/5/2 1/1/2
f 8/22/3 3/8/3 1/2/3 6/16/3
f 7/20/4 8/23/4 6/17/4 5/14/4
f 6/18/5 1/3/5 2/6/5 5/15/5
f 7/21/6 4/12/6 3/9/6 8/24/6
o middle
v 0.585573 0.807500 0.939126
v 1.292680 0.807500 0.232019
v 0.585573 0.182500 0.939126
v 1.292680 0.182500 0.232019
v 0.762350 0.807500 -0.298311
v 0.055243 0.807500 0.408796
v 0.762350 0.182500 -0.298311
v 0.055243 0.182500 0.408796
vn 0.7071 -0.0000 -0.7071
vn 0.7071 -0.0000 0.7071
vn -0.7071 -0.0000 0.7071
vn -0.7071 -0.0000 -0.7071
vn -0.0000 1.0000 -0.0000
vn -0.0000 -1.0000 -0.0000
vt 0.000000 0.515625
vt 0.437500 0.515625
vt 0.000000 1.000000
vt 0.500000 0.875000
vt 0.250000 0.515625
vt 0.000000 1.000000
vt 0.000000 0.359375
vt 0.437500 0.359375
vt 0.000000 1.000000
vt 0.500000 0.718750
vt 0.250000 0.359375
vt 0.000000 1.000000
vt 0.687500 0.875000
vt 0.000000 0.515625
vt 0.000000 1.000000
vt 0.250000 0.515625
vt 0.000000 1.000000
vt 0.687500 0.718750
vt 0.000000 0.359375
vt 0.000000 1.000000
vt 0.250000 0.359375
vt 0.000000 1.000000
s 0
usemtl m_3
f 12/34/7 15/42/7 13/37/7 10/28/7
f 11/31/8 12/35/8 10/29/8 9/25/8
f 16/45/9 11/32/9 9/26/9 14/40/9
f 15/43/10 16/45/10 14/40/10 13/38/10
f 14/41/11 9/27/11 10/30/11 13/39/11
f 15/44/12 12/36/12 11/33/12 16/46/12
o top
v 0.673961 0.995000 1.027515
v 1.381068 0.995000 0.320408
v 0.673961 0.807500 1.027515
v 1.381068 0.807500 0.320408
v 0.673961 0.995000 -0.386699
v -0.033145 0.995000 0.320408
v 0.673961 0.807500 -0.386699
v -0.033145 0.807500 0.320408
vn 0.7071 -0.0000 -0.7071
vn 0.7071 -0.0000 0.7071
vn -0.7071 -0.0000 0.7071
vn -0.7071 -0.0000 -0.7071
vn -0.0000 1.0000 -0.0000
vn -0.0000 -1.0000 -0.0000
vt 0.437500 0.406250
vt 0.250000 0.359375
vt 0.250000 1.000000
vt 0.437500 0.453125
vt 0.687500 0.406250
vt 0.000000 1.000000
vt 0.437500 0.359375
vt 0.250000 0.312500
vt 0.250000 0.750000
vt 0.437500 0.406250
vt 0.687500 0.359375
vt 0.000000 0.750000
vt 0.687500 0.453125
vt 0.437500 0.500000
vt 0.000000 0.750000
vt 0.000000 0.359375
vt 0.687500 0.500000
vt 0.250000 0.750000
vt 0.687500 0.406250
vt 0.437500 0.453125
vt 0.000000 0.500000
vt 0.000000 0.312500
vt 0.687500 0.453125
vt 0.250000 0.500000
s 0
usemtl m_3
f 20/56/13 23/65/13 21/59/13 18/50/13
f 19/53/14 20/57/14 18/51/14 17/47/14
f 24/68/15 19/54/15 17/48/15 22/62/15
f 23/66/16 24/69/16 22/63/16 21/60/16
f 22/64/17 17/49/17 18/52/17 21/61/17
f 23/67/18 20/58/18 19/55/18 24/70/18
o bottom.001
v 0.320408 0.182500 1.381068
v 0.673961 0.182500 1.027515
v 0.320408 -0.005000 1.381068
v 0.673961 -0.005000 1.027515
v -0.033145 0.182500 0.320408
v -0.386699 0.182500 0.673961
v -0.033145 -0.005000 0.320408
v -0.386699 -0.005000 0.673961
vn 0.7071 -0.0000 -0.7071
vn 0.7071 -0.0000 0.7071
vn -0.7071 -0.0000 0.7071
vn -0.7071 -0.0000 -0.7071
vn -0.0000 1.0000 -0.0000
vn -0.0000 -1.0000 -0.0000
vt 0.625000 0.625000
vt 0.750000 0.578125
vt 0.000000 0.750000
vt 0.750000 0.671875
vt 0.500000 0.625000
vt 0.125000 0.750000
vt 0.625000 0.578125
vt 0.750000 0.531250
vt 0.187500 1.000000
vt 0.750000 0.625000
vt 0.500000 0.578125
vt 0.062500 1.000000
vt 0.500000 0.671875
vt 0.625000 0.718750
vt 0.125000 0.500000
vt 0.500000 0.578125
vt 0.500000 0.718750
vt 0.000000 0.500000
vt 0.500000 0.625000
vt 0.625000 0.671875
vt 0.062500 0.750000
vt 0.500000 0.531250
vt 0.500000 0.671875
vt 0.187500 0.750000
s 0
usemtl m_3
f 28/80/19 31/89/19 29/83/19 26/74/19
f 27/77/20 28/81/20 26/75/20 25/71/20
f 32/92/21 27/78/21 25/72/21 30/86/21
f 31/90/22 32/93/22 30/87/22 29/84/22
f 30/88/23 25/73/23 26/76/23 29/85/23
f 31/91/24 28/82/24 27/79/24 32/94/24
o middle.001
v 0.232019 0.807500 1.292680
v 0.585573 0.807500 0.939126
v 0.232019 0.182500 1.292680
v 0.585573 0.182500 0.939126
v 0.055243 0.807500 0.408796
v -0.298311 0.807500 0.762350
v 0.055243 0.182500 0.408796
v -0.298311 0.182500 0.762350
vn 0.7071 -0.0000 -0.7071
vn 0.7071 -0.0000 0.7071
vn -0.7071 -0.0000 0.7071
vn -0.7071 -0.0000 -0.7071
vn -0.0000 1.0000 -0.0000
vn -0.0000 -1.0000 -0.0000
vt 0.125000 0.515625
vt 0.437500 0.515625
vt 0.000000 1.000000
vt 0.500000 0.875000
vt 0.000000 0.515625
vt 0.000000 1.000000
vt 0.125000 0.359375
vt 0.437500 0.359375
vt 0.000000 1.000000
vt 0.500000 0.718750
vt 0.000000 0.359375
vt 0.000000 1.000000
vt 0.687500 0.875000
vt 0.125000 0.515625
vt 0.000000 1.000000
vt 0.250000 0.515625
vt 0.000000 0.515625
vt 0.000000 1.000000
vt 0.687500 0.718750
vt 0.125000 0.359375
vt 0.000000 1.000000
vt 0.250000 0.359375
vt 0.000000 0.359375
vt 0.000000 1.000000
s 0
usemtl m_3
f 36/104/25 39/113/25 37/107/25 34/98/25
f 35/101/26 36/105/26 34/99/26 33/95/26
f 40/116/27 35/102/27 33/96/27 38/110/27
f 39/114/28 40/117/28 38/111/28 37/108/28
f 38/112/29 33/97/29 34/100/29 37/109/29
f 39/115/30 36/106/30 35/103/30 40/118/30
o top.001
v 0.320408 0.995000 1.381068
v 0.673961 0.995000 1.027515
v 0.320408 0.807500 1.381068
v 0.673961 0.807500 1.027515
v -0.033146 0.995000 0.320408
v -0.386699 0.995000 0.673961
v -0.033146 0.807500 0.320408
v -0.386699 0.807500 0.673961
vn 0.7071 -0.0000 -0.7071
vn 0.7071 -0.0000 0.7071
vn -0.7071 -0.0000 0.7071
vn -0.7071 -0.0000 -0.7071
vn -0.0000 1.0000 -0.0000
vn -0.0000 -1.0000 -0.0000
vt 0.562500 0.406250
vt 0.250000 0.359375
vt 0.000000 1.000000
vt 0.437500 0.453125
vt 0.437500 0.406250
vt 0.125000 1.000000
vt 0.562500 0.359375
vt 0.250000 0.312500
vt 0.000000 0.750000
vt 0.437500 0.406250
vt 0.437500 0.359375
vt 0.125000 0.750000
vt 0.687500 0.453125
vt 0.562500 0.500000
vt 0.125000 0.750000
vt 0.000000 0.359375
vt 0.437500 0.500000
vt 0.000000 0.750000
vt 0.687500 0.406250
vt 0.562500 0.453125
vt 0.125000 0.500000
vt 0.000000 0.312500
vt 0.437500 0.453125
vt 0.000000 0.500000
s 0
usemtl m_3
f 44/128/31 47/137/31 45/131/31 42/122/31
f 43/125/32 44/129/32 42/123/32 41/119/32
f 48/140/33 43/126/33 41/120/33 46/134/33
f 47/138/34 48/141/34 46/135/34 45/132/34
f 46/136/35 41/121/35 42/124/35 45/133/35
f 47/139/36 44/130/36 43/127/36 48/142/36
