# Blender 3.6.4
# www.blender.org
mtllib boiler.mtl
o Boiler
v -0.500000 0.414214 -1.000000
v 0.500000 0.414214 -1.000000
v -0.500000 -0.414214 -1.000000
v 0.500000 -0.414214 -1.000000
v -0.500000 -1.000000 -0.414214
v 0.500000 -1.000000 -0.414214
v -0.500000 -1.000000 0.414214
v 0.500000 -1.000000 0.414214
v -0.500000 -0.414214 1.000000
v 0.500000 -0.414214 1.000000
v -0.500000 0.414214 1.000000
v 0.500000 0.414214 1.000000
v -0.500000 1.000000 0.414214
v 0.500000 1.000000 0.414214
v -0.500000 1.000000 -0.414214
v 0.500000 1.000000 -0.414214
vn 1.0000 -0.0000 -0.0000
vn -1.0000 -0.0000 -0.0000
vn -0.0000 -0.0000 -1.0000
vn -0.0000 -0.7071 -0.7071
vn -0.0000 -1.0000 -0.0000
vn -0.0000 -0.7071 0.7071
vn -0.0000 -0.0000 1.0000
vn -0.0000 0.7071 0.7071
vn -0.0000 1.0000 -0.0000
vn -0.0000 0.7071 -0.7071
vt 0.292893 1.000000
vt 0.000000 0.292893
vt 0.707107 0.000000
vt 1.000000 0.707107
vt 1.000000 0.292893
vt 0.707107 1.000000
vt 0.000000 0.707107
vt 0.292893 0.000000
vt 0.828427 1.000000
vt 0.000000 0.000000
vt 0.828427 0.000000
vt 0.828427 1.000000
vt -0.000000 0.000000
vt 0.828427 0.000000
vt 0.000000 1.000000
vt 0.000000 1.000000
vt -0.000000 1.000000
s 0
usemtl front
f 14/1/1 10/2/1 6/3/1
f 7/3/2 11/4/2 15/1/2
f 6/3/1 4/5/1 2/4/1
f 2/4/1 16/6/1 14/1/1
f 14/1/1 12/7/1 10/2/1
f 10/2/1 8/8/1 6/3/1
f 6/3/1 2/4/1 14/1/1
f 15/1/2 1/7/2 3/2/2
f 3/2/2 5/8/2 7/3/2
f 7/3/2 9/5/2 11/4/2
f 11/4/2 13/6/2 15/1/2
f 15/1/2 3/2/2 7/3/2
usemtl sides
f 2/9/3 3/10/3 1/11/3
f 4/12/4 5/13/4 3/14/4
f 6/12/5 7/13/5 5/14/5
f 7/14/6 10/15/6 9/13/6
f 9/14/7 12/15/7 11/13/7
f 12/9/8 13/10/8 11/11/8
f 14/12/9 15/13/9 13/14/9
f 16/9/10 1/10/10 15/11/10
f 2/9/3 4/16/3 3/10/3
f 4/12/4 6/15/4 5/13/4
f 6/12/5 8/15/5 7/13/5
f 7/14/6 8/12/6 10/15/6
f 9/14/7 10/12/7 12/15/7
f 12/9/8 14/17/8 13/10/8
f 14/12/9 16/15/9 15/13/9
f 16/9/10 2/16/10 1/10/10
