# Blender 3.3.2
# www.blender.org
mtllib boiler.mtl
o Boiler
v 1.000000 1.388326 -0.437500
v 1.000000 0.611674 -0.437500
v 1.000000 0.062500 0.111674
v 1.000000 0.062500 0.888326
v 1.000000 0.611674 1.437500
v 1.000000 1.388326 1.437500
v 1.000000 1.937500 0.888326
v 1.000000 1.937500 0.111674
v 0.000000 1.388326 -0.437500
v 0.000000 0.611674 -0.437500
v 0.000000 0.062500 0.111674
v 0.000000 0.062500 0.888326
v 0.000000 0.611674 1.437500
v 0.000000 1.388326 1.437500
v 0.000000 1.937500 0.888326
v 0.000000 1.937500 0.111674
vn 1.0000 -0.0000 -0.0000
vn -1.0000 -0.0000 -0.0000
vn -0.0000 1.0000 -0.0000
vn -0.0000 0.7071 0.7071
vn -0.0000 -1.0000 -0.0000
vn -0.0000 -0.0000 -1.0000
vn -0.0000 -0.7071 -0.7071
vn -0.0000 0.7071 -0.7071
vn -0.0000 -0.0000 1.0000
vn -0.0000 -0.7071 0.7071
vt 0.937500 0.725413
vt 0.776651 1.000000
vt 0.000000 1.000000
vt 0.937500 0.337087
vt 0.776651 1.000000
vt 0.000000 1.000000
vt 0.662913 0.062500
vt 0.776651 1.000000
vt 0.000000 1.000000
vt 0.274587 0.062500
vt 0.776651 1.000000
vt 0.000000 1.000000
vt 0.000000 0.337087
vt 0.776651 1.000000
vt 0.000000 1.000000
vt 0.000000 0.725413
vt 0.776651 1.000000
vt 0.000000 1.000000
vt 0.274587 1.000000
vt 0.776651 1.000000
vt 0.000000 1.000000
vt 0.662913 1.000000
vt 0.776651 1.000000
vt 0.000000 1.000000
vt 0.000094 0.725374
vt 0.000000 0.000000
vt 0.776651 0.000000
vt 0.000094 0.337126
vt 0.776651 0.000000
vt 0.000000 0.000000
vt 0.274626 0.062594
vt 0.000000 0.000000
vt 0.776651 0.000000
vt 0.662874 0.062594
vt 0.000000 0.000000
vt 0.776651 0.000000
vt 0.937406 0.337126
vt 0.000000 0.000000
vt 0.776651 0.000000
vt 0.937406 0.725374
vt 0.000000 0.000000
vt 0.776651 0.000000
vt 0.662874 0.999906
vt 0.000000 0.000000
vt 0.776651 0.000000
vt 0.274626 0.999906
vt 0.776651 0.000000
vt 0.000000 0.000000
s 0
usemtl front
f 7/19/1 5/13/1 3/7/1
f 3/7/1 2/4/1 1/1/1
f 1/1/1 8/22/1 7/19/1
f 7/19/1 6/16/1 5/13/1
f 5/13/1 4/10/1 3/7/1
f 3/7/1 1/1/1 7/19/1
f 12/34/2 14/40/2 16/46/2
f 16/46/2 9/25/2 10/28/2
f 10/28/2 11/31/2 12/34/2
f 12/34/2 13/37/2 14/40/2
f 14/40/2 15/43/2 16/46/2
f 16/46/2 10/28/2 12/34/2
usemtl sides
f 8/24/3 15/45/3 7/20/3
f 7/21/4 14/42/4 6/17/4
f 4/12/5 11/33/5 3/8/5
f 2/6/6 9/27/6 1/2/6
f 3/9/7 10/29/7 2/5/7
f 1/3/8 16/47/8 8/23/8
f 6/18/9 13/39/9 5/14/9
f 5/15/10 12/36/10 4/11/10
f 1/3/8 9/26/8 16/47/8
f 3/9/7 11/32/7 10/29/7
f 4/12/5 12/35/5 11/33/5
f 5/15/10 13/38/10 12/36/10
f 6/18/9 14/41/9 13/39/9
f 7/21/4 15/44/4 14/42/4
f 8/24/3 16/48/3 15/45/3
f 2/6/6 10/30/6 9/27/6
