# Blender 4.1.0
# www.blender.org
mtllib semi_blind_wheels.mtl
o Cube.001_1
v 1.062500 1.625000 -0.000000
v 1.062500 1.562500 -0.000000
v 1.062500 1.562500 -0.232995
v 0.812500 1.625000 0.258883
v 1.062500 1.625000 0.258883
v 0.812500 1.687500 -0.000000
v 0.812500 1.625000 -0.258884
v 0.812500 1.687500 -0.284772
v 1.062500 1.562500 0.232995
v 0.812500 1.625000 -0.000000
v 1.062500 1.625000 -0.258884
v 0.750000 1.000000 -0.000000
v 0.750000 1.687500 0.284772
v 0.750000 1.687500 -0.000000
v 0.812500 1.687500 0.284772
v 0.750000 1.687500 -0.284772
v 1.062500 1.441942 0.441942
v 1.062500 1.397748 0.397748
v 0.812500 1.258884 0.625000
v 1.062500 1.258884 0.625000
v 0.812500 1.486136 0.486136
v 1.062500 1.232995 0.562500
v 0.812500 1.441942 0.441942
v 0.750000 1.284772 0.687500
v 0.750000 1.486136 0.486136
v 0.812500 1.284772 0.687500
v 1.062500 1.000000 0.625000
v 1.062500 1.000000 0.562500
v 0.812500 0.741117 0.625000
v 1.062500 0.741117 0.625000
v 0.812500 1.000000 0.687500
v 1.062500 0.767005 0.562500
v 0.812500 1.000000 0.625000
v 0.750000 0.715228 0.687500
v 0.750000 1.000000 0.687500
v 0.812500 0.715228 0.687500
v 1.062500 0.558058 0.441942
v 1.062500 0.602253 0.397748
v 0.812500 0.375000 0.258884
v 1.062500 0.375000 0.258884
v 0.812500 0.513864 0.486136
v 1.062500 0.437500 0.232995
v 0.812500 0.558058 0.441942
v 0.750000 0.312500 0.284772
v 0.750000 0.513864 0.486136
v 0.812500 0.312500 0.284772
v 1.062500 0.375000 -0.000000
v 1.062500 0.437500 -0.000000
v 0.812500 0.375000 -0.258883
v 1.062500 0.375000 -0.258883
v 0.812500 0.312500 -0.000000
v 1.062500 0.437500 -0.232995
v 0.812500 0.375000 -0.000000
v 0.750000 0.312500 -0.284772
v 0.750000 0.312500 -0.000000
v 0.812500 0.312500 -0.284772
v 1.062500 0.558058 -0.441942
v 1.062500 0.602252 -0.397747
v 0.812500 0.741116 -0.625000
v 1.062500 0.741116 -0.625000
v 0.812500 0.513864 -0.486136
v 1.062500 0.767005 -0.562500
v 0.812500 0.558058 -0.441942
v 0.750000 0.715228 -0.687500
v 0.750000 0.513864 -0.486136
v 0.812500 0.715228 -0.687500
v 1.062500 1.000000 -0.625000
v 1.062500 1.000000 -0.562500
v 0.812500 1.258883 -0.625000
v 1.062500 1.258883 -0.625000
v 0.812500 1.000000 -0.687500
v 1.062500 1.232995 -0.562500
v 0.812500 1.000000 -0.625000
v 0.750000 1.284772 -0.687500
v 0.750000 1.000000 -0.687500
v 0.812500 1.284772 -0.687500
v 1.062500 1.441942 -0.441942
v 1.062500 1.397747 -0.397748
v 0.812500 1.486136 -0.486136
v 0.812500 1.441942 -0.441942
v 0.750000 1.486136 -0.486136
v 1.062500 0.767005 0.232995
v 1.062500 0.767005 -0.232995
v 1.062500 0.767005 -0.000000
v 1.062500 1.232995 -0.000000
v 1.062500 1.000000 0.232995
v 1.062500 1.000000 -0.000000
v 1.062500 1.000000 -0.232995
v 1.062500 1.232995 -0.232995
v 1.062500 1.232995 0.232995
v -1.062500 1.625000 -0.000000
v -1.062500 1.562500 -0.000000
v -1.062500 1.562500 -0.232995
v -0.812500 1.625000 0.258883
v -1.062500 1.625000 0.258883
v -0.812500 1.687500 -0.000000
v -0.812500 1.625000 -0.258884
v -0.812500 1.687500 -0.284772
v -1.062500 1.562500 0.232995
v -0.812500 1.625000 -0.000000
v -1.062500 1.625000 -0.258884
v -0.750000 1.000000 -0.000000
v -0.750000 1.687500 0.284772
v -0.750000 1.687500 -0.000000
v -0.812500 1.687500 0.284772
v -0.750000 1.687500 -0.284772
v -1.062500 1.441942 0.441942
v -1.062500 1.397748 0.397748
v -0.812500 1.258884 0.625000
v -1.062500 1.258884 0.625000
v -0.812500 1.486136 0.486136
v -1.062500 1.232995 0.562500
v -0.812500 1.441942 0.441942
v -0.750000 1.284772 0.687500
v -0.750000 1.486136 0.486136
v -0.812500 1.284772 0.687500
v -1.062500 1.000000 0.625000
v -1.062500 1.000000 0.562500
v -0.812500 0.741117 0.625000
v -1.062500 0.741117 0.625000
v -0.812500 1.000000 0.687500
v -1.062500 0.767005 0.562500
v -0.812500 1.000000 0.625000
v -0.750000 0.715228 0.687500
v -0.750000 1.000000 0.687500
v -0.812500 0.715228 0.687500
v -1.062500 0.558058 0.441942
v -1.062500 0.602253 0.397748
v -0.812500 0.375000 0.258884
v -1.062500 0.375000 0.258884
v -0.812500 0.513864 0.486136
v -1.062500 0.437500 0.232995
v -0.812500 0.558058 0.441942
v -0.750000 0.312500 0.284772
v -0.750000 0.513864 0.486136
v -0.812500 0.312500 0.284772
v -1.062500 0.375000 -0.000000
v -1.062500 0.437500 -0.000000
v -0.812500 0.375000 -0.258883
v -1.062500 0.375000 -0.258883
v -0.812500 0.312500 -0.000000
v -1.062500 0.437500 -0.232995
v -0.812500 0.375000 -0.000000
v -0.750000 0.312500 -0.284772
v -0.750000 0.312500 -0.000000
v -0.812500 0.312500 -0.284772
v -1.062500 0.558058 -0.441942
v -1.062500 0.602252 -0.397747
v -0.812500 0.741116 -0.625000
v -1.062500 0.741116 -0.625000
v -0.812500 0.513864 -0.486136
v -1.062500 0.767005 -0.562500
v -0.812500 0.558058 -0.441942
v -0.750000 0.715228 -0.687500
v -0.750000 0.513864 -0.486136
v -0.812500 0.715228 -0.687500
v -1.062500 1.000000 -0.625000
v -1.062500 1.000000 -0.562500
v -0.812500 1.258883 -0.625000
v -1.062500 1.258883 -0.625000
v -0.812500 1.000000 -0.687500
v -1.062500 1.232995 -0.562500
v -0.812500 1.000000 -0.625000
v -0.750000 1.284772 -0.687500
v -0.750000 1.000000 -0.687500
v -0.812500 1.284772 -0.687500
v -1.062500 1.441942 -0.441942
v -1.062500 1.397747 -0.397748
v -0.812500 1.486136 -0.486136
v -0.812500 1.441942 -0.441942
v -0.750000 1.486136 -0.486136
v -1.062500 0.767005 0.232995
v -1.062500 0.767005 -0.232995
v -1.062500 0.767005 -0.000000
v -1.062500 1.232995 -0.000000
v -1.062500 1.000000 0.232995
v -1.062500 1.000000 -0.000000
v -1.062500 1.000000 -0.232995
v -1.062500 1.232995 -0.232995
v -1.062500 1.232995 0.232995
vn 1.0000 -0.0000 -0.0000
vn -0.0000 1.0000 -0.0000
vn -1.0000 -0.0000 -0.0000
vn -0.0000 0.7071 0.7071
vn -0.0000 -0.0000 1.0000
vn -0.0000 -0.7071 0.7071
vn -0.0000 -1.0000 -0.0000
vn -0.0000 -0.7071 -0.7071
vn -0.0000 -0.0000 -1.0000
vn -0.0000 0.7071 -0.7071
vt 0.812500 0.781329
vt 0.812500 0.750071
vt 0.929027 0.750071
vt 0.683058 0.968750
vt 0.683058 0.843750
vt 0.812500 0.843750
vt 0.812500 0.812586
vt 0.941974 0.781329
vt 0.954922 0.812586
vt 0.695973 0.750071
vt 0.812500 0.968750
vt 0.941942 0.843750
vt 0.812500 0.500000
vt 0.670078 0.843836
vt 0.812500 0.843836
vt 0.812500 1.000000
vt 0.954886 0.968750
vt 0.683026 0.781329
vt 0.670114 1.000000
vt 0.670114 0.968750
vt 0.954922 0.843836
vt 0.670078 0.812586
vt 0.954886 1.000000
vt 0.941942 0.968750
vt 0.196002 0.571002
vt 0.113626 0.488626
vt 0.196002 0.406250
vt 0.428997 0.571002
vt 0.511374 0.488626
vt 0.593750 0.571002
vt 0.312500 0.571002
vt 0.312500 0.406250
vt 0.312500 0.803998
vt 0.196002 0.687500
vt 0.312500 0.687500
vt 0.428998 0.687500
vt 0.593750 0.803997
vt 0.428998 0.803997
vt 0.031250 0.803998
vt 0.196002 0.803998
vt 0.428997 0.406250
vt 0.196002 0.968750
vt 0.312500 0.968750
vt 0.428998 0.968750
vt 0.511374 0.886374
vt 0.113626 0.886374
vt 0.593750 0.687500
vt 0.031250 0.571002
vt 0.031250 0.687500
s 0
usemtl m_f3d1c585-bf58-650d-b8d1-e41e8835ba04
f 1/1/1 2/2/1 3/3/1
f 4/4/2 5/5/2 1/6/2
f 6/7/1 7/8/1 8/9/1
f 9/10/1 2/2/1 1/1/1
f 10/11/2 1/6/2 11/12/2
f 12/13/3 13/14/3 14/15/3
f 14/16/2 6/11/2 8/17/2
f 4/18/1 10/1/1 6/7/1
f 13/19/2 6/11/2 14/16/2
f 13/19/2 15/20/2 6/11/2
f 6/7/1 10/1/1 7/8/1
f 16/21/3 12/13/3 14/15/3
f 4/18/1 6/7/1 15/22/1
f 14/16/2 8/17/2 16/23/2
f 10/11/2 11/12/2 7/24/2
f 9/10/1 1/1/1 5/18/1
f 4/4/2 1/6/2 10/11/2
f 1/1/1 3/3/1 11/8/1
f 17/1/1 18/2/1 9/3/1
f 19/4/4 20/5/4 17/6/4
f 21/7/1 4/8/1 15/9/1
f 22/10/1 18/2/1 17/1/1
f 23/11/4 17/6/4 5/12/4
f 12/13/3 24/14/3 25/15/3
f 25/16/4 21/11/4 15/17/4
f 19/18/1 23/1/1 21/7/1
f 24/19/4 21/11/4 25/16/4
f 24/19/4 26/20/4 21/11/4
f 21/7/1 23/1/1 4/8/1
f 13/21/3 12/13/3 25/15/3
f 19/18/1 21/7/1 26/22/1
f 25/16/4 15/17/4 13/23/4
f 23/11/4 5/12/4 4/24/4
f 22/10/1 17/1/1 20/18/1
f 19/4/4 17/6/4 23/11/4
f 17/1/1 9/3/1 5/8/1
f 27/1/1 28/2/1 22/3/1
f 29/4/5 30/5/5 27/6/5
f 31/7/1 19/8/1 26/9/1
f 32/10/1 28/2/1 27/1/1
f 33/11/5 27/6/5 20/12/5
f 12/13/3 34/14/3 35/15/3
f 35/16/5 31/11/5 26/17/5
f 29/18/1 33/1/1 31/7/1
f 34/19/5 31/11/5 35/16/5
f 34/19/5 36/20/5 31/11/5
f 31/7/1 33/1/1 19/8/1
f 24/21/3 12/13/3 35/15/3
f 29/18/1 31/7/1 36/22/1
f 35/16/5 26/17/5 24/23/5
f 33/11/5 20/12/5 19/24/5
f 32/10/1 27/1/1 30/18/1
f 29/4/5 27/6/5 33/11/5
f 27/1/1 22/3/1 20/8/1
f 37/1/1 38/2/1 32/3/1
f 39/4/6 40/5/6 37/6/6
f 41/7/1 29/8/1 36/9/1
f 42/10/1 38/2/1 37/1/1
f 43/11/6 37/6/6 30/12/6
f 12/13/3 44/14/3 45/15/3
f 45/16/6 41/11/6 36/17/6
f 39/18/1 43/1/1 41/7/1
f 44/19/6 41/11/6 45/16/6
f 44/19/6 46/20/6 41/11/6
f 41/7/1 43/1/1 29/8/1
f 34/21/3 12/13/3 45/15/3
f 39/18/1 41/7/1 46/22/1
f 45/16/6 36/17/6 34/23/6
f 43/11/6 30/12/6 29/24/6
f 42/10/1 37/1/1 40/18/1
f 39/4/6 37/6/6 43/11/6
f 37/1/1 32/3/1 30/8/1
f 47/1/1 48/2/1 42/3/1
f 49/4/7 50/5/7 47/6/7
f 51/7/1 39/8/1 46/9/1
f 52/10/1 48/2/1 47/1/1
f 53/11/7 47/6/7 40/12/7
f 12/13/3 54/14/3 55/15/3
f 55/16/7 51/11/7 46/17/7
f 49/18/1 53/1/1 51/7/1
f 54/19/7 51/11/7 55/16/7
f 54/19/7 56/20/7 51/11/7
f 51/7/1 53/1/1 39/8/1
f 44/21/3 12/13/3 55/15/3
f 49/18/1 51/7/1 56/22/1
f 55/16/7 46/17/7 44/23/7
f 53/11/7 40/12/7 39/24/7
f 52/10/1 47/1/1 50/18/1
f 49/4/7 47/6/7 53/11/7
f 47/1/1 42/3/1 40/8/1
f 57/1/1 58/2/1 52/3/1
f 59/4/8 60/5/8 57/6/8
f 61/7/1 49/8/1 56/9/1
f 62/10/1 58/2/1 57/1/1
f 63/11/8 57/6/8 50/12/8
f 12/13/3 64/14/3 65/15/3
f 65/16/8 61/11/8 56/17/8
f 59/18/1 63/1/1 61/7/1
f 64/19/8 61/11/8 65/16/8
f 64/19/8 66/20/8 61/11/8
f 61/7/1 63/1/1 49/8/1
f 54/21/3 12/13/3 65/15/3
f 59/18/1 61/7/1 66/22/1
f 65/16/8 56/17/8 54/23/8
f 63/11/8 50/12/8 49/24/8
f 62/10/1 57/1/1 60/18/1
f 59/4/8 57/6/8 63/11/8
f 57/1/1 52/3/1 50/8/1
f 67/1/1 68/2/1 62/3/1
f 69/4/9 70/5/9 67/6/9
f 71/7/1 59/8/1 66/9/1
f 72/10/1 68/2/1 67/1/1
f 73/11/9 67/6/9 60/12/9
f 12/13/3 74/14/3 75/15/3
f 75/16/9 71/11/9 66/17/9
f 69/18/1 73/1/1 71/7/1
f 74/19/9 71/11/9 75/16/9
f 74/19/9 76/20/9 71/11/9
f 71/7/1 73/1/1 59/8/1
f 64/21/3 12/13/3 75/15/3
f 69/18/1 71/7/1 76/22/1
f 75/16/9 66/17/9 64/23/9
f 73/11/9 60/12/9 59/24/9
f 72/10/1 67/1/1 70/18/1
f 69/4/9 67/6/9 73/11/9
f 67/1/1 62/3/1 60/8/1
f 77/1/1 78/2/1 72/3/1
f 7/4/10 11/5/10 77/6/10
f 79/7/1 69/8/1 76/9/1
f 3/10/1 78/2/1 77/1/1
f 80/11/10 77/6/10 70/12/10
f 12/13/3 16/14/3 81/15/3
f 81/16/10 79/11/10 76/17/10
f 7/18/1 80/1/1 79/7/1
f 16/19/10 79/11/10 81/16/10
f 16/19/10 8/20/10 79/11/10
f 79/7/1 80/1/1 69/8/1
f 74/21/3 12/13/3 81/15/3
f 7/18/1 79/7/1 8/22/1
f 81/16/10 76/17/10 74/23/10
f 80/11/10 70/12/10 69/24/10
f 3/10/1 77/1/1 11/18/1
f 7/4/10 77/6/10 80/11/10
f 77/1/1 72/3/1 70/8/1
f 82/25/1 38/26/1 42/27/1
f 83/28/1 58/29/1 62/30/1
f 84/31/1 42/27/1 48/32/1
f 85/33/1 86/34/1 87/35/1
f 88/36/1 72/37/1 89/38/1
f 22/39/1 86/34/1 90/40/1
f 84/31/1 52/41/1 83/28/1
f 85/33/1 88/36/1 89/38/1
f 9/42/1 85/33/1 2/43/1
f 2/43/1 89/38/1 3/44/1
f 89/38/1 78/45/1 3/44/1
f 18/46/1 90/40/1 9/42/1
f 86/34/1 84/31/1 87/35/1
f 87/35/1 83/28/1 88/36/1
f 83/28/1 68/47/1 88/36/1
f 86/34/1 32/48/1 82/25/1
f 82/25/1 32/48/1 38/26/1
f 83/28/1 52/41/1 58/29/1
f 84/31/1 82/25/1 42/27/1
f 85/33/1 90/40/1 86/34/1
f 88/36/1 68/47/1 72/37/1
f 22/39/1 28/49/1 86/34/1
f 84/31/1 48/32/1 52/41/1
f 85/33/1 87/35/1 88/36/1
f 9/42/1 90/40/1 85/33/1
f 2/43/1 85/33/1 89/38/1
f 89/38/1 72/37/1 78/45/1
f 18/46/1 22/39/1 90/40/1
f 86/34/1 82/25/1 84/31/1
f 87/35/1 84/31/1 83/28/1
f 83/28/1 62/30/1 68/47/1
f 86/34/1 28/49/1 32/48/1
f 92/2/3 91/1/3 93/3/3
f 95/5/2 94/4/2 91/6/2
f 97/8/3 96/7/3 98/9/3
f 92/2/3 99/10/3 91/1/3
f 91/6/2 100/11/2 101/12/2
f 103/14/1 102/13/1 104/15/1
f 96/11/2 104/16/2 98/17/2
f 100/1/3 94/18/3 96/7/3
f 96/11/2 103/19/2 104/16/2
f 105/20/2 103/19/2 96/11/2
f 100/1/3 96/7/3 97/8/3
f 102/13/1 106/21/1 104/15/1
f 96/7/3 94/18/3 105/22/3
f 98/17/2 104/16/2 106/23/2
f 101/12/2 100/11/2 97/24/2
f 91/1/3 99/10/3 95/18/3
f 91/6/2 94/4/2 100/11/2
f 93/3/3 91/1/3 101/8/3
f 108/2/3 107/1/3 99/3/3
f 110/5/4 109/4/4 107/6/4
f 94/8/3 111/7/3 105/9/3
f 108/2/3 112/10/3 107/1/3
f 107/6/4 113/11/4 95/12/4
f 114/14/1 102/13/1 115/15/1
f 111/11/4 115/16/4 105/17/4
f 113/1/3 109/18/3 111/7/3
f 111/11/4 114/19/4 115/16/4
f 116/20/4 114/19/4 111/11/4
f 113/1/3 111/7/3 94/8/3
f 102/13/1 103/21/1 115/15/1
f 111/7/3 109/18/3 116/22/3
f 105/17/4 115/16/4 103/23/4
f 95/12/4 113/11/4 94/24/4
f 107/1/3 112/10/3 110/18/3
f 107/6/4 109/4/4 113/11/4
f 99/3/3 107/1/3 95/8/3
f 118/2/3 117/1/3 112/3/3
f 120/5/5 119/4/5 117/6/5
f 109/8/3 121/7/3 116/9/3
f 118/2/3 122/10/3 117/1/3
f 117/6/5 123/11/5 110/12/5
f 124/14/1 102/13/1 125/15/1
f 121/11/5 125/16/5 116/17/5
f 123/1/3 119/18/3 121/7/3
f 121/11/5 124/19/5 125/16/5
f 126/20/5 124/19/5 121/11/5
f 123/1/3 121/7/3 109/8/3
f 102/13/1 114/21/1 125/15/1
f 121/7/3 119/18/3 126/22/3
f 116/17/5 125/16/5 114/23/5
f 110/12/5 123/11/5 109/24/5
f 117/1/3 122/10/3 120/18/3
f 117/6/5 119/4/5 123/11/5
f 112/3/3 117/1/3 110/8/3
f 128/2/3 127/1/3 122/3/3
f 130/5/6 129/4/6 127/6/6
f 119/8/3 131/7/3 126/9/3
f 128/2/3 132/10/3 127/1/3
f 127/6/6 133/11/6 120/12/6
f 134/14/1 102/13/1 135/15/1
f 131/11/6 135/16/6 126/17/6
f 133/1/3 129/18/3 131/7/3
f 131/11/6 134/19/6 135/16/6
f 136/20/6 134/19/6 131/11/6
f 133/1/3 131/7/3 119/8/3
f 102/13/1 124/21/1 135/15/1
f 131/7/3 129/18/3 136/22/3
f 126/17/6 135/16/6 124/23/6
f 120/12/6 133/11/6 119/24/6
f 127/1/3 132/10/3 130/18/3
f 127/6/6 129/4/6 133/11/6
f 122/3/3 127/1/3 120/8/3
f 138/2/3 137/1/3 132/3/3
f 140/5/7 139/4/7 137/6/7
f 129/8/3 141/7/3 136/9/3
f 138/2/3 142/10/3 137/1/3
f 137/6/7 143/11/7 130/12/7
f 144/14/1 102/13/1 145/15/1
f 141/11/7 145/16/7 136/17/7
f 143/1/3 139/18/3 141/7/3
f 141/11/7 144/19/7 145/16/7
f 146/20/7 144/19/7 141/11/7
f 143/1/3 141/7/3 129/8/3
f 102/13/1 134/21/1 145/15/1
f 141/7/3 139/18/3 146/22/3
f 136/17/7 145/16/7 134/23/7
f 130/12/7 143/11/7 129/24/7
f 137/1/3 142/10/3 140/18/3
f 137/6/7 139/4/7 143/11/7
f 132/3/3 137/1/3 130/8/3
f 148/2/3 147/1/3 142/3/3
f 150/5/8 149/4/8 147/6/8
f 139/8/3 151/7/3 146/9/3
f 148/2/3 152/10/3 147/1/3
f 147/6/8 153/11/8 140/12/8
f 154/14/1 102/13/1 155/15/1
f 151/11/8 155/16/8 146/17/8
f 153/1/3 149/18/3 151/7/3
f 151/11/8 154/19/8 155/16/8
f 156/20/8 154/19/8 151/11/8
f 153/1/3 151/7/3 139/8/3
f 102/13/1 144/21/1 155/15/1
f 151/7/3 149/18/3 156/22/3
f 146/17/8 155/16/8 144/23/8
f 140/12/8 153/11/8 139/24/8
f 147/1/3 152/10/3 150/18/3
f 147/6/8 149/4/8 153/11/8
f 142/3/3 147/1/3 140/8/3
f 158/2/3 157/1/3 152/3/3
f 160/5/9 159/4/9 157/6/9
f 149/8/3 161/7/3 156/9/3
f 158/2/3 162/10/3 157/1/3
f 157/6/9 163/11/9 150/12/9
f 164/14/1 102/13/1 165/15/1
f 161/11/9 165/16/9 156/17/9
f 163/1/3 159/18/3 161/7/3
f 161/11/9 164/19/9 165/16/9
f 166/20/9 164/19/9 161/11/9
f 163/1/3 161/7/3 149/8/3
f 102/13/1 154/21/1 165/15/1
f 161/7/3 159/18/3 166/22/3
f 156/17/9 165/16/9 154/23/9
f 150/12/9 163/11/9 149/24/9
f 157/1/3 162/10/3 160/18/3
f 157/6/9 159/4/9 163/11/9
f 152/3/3 157/1/3 150/8/3
f 168/2/3 167/1/3 162/3/3
f 101/5/10 97/4/10 167/6/10
f 159/8/3 169/7/3 166/9/3
f 168/2/3 93/10/3 167/1/3
f 167/6/10 170/11/10 160/12/10
f 106/14/1 102/13/1 171/15/1
f 169/11/10 171/16/10 166/17/10
f 170/1/3 97/18/3 169/7/3
f 169/11/10 106/19/10 171/16/10
f 98/20/10 106/19/10 169/11/10
f 170/1/3 169/7/3 159/8/3
f 102/13/1 164/21/1 171/15/1
f 169/7/3 97/18/3 98/22/3
f 166/17/10 171/16/10 164/23/10
f 160/12/10 170/11/10 159/24/10
f 167/1/3 93/10/3 101/18/3
f 167/6/10 97/4/10 170/11/10
f 162/3/3 167/1/3 160/8/3
f 128/26/3 172/25/3 132/27/3
f 148/29/3 173/28/3 152/30/3
f 132/27/3 174/31/3 138/32/3
f 176/34/3 175/33/3 177/35/3
f 162/37/3 178/36/3 179/38/3
f 176/34/3 112/39/3 180/40/3
f 142/41/3 174/31/3 173/28/3
f 178/36/3 175/33/3 179/38/3
f 175/33/3 99/42/3 92/43/3
f 179/38/3 92/43/3 93/44/3
f 168/45/3 179/38/3 93/44/3
f 180/40/3 108/46/3 99/42/3
f 174/31/3 176/34/3 177/35/3
f 173/28/3 177/35/3 178/36/3
f 158/47/3 173/28/3 178/36/3
f 122/48/3 176/34/3 172/25/3
f 122/48/3 172/25/3 128/26/3
f 142/41/3 173/28/3 148/29/3
f 172/25/3 174/31/3 132/27/3
f 180/40/3 175/33/3 176/34/3
f 158/47/3 178/36/3 162/37/3
f 118/49/3 112/39/3 176/34/3
f 138/32/3 174/31/3 142/41/3
f 177/35/3 175/33/3 178/36/3
f 180/40/3 99/42/3 175/33/3
f 175/33/3 92/43/3 179/38/3
f 162/37/3 179/38/3 168/45/3
f 112/39/3 108/46/3 180/40/3
f 172/25/3 176/34/3 174/31/3
f 174/31/3 177/35/3 173/28/3
f 152/30/3 173/28/3 158/47/3
f 118/49/3 176/34/3 122/48/3
