# Made in Blockbench 4.8.0
mtllib track.mtl

o base2
v 0.934323 -0.178653 0.125
v -0.0007119417725147681 -0.190625 0.125
v -0.0022359999999999047 0.065615 0.125
v 0.9327982601722342 0.077587 0.125
v -0.0007119417725147681 -0.190625 0.375
v 0.934323 -0.178653 0.375
v 0.9327982601722342 0.077587 0.375
v -0.0022359999999999047 0.065615 0.375
v 0.000711941772514868 -0.190625 0.125
v -0.9343229999999999 -0.178653 0.125
v -0.9327989417725148 0.077587 0.125
v 0.0022360000000000158 0.065615 0.125
v -0.9343229999999999 -0.178653 0.375
v 0.000711941772514868 -0.190625 0.375
v 0.0022360000000000158 0.065615 0.375
v -0.9327989417725148 0.077587 0.375
vt 0.43749999999999994 0.75
vt 0 0.75
vt 0 0.875
vt 0.43749999999999994 0.875
vt 0 0.75
vt 0.43749999999999994 0.75
vt 0.43749999999999994 0.875
vt 0 0.875
vt 0 0.625
vt 0.43749999999999994 0.625
vt 0.43749999999999994 0.75
vt 0 0.75
vt 0 0.75
vt 0.43749999999999994 0.75
vt 0.43749999999999994 0.875
vt 0 0.875
vt 0.43749999999999994 0.75
vt 0 0.75
vt 0 0.875
vt 0.43749999999999994 0.875
vt 0.43749999999999994 0.75
vt 0 0.75
vt 0 0.625
vt 0.43749999999999994 0.625
vn 0 0 -1
vn 0 0 1
vn 0.012802750204571712 -0.9999180414349966 0
vn 0 0 -1
vn 0 0 1
vn -0.012802750204571712 -0.9999180414349966 0
usemtl m_0
f 1/1/1 2/2/1 3/3/1 4/4/1
f 5/5/2 6/6/2 7/7/2 8/8/2
f 2/9/3 1/10/3 6/11/3 5/12/3
f 9/13/4 10/14/4 11/15/4 12/16/4
f 13/17/5 14/18/5 15/19/5 16/20/5
f 10/21/6 9/22/6 14/23/6 13/24/6
o mip1
v -0.934323 -0.178653 -0.109375
v -0.934323 -0.178653 0.609375
v -0.9320869999999999 0.077587 0.609375
v -0.9320869999999999 0.077587 -0.109375
v 0.0022360000000000158 0.065615 0.609375
v 0.0022360000000000158 0.065615 -0.109375
v 0.934323 -0.178653 0.609375
v 0.934323 -0.178653 -0.109375
v 0.932086 0.077587 -0.109375
v 0.932086 0.077587 0.609375
v -0.0022360000000000158 0.065615 0.609375
v -0.0022360000000000158 0.065615 -0.109375
vt 0.8125 0.421875
vt 0.8125 0.765625
vt 0.6875 0.765625
vt 0.6875 0.421875
vt 0.43749999999999994 0.765625
vt 0 0.765625
vt 0 0.421875
vt 0.43749999999999994 0.421875
vt 0.8125 0.421875
vt 0.8125 0.765625
vt 0.6875 0.765625
vt 0.6875 0.421875
vt 0 0.421875
vt 0.43749999999999994 0.421875
vt 0.43749999999999994 0.765625
vt 0 0.765625
vn -0.9999619289416722 0.00872586197749651 0
vn 0.012812504130091296 0.9999179165001079 0
vn 0.9999618948831793 0.008729764122907104 0
vn -0.012812517840996981 0.9999179163244223 0
usemtl m_1
f 17/25/7 18/26/7 19/27/7 20/28/7
f 19/29/8 21/30/8 22/31/8 20/32/8
f 23/33/9 24/34/9 25/35/9 26/36/9
f 27/37/10 26/38/10 25/39/10 28/40/10