# Made in Blockbench 4.6.1
mtllib bogey.mtl

o cylinde1r
v -0.9375 0 0
v -0.9375 0.125 0
v -0.7821699141100893 0 0.375
v -0.7821699141100893 0.125 0.375
v -0.5625 0 0.15533008588991068
v -0.5625 0.125 0.15533008588991068
v -0.5625 0 -0.15533008588991065
v -0.5625 0.125 -0.15533008588991065
v -0.7821699141100893 0 -0.375
v -0.7821699141100893 0.125 -0.375
v -1.0928300858899105 0 -0.37500000000000006
v -1.0928300858899105 0.125 -0.37500000000000006
v -1.3125 0 -0.1553300858899109
v -1.3125 0.125 -0.1553300858899109
v -1.3125 0 0.15533008588991074
v -1.3125 0.125 0.15533008588991074
v -1.092830085889911 0 0.37499999999999994
v -1.092830085889911 0.125 0.37499999999999994
vt 0.02734375 0.43738515624999985
vt 0.06629140625000002 0.4375
vt 0.046875 0.484375
vt 0.7734375 0.953125
vt 0.8125 0.953125
vt 0.8125 0.96875
vt 0.7734375 0.96875
vt 0.027228906250000018 0.4375
vt 0.06640625 0.43761484375000004
vt 0.046875 0.484375
vt 0.027458593750000038 0.4375
vt 0.06629140625000002 0.4375
vt 0.046875 0.484375
vt 0.7734375 0.953125
vt 0.8125 0.953125
vt 0.8125 0.96875
vt 0.7734375 0.96875
vt 0.027458593750000038 0.4375
vt 0.06629140624999996 0.4375
vt 0.046875 0.484375
vt 0.027228906250000018 0.4375
vt 0.06640625 0.43761484375000004
vt 0.046875 0.484375
vt 0.7734375 0.953125
vt 0.8125 0.953125
vt 0.8125 0.96875
vt 0.7734375 0.96875
vt 0.02734375 0.43738515624999996
vt 0.06629140625000002 0.4375
vt 0.046875 0.484375
vt 0.027458593750000038 0.4375
vt 0.06629140625000002 0.4375
vt 0.046875 0.484375
vt 0.7734375 0.953125
vt 0.8125 0.953125
vt 0.8125 0.96875
vt 0.7734375 0.96875
vt 0.027458593749999982 0.4375
vt 0.06629140624999996 0.4375
vt 0.046875 0.484375
vt 0.02734375 0.43761484375000026
vt 0.06652109375000004 0.4375
vt 0.046875 0.484375
vt 0.7734375 0.953125
vt 0.8125 0.953125
vt 0.8125 0.96875
vt 0.7734375 0.96875
vt 0.06652109375000001 0.4375
vt 0.02734375 0.43738515624999996
vt 0.046875 0.484375
vt 0.027343749999999997 0.4375
vt 0.06629140624999996 0.4375
vt 0.046875 0.484375
vt 0.7734375 0.953125
vt 0.8125 0.953125
vt 0.8125 0.96875
vt 0.7734375 0.96875
vt 0.02734375 0.4375
vt 0.06629140624999996 0.4375
vt 0.046875 0.484375
vt 0.027458593750000038 0.4375
vt 0.06640625 0.4381664062499999
vt 0.046875 0.484375
vt 0.7734375 0.953125
vt 0.8125 0.953125
vt 0.8125 0.96875
vt 0.7734375 0.96875
vt 0.02734375 0.43761484375000004
vt 0.06652109375000001 0.4375
vt 0.046875 0.484375
vt 0.027228906250000018 0.4375
vt 0.06652109375000004 0.4375
vt 0.046875 0.484375
vt 0.7734375 0.953125
vt 0.8125 0.953125
vt 0.8125 0.96875
vt 0.7734375 0.96875
vt 0.02745859375000001 0.4375
vt 0.06629140625000002 0.4375
vt 0.046875 0.484375
vn 0 -1 0
vn 0.7071067811865476 0 0.7071067811865475
vn 0 1 0
vn 0 -1 0
vn 1 0 0
vn 0 1 0
vn 0 -1 0
vn 0.7071067811865477 0 -0.7071067811865475
vn 0 1 0
vn 0 -1 0
vn 1.7868769888726216e-16 0 -1
vn 0 1 0
vn 0 -1 0
vn -0.7071067811865469 0 -0.7071067811865481
vn 0 1 0
vn 0 -1 0
vn -1 0 0
vn 0 1 0
vn 0 -1 0
vn -0.7071067811865478 0 0.7071067811865474
vn 0 1 0
vn 0 -1 0
vn -1.7868769888726192e-16 0 1
vn 0 1 0
usemtl m_0
f 5/1/1 3/2/1 1/3/1
f 3/4/2 5/5/2 6/6/2 4/7/2
f 4/8/3 6/9/3 2/10/3
f 7/11/4 5/12/4 1/13/4
f 5/14/5 7/15/5 8/16/5 6/17/5
f 6/18/6 8/19/6 2/20/6
f 9/21/7 7/22/7 1/23/7
f 7/24/8 9/25/8 10/26/8 8/27/8
f 8/28/9 10/29/9 2/30/9
f 11/31/10 9/32/10 1/33/10
f 9/34/11 11/35/11 12/36/11 10/37/11
f 10/38/12 12/39/12 2/40/12
f 13/41/13 11/42/13 1/43/13
f 11/44/14 13/45/14 14/46/14 12/47/14
f 12/48/15 14/49/15 2/50/15
f 15/51/16 13/52/16 1/53/16
f 13/54/17 15/55/17 16/56/17 14/57/17
f 14/58/18 16/59/18 2/60/18
f 17/61/19 15/62/19 1/63/19
f 15/64/20 17/65/20 18/66/20 16/67/20
f 16/68/21 18/69/21 2/70/21
f 3/71/22 17/72/22 1/73/22
f 17/74/23 3/75/23 4/76/23 18/77/23
f 18/78/24 4/79/24 2/80/24
o cub1e
v -0.8125 0.75 0.125
v -0.8125 0.75 -0.125
v -0.8125 0.6875 0.125
v -0.8125 0.6875 -0.125
v -1.0625 0.75 0.125
v -1.0625 0.75 -0.125
v -1.0625 0.6875 0.125
v -1.0625 0.6875 -0.125
vt 0.4375 1
vt 0.40625 1
vt 0.40625 0.9921875
vt 0.4375 0.9921875
vt 0.4375 0.9921875
vt 0.4375 1
vt 0.40625 1
vt 0.40625 0.9921875
vt 0.40625 0.9609375
vt 0.4375 0.9609375
vt 0.4375 0.9921875
vt 0.40625 0.9921875
vt 0.4375 0.9609375
vt 0.4375 0.9921875
vt 0.40625 0.9921875
vt 0.40625 0.9609375
vt 0.4375 0.9921875
vt 0.4375 1
vt 0.40625 1
vt 0.40625 0.9921875
vt 0.4375 1
vt 0.40625 1
vt 0.40625 0.9921875
vt 0.4375 0.9921875
vn 1 0 0
vn -1 0 0
vn 0 1 0
vn 0 -1 0
vn 0 0 1
vn 0 0 -1
usemtl m_0
f 20/81/25 19/82/25 21/83/25 22/84/25
f 25/85/26 23/86/26 24/87/26 26/88/26
f 23/89/27 19/90/27 20/91/27 24/92/27
f 22/93/28 21/94/28 25/95/28 26/96/28
f 21/97/29 19/98/29 23/99/29 25/100/29
f 24/101/30 20/102/30 22/103/30 26/104/30
o cylinde2r
v -0.9375 0.625 -9.251858538542972e-18
v -0.9375 0.6875 -9.251858538542972e-18
v -0.8339466094067262 0.625 0.24999999999999997
v -0.8339466094067262 0.6875 0.24999999999999997
v -0.6875 0.625 0.10355339059327377
v -0.6875 0.6875 0.10355339059327377
v -0.6875 0.625 -0.10355339059327377
v -0.6875 0.6875 -0.10355339059327377
v -0.8339466094067262 0.625 -0.25
v -0.8339466094067262 0.6875 -0.25
v -1.0410533905932737 0.625 -0.25
v -1.0410533905932737 0.6875 -0.25
v -1.1875 0.625 -0.10355339059327394
v -1.1875 0.6875 -0.10355339059327394
v -1.1875 0.625 0.10355339059327381
v -1.1875 0.6875 0.10355339059327381
v -1.041053390593274 0.625 0.24999999999999997
v -1.041053390593274 0.6875 0.24999999999999997
vt 0.6203125000000003 0.8988820312500001
vt 0.6449757812500001 0.8992187500000001
vt 0.6328125 0.9296875
vt 0.578125 0.90625
vt 0.6015625 0.90625
vt 0.6015625 0.9140625
vt 0.578125 0.9140625
vt 0.6199757812500001 0.8984375
vt 0.6453125 0.89877421875
vt 0.6328125 0.9296875
vt 0.6203125000000003 0.89877421875
vt 0.6453125000000001 0.8988820312500001
vt 0.6328125 0.9296875
vt 0.578125 0.90625
vt 0.6015625 0.90625
vt 0.6015625 0.9140625
vt 0.578125 0.9140625
vt 0.6203125000000004 0.89877421875
vt 0.6453125000000001 0.8988820312500001
vt 0.6328125 0.9296875
vt 0.61997578125 0.8984375
vt 0.6453125 0.89877421875
vt 0.6328125 0.9296875
vt 0.578125 0.90625
vt 0.6015625 0.90625
vt 0.6015625 0.9140625
vt 0.578125 0.9140625
vt 0.6203125000000003 0.8988820312500001
vt 0.6449757812500001 0.89921875
vt 0.6328125 0.9296875
vt 0.6198679687499999 0.8984375
vt 0.6457570312500001 0.8984375
vt 0.6328125 0.9296875
vt 0.578125 0.90625
vt 0.6015625 0.90625
vt 0.6015625 0.9140625
vt 0.578125 0.9140625
vt 0.6199757812500001 0.8984375
vt 0.6456492187499999 0.8984375
vt 0.6328125 0.9296875
vt 0.6203124999999996 0.89877421875
vt 0.6456492187499998 0.8984375
vt 0.6328125 0.9296875
vt 0.578125 0.90625
vt 0.6015625 0.90625
vt 0.6015625 0.9140625
vt 0.578125 0.9140625
vt 0.6198679687499999 0.8984375
vt 0.6453125 0.89888203125
vt 0.6328125 0.9296875
vt 0.6203125 0.8988820312500001
vt 0.6453125 0.89877421875
vt 0.6328125 0.9296875
vt 0.578125 0.90625
vt 0.6015625 0.90625
vt 0.6015625 0.9140625
vt 0.578125 0.9140625
vt 0.6203125000000003 0.89888203125
vt 0.6453125 0.89877421875
vt 0.6328125 0.9296875
vt 0.6198679687499999 0.8984375
vt 0.6453125 0.8988820312500001
vt 0.6328125 0.9296875
vt 0.578125 0.90625
vt 0.6015625 0.90625
vt 0.6015625 0.9140625
vt 0.578125 0.9140625
vt 0.6203125 0.89877421875
vt 0.6456492187499999 0.8984375
vt 0.6328125 0.9296875
vt 0.6199757812500004 0.8984375
vt 0.6456492187499999 0.8984375
vt 0.6328125 0.9296875
vt 0.578125 0.90625
vt 0.6015625 0.90625
vt 0.6015625 0.9140625
vt 0.578125 0.9140625
vt 0.6198679687499999 0.8984375
vt 0.6457570312500001 0.8984375
vt 0.6328125 0.9296875
vn 0 -1 0
vn 0.7071067811865477 0 0.7071067811865475
vn 0 1 0
vn 0 -1 0
vn 1 0 0
vn 0 1 0
vn 0 -1 0
vn 0.7071067811865477 0 -0.7071067811865475
vn 0 1 0
vn 0 -1 0
vn 0 0 -1
vn 0 1 0
vn 0 -1 0
vn -0.707106781186547 0 -0.7071067811865481
vn 0 1 0
vn 0 -1 0
vn -1 0 0
vn 0 1 0
vn 0 -1 0
vn -0.7071067811865478 0 0.7071067811865474
vn 0 1 0
vn 0 -1 0
vn 0 0 1
vn 0 1 0
usemtl m_0
f 31/105/31 29/106/31 27/107/31
f 29/108/32 31/109/32 32/110/32 30/111/32
f 30/112/33 32/113/33 28/114/33
f 33/115/34 31/116/34 27/117/34
f 31/118/35 33/119/35 34/120/35 32/121/35
f 32/122/36 34/123/36 28/124/36
f 35/125/37 33/126/37 27/127/37
f 33/128/38 35/129/38 36/130/38 34/131/38
f 34/132/39 36/133/39 28/134/39
f 37/135/40 35/136/40 27/137/40
f 35/138/41 37/139/41 38/140/41 36/141/41
f 36/142/42 38/143/42 28/144/42
f 39/145/43 37/146/43 27/147/43
f 37/148/44 39/149/44 40/150/44 38/151/44
f 38/152/45 40/153/45 28/154/45
f 41/155/46 39/156/46 27/157/46
f 39/158/47 41/159/47 42/160/47 40/161/47
f 40/162/48 42/163/48 28/164/48
f 43/165/49 41/166/49 27/167/49
f 41/168/50 43/169/50 44/170/50 42/171/50
f 42/172/51 44/173/51 28/174/51
f 29/175/52 43/176/52 27/177/52
f 43/178/53 29/179/53 30/180/53 44/181/53
f 44/182/54 30/183/54 28/184/54
o cylinde3r
v -0.9375 0.5 0
v -0.9375 0.625 0
v -0.7821699141100893 0.5 0.375
v -0.7821699141100893 0.625 0.375
v -0.5625 0.5 0.15533008588991068
v -0.5625 0.625 0.15533008588991068
v -0.5625 0.5 -0.15533008588991065
v -0.5625 0.625 -0.15533008588991065
v -0.7821699141100893 0.5 -0.375
v -0.7821699141100893 0.625 -0.375
v -1.0928300858899105 0.5 -0.37500000000000006
v -1.0928300858899105 0.625 -0.37500000000000006
v -1.3125 0.5 -0.1553300858899109
v -1.3125 0.625 -0.1553300858899109
v -1.3125 0.5 0.15533008588991074
v -1.3125 0.625 0.15533008588991074
v -1.092830085889911 0.5 0.37499999999999994
v -1.092830085889911 0.625 0.37499999999999994
vt 0.02734375 0.43738515624999985
vt 0.06629140625000002 0.4375
vt 0.046875 0.484375
vt 0.7734375 0.953125
vt 0.8125 0.953125
vt 0.8125 0.96875
vt 0.7734375 0.96875
vt 0.027228906250000018 0.4375
vt 0.06640625 0.43761484375000004
vt 0.046875 0.484375
vt 0.027458593750000038 0.4375
vt 0.06629140625000002 0.4375
vt 0.046875 0.484375
vt 0.7734375 0.953125
vt 0.8125 0.953125
vt 0.8125 0.96875
vt 0.7734375 0.96875
vt 0.027458593750000038 0.4375
vt 0.06629140624999996 0.4375
vt 0.046875 0.484375
vt 0.027228906250000018 0.4375
vt 0.06640625 0.43761484375000004
vt 0.046875 0.484375
vt 0.7734375 0.953125
vt 0.8125 0.953125
vt 0.8125 0.96875
vt 0.7734375 0.96875
vt 0.02734375 0.43738515624999996
vt 0.06629140625000002 0.4375
vt 0.046875 0.484375
vt 0.027458593750000038 0.4375
vt 0.06629140625000002 0.4375
vt 0.046875 0.484375
vt 0.7734375 0.953125
vt 0.8125 0.953125
vt 0.8125 0.96875
vt 0.7734375 0.96875
vt 0.027458593749999982 0.4375
vt 0.06629140624999996 0.4375
vt 0.046875 0.484375
vt 0.02734375 0.43761484375000026
vt 0.06652109375000004 0.4375
vt 0.046875 0.484375
vt 0.7734375 0.953125
vt 0.8125 0.953125
vt 0.8125 0.96875
vt 0.7734375 0.96875
vt 0.06652109375000001 0.4375
vt 0.02734375 0.43738515624999996
vt 0.046875 0.484375
vt 0.027343749999999997 0.4375
vt 0.06629140624999996 0.4375
vt 0.046875 0.484375
vt 0.7734375 0.953125
vt 0.8125 0.953125
vt 0.8125 0.96875
vt 0.7734375 0.96875
vt 0.02734375 0.4375
vt 0.06629140624999996 0.4375
vt 0.046875 0.484375
vt 0.027458593750000038 0.4375
vt 0.06640625 0.4381664062499999
vt 0.046875 0.484375
vt 0.7734375 0.953125
vt 0.8125 0.953125
vt 0.8125 0.96875
vt 0.7734375 0.96875
vt 0.02734375 0.43761484375000004
vt 0.06652109375000001 0.4375
vt 0.046875 0.484375
vt 0.027228906250000018 0.4375
vt 0.06652109375000004 0.4375
vt 0.046875 0.484375
vt 0.7734375 0.953125
vt 0.8125 0.953125
vt 0.8125 0.96875
vt 0.7734375 0.96875
vt 0.02745859375000001 0.4375
vt 0.06629140625000002 0.4375
vt 0.046875 0.484375
vn 0 -1 0
vn 0.7071067811865476 0 0.7071067811865475
vn 0 1 0
vn 0 -1 0
vn 1 0 0
vn 0 1 0
vn 0 -1 0
vn 0.7071067811865477 0 -0.7071067811865475
vn 0 1 0
vn 0 -1 0
vn 1.7868769888726216e-16 0 -1
vn 0 1 0
vn 0 -1 0
vn -0.7071067811865469 0 -0.7071067811865481
vn 0 1 0
vn 0 -1 0
vn -1 0 0
vn 0 1 0
vn 0 -1 0
vn -0.7071067811865478 0 0.7071067811865474
vn 0 1 0
vn 0 -1 0
vn -1.7868769888726192e-16 0 1
vn 0 1 0
usemtl m_0
f 49/185/55 47/186/55 45/187/55
f 47/188/56 49/189/56 50/190/56 48/191/56
f 48/192/57 50/193/57 46/194/57
f 51/195/58 49/196/58 45/197/58
f 49/198/59 51/199/59 52/200/59 50/201/59
f 50/202/60 52/203/60 46/204/60
f 53/205/61 51/206/61 45/207/61
f 51/208/62 53/209/62 54/210/62 52/211/62
f 52/212/63 54/213/63 46/214/63
f 55/215/64 53/216/64 45/217/64
f 53/218/65 55/219/65 56/220/65 54/221/65
f 54/222/66 56/223/66 46/224/66
f 57/225/67 55/226/67 45/227/67
f 55/228/68 57/229/68 58/230/68 56/231/68
f 56/232/69 58/233/69 46/234/69
f 59/235/70 57/236/70 45/237/70
f 57/238/71 59/239/71 60/240/71 58/241/71
f 58/242/72 60/243/72 46/244/72
f 61/245/73 59/246/73 45/247/73
f 59/248/74 61/249/74 62/250/74 60/251/74
f 60/252/75 62/253/75 46/254/75
f 47/255/76 61/256/76 45/257/76
f 61/258/77 47/259/77 48/260/77 62/261/77
f 62/262/78 48/263/78 46/264/78
o cylinde4r
v -0.9375 -0.0625 -9.251858538542972e-18
v -0.9375 0 -9.251858538542972e-18
v -0.8339466094067262 -0.0625 0.24999999999999997
v -0.8339466094067262 0 0.24999999999999997
v -0.6875 -0.0625 0.10355339059327377
v -0.6875 0 0.10355339059327377
v -0.6875 -0.0625 -0.10355339059327377
v -0.6875 0 -0.10355339059327377
v -0.8339466094067262 -0.0625 -0.25
v -0.8339466094067262 0 -0.25
v -1.0410533905932737 -0.0625 -0.25
v -1.0410533905932737 0 -0.25
v -1.1875 -0.0625 -0.10355339059327394
v -1.1875 0 -0.10355339059327394
v -1.1875 -0.0625 0.10355339059327381
v -1.1875 0 0.10355339059327381
v -1.041053390593274 -0.0625 0.24999999999999997
v -1.041053390593274 0 0.24999999999999997
vt 0.6203125000000003 0.8988820312500001
vt 0.6449757812500001 0.8992187500000001
vt 0.6328125 0.9296875
vt 0.578125 0.90625
vt 0.6015625 0.90625
vt 0.6015625 0.9140625
vt 0.578125 0.9140625
vt 0.6199757812500001 0.8984375
vt 0.6453125 0.89877421875
vt 0.6328125 0.9296875
vt 0.6203125000000003 0.89877421875
vt 0.6453125000000001 0.8988820312500001
vt 0.6328125 0.9296875
vt 0.578125 0.90625
vt 0.6015625 0.90625
vt 0.6015625 0.9140625
vt 0.578125 0.9140625
vt 0.6203125000000004 0.89877421875
vt 0.6453125000000001 0.8988820312500001
vt 0.6328125 0.9296875
vt 0.61997578125 0.8984375
vt 0.6453125 0.89877421875
vt 0.6328125 0.9296875
vt 0.578125 0.90625
vt 0.6015625 0.90625
vt 0.6015625 0.9140625
vt 0.578125 0.9140625
vt 0.6203125000000003 0.8988820312500001
vt 0.6449757812500001 0.89921875
vt 0.6328125 0.9296875
vt 0.6198679687499999 0.8984375
vt 0.6457570312500001 0.8984375
vt 0.6328125 0.9296875
vt 0.578125 0.90625
vt 0.6015625 0.90625
vt 0.6015625 0.9140625
vt 0.578125 0.9140625
vt 0.6199757812500001 0.8984375
vt 0.6456492187499999 0.8984375
vt 0.6328125 0.9296875
vt 0.6203124999999996 0.89877421875
vt 0.6456492187499998 0.8984375
vt 0.6328125 0.9296875
vt 0.578125 0.90625
vt 0.6015625 0.90625
vt 0.6015625 0.9140625
vt 0.578125 0.9140625
vt 0.6198679687499999 0.8984375
vt 0.6453125 0.89888203125
vt 0.6328125 0.9296875
vt 0.6203125 0.8988820312500001
vt 0.6453125 0.89877421875
vt 0.6328125 0.9296875
vt 0.578125 0.90625
vt 0.6015625 0.90625
vt 0.6015625 0.9140625
vt 0.578125 0.9140625
vt 0.6203125000000003 0.89888203125
vt 0.6453125 0.89877421875
vt 0.6328125 0.9296875
vt 0.6198679687499999 0.8984375
vt 0.6453125 0.8988820312500001
vt 0.6328125 0.9296875
vt 0.578125 0.90625
vt 0.6015625 0.90625
vt 0.6015625 0.9140625
vt 0.578125 0.9140625
vt 0.6203125 0.89877421875
vt 0.6456492187499999 0.8984375
vt 0.6328125 0.9296875
vt 0.6199757812500004 0.8984375
vt 0.6456492187499999 0.8984375
vt 0.6328125 0.9296875
vt 0.578125 0.90625
vt 0.6015625 0.90625
vt 0.6015625 0.9140625
vt 0.578125 0.9140625
vt 0.6198679687499999 0.8984375
vt 0.6457570312500001 0.8984375
vt 0.6328125 0.9296875
vn 0 -1 0
vn 0.7071067811865477 0 0.7071067811865475
vn 0 1 0
vn 0 -1 0
vn 1 0 0
vn 0 1 0
vn 0 -1 0
vn 0.7071067811865477 0 -0.7071067811865475
vn 0 1 0
vn 0 -1 0
vn 0 0 -1
vn 0 1 0
vn 0 -1 0
vn -0.707106781186547 0 -0.7071067811865481
vn 0 1 0
vn 0 -1 0
vn -1 0 0
vn 0 1 0
vn 0 -1 0
vn -0.7071067811865478 0 0.7071067811865474
vn 0 1 0
vn 0 -1 0
vn 0 0 1
vn 0 1 0
usemtl m_0
f 67/265/79 65/266/79 63/267/79
f 65/268/80 67/269/80 68/270/80 66/271/80
f 66/272/81 68/273/81 64/274/81
f 69/275/82 67/276/82 63/277/82
f 67/278/83 69/279/83 70/280/83 68/281/83
f 68/282/84 70/283/84 64/284/84
f 71/285/85 69/286/85 63/287/85
f 69/288/86 71/289/86 72/290/86 70/291/86
f 70/292/87 72/293/87 64/294/87
f 73/295/88 71/296/88 63/297/88
f 71/298/89 73/299/89 74/300/89 72/301/89
f 72/302/90 74/303/90 64/304/90
f 75/305/91 73/306/91 63/307/91
f 73/308/92 75/309/92 76/310/92 74/311/92
f 74/312/93 76/313/93 64/314/93
f 77/315/94 75/316/94 63/317/94
f 75/318/95 77/319/95 78/320/95 76/321/95
f 76/322/96 78/323/96 64/324/96
f 79/325/97 77/326/97 63/327/97
f 77/328/98 79/329/98 80/330/98 78/331/98
f 78/332/99 80/333/99 64/334/99
f 65/335/100 79/336/100 63/337/100
f 79/338/101 65/339/101 66/340/101 80/341/101
f 80/342/102 66/343/102 64/344/102
o cub2e
v -0.8125 -0.0625 0.125
v -0.8125 -0.0625 -0.125
v -0.8125 -0.125 0.125
v -0.8125 -0.125 -0.125
v -1.0625 -0.0625 0.125
v -1.0625 -0.0625 -0.125
v -1.0625 -0.125 0.125
v -1.0625 -0.125 -0.125
vt 0.4375 1
vt 0.40625 1
vt 0.40625 0.9921875
vt 0.4375 0.9921875
vt 0.4375 0.9921875
vt 0.4375 1
vt 0.40625 1
vt 0.40625 0.9921875
vt 0.40625 0.9609375
vt 0.4375 0.9609375
vt 0.4375 0.9921875
vt 0.40625 0.9921875
vt 0.4375 0.9609375
vt 0.4375 0.9921875
vt 0.40625 0.9921875
vt 0.40625 0.9609375
vt 0.4375 0.9921875
vt 0.4375 1
vt 0.40625 1
vt 0.40625 0.9921875
vt 0.4375 1
vt 0.40625 1
vt 0.40625 0.9921875
vt 0.4375 0.9921875
vn 1 0 0
vn -1 0 0
vn 0 1 0
vn 0 -1 0
vn 0 0 1
vn 0 0 -1
usemtl m_0
f 82/345/103 81/346/103 83/347/103 84/348/103
f 87/349/104 85/350/104 86/351/104 88/352/104
f 85/353/105 81/354/105 82/355/105 86/356/105
f 84/357/106 83/358/106 87/359/106 88/360/106
f 83/361/107 81/362/107 85/363/107 87/364/107
f 86/365/108 82/366/108 84/367/108 88/368/108