# Made in Blockbench 4.12.5
# FIXME (please edit bbmodel then re-export): UVs are rotated 180 degrees
mtllib scotch_yoke.mtl

o cube_0
v -0.8125 1.3125 -0.5
v -0.8125 0.9776519966805465 -1.3083945909473758
v -0.8125 1.2547575292180446 -0.4760822854771819
v -0.8125 0.919909525898591 -1.2844768764245578
v -1.1875 0.9776519966805465 -1.3083945909473758
v -1.1875 1.3125 -0.5
v -1.1875 0.919909525898591 -1.2844768764245578
v -1.1875 1.2547575292180446 -0.4760822854771819
vt 0.21875 0.65625
vt 0.25 0.65625
vt 0.25 0.59375
vt 0.21875 0.59375
vt 0.625 0
vt 0.625 0.875
vt 0.6875 0.875
vt 0.6875 0
vt 0.21875 0.65625
vt 0.25 0.65625
vt 0.25 0.59375
vt 0.21875 0.59375
vt 0.375 0.875
vt 0.375 0
vt 0.3125 0
vt 0.3125 0.875
vt 0.3125 0.875
vt 0.6875 0.875
vt 0.6875 0
vt 0.3125 0
vt 0.3125 0
vt 0.6875 0
vt 0.6875 0.875
vt 0.3125 0.875
vn 0 -0.3826834323650897 -0.9238795325112867
vn 1 0 0
vn 0 0.3826834323650897 0.9238795325112867
vn -1 0 0
vn 0 0.9238795325112867 -0.3826834323650897
vn 0 -0.9238795325112867 0.3826834323650897
usemtl m_broad_piston
f 4/4/1 7/3/1 5/2/1 2/1/1
usemtl m_belt
f 3/8/2 4/7/2 2/6/2 1/5/2
usemtl m_broad_piston
f 8/12/3 3/11/3 1/10/3 6/9/3
usemtl m_belt
f 7/16/4 8/15/4 6/14/4 5/13/4
f 6/20/5 1/19/5 2/18/5 5/17/5
f 7/24/6 4/23/6 3/22/6 8/21/6
o cube_1
v 1.1875 0.9776519966805465 1.3083945909473758
v 1.1875 1.3125 0.5
v 1.1875 0.919909525898591 1.2844768764245578
v 1.1875 1.2547575292180446 0.4760822854771819
v 0.8125 1.3125 0.5
v 0.8125 0.9776519966805465 1.3083945909473758
v 0.8125 1.2547575292180446 0.4760822854771819
v 0.8125 0.919909525898591 1.2844768764245578
vt 0.25 0.65625
vt 0.21875 0.65625
vt 0.21875 0.59375
vt 0.25 0.59375
vt 0.625 0
vt 0.625 0.875
vt 0.6875 0.875
vt 0.6875 0
vt 0.25 0.65625
vt 0.21875 0.65625
vt 0.21875 0.59375
vt 0.25 0.59375
vt 0.375 0.875
vt 0.375 0
vt 0.3125 0
vt 0.3125 0.875
vt 0.3125 0.875
vt 0.6875 0.875
vt 0.6875 0
vt 0.3125 0
vt 0.3125 0
vt 0.6875 0
vt 0.6875 0.875
vt 0.3125 0.875
vn 0 0.3826834323650897 -0.9238795325112867
vn 1 0 0
vn 0 -0.3826834323650897 0.9238795325112867
vn -1 0 0
vn 0 0.9238795325112867 0.3826834323650897
vn 0 -0.9238795325112867 -0.3826834323650897
usemtl m_broad_piston
f 12/28/7 15/27/7 13/26/7 10/25/7
usemtl m_belt
f 11/32/8 12/31/8 10/30/8 9/29/8
usemtl m_broad_piston
f 16/36/9 11/35/9 9/34/9 14/33/9
usemtl m_belt
f 15/40/10 16/39/10 14/38/10 13/37/10
f 14/44/11 9/43/11 10/42/11 13/41/11
f 15/48/12 12/47/12 11/46/12 16/45/12
o cube_2
v -0.8125 0.9776519966805465 1.3083945909473758
v -0.8125 1.3125 0.5
v -0.8125 0.919909525898591 1.2844768764245578
v -0.8125 1.2547575292180446 0.4760822854771819
v -1.1875 1.3125 0.5
v -1.1875 0.9776519966805465 1.3083945909473758
v -1.1875 1.2547575292180446 0.4760822854771819
v -1.1875 0.919909525898591 1.2844768764245578
vt 0.25 0.65625
vt 0.21875 0.65625
vt 0.21875 0.59375
vt 0.25 0.59375
vt 0.625 0
vt 0.625 0.875
vt 0.6875 0.875
vt 0.6875 0
vt 0.25 0.65625
vt 0.21875 0.65625
vt 0.21875 0.59375
vt 0.25 0.59375
vt 0.375 0.875
vt 0.375 0
vt 0.3125 0
vt 0.3125 0.875
vt 0.3125 0.875
vt 0.6875 0.875
vt 0.6875 0
vt 0.3125 0
vt 0.3125 0
vt 0.6875 0
vt 0.6875 0.875
vt 0.3125 0.875
vn 0 0.3826834323650897 -0.9238795325112867
vn 1 0 0
vn 0 -0.3826834323650897 0.9238795325112867
vn -1 0 0
vn 0 0.9238795325112867 0.3826834323650897
vn 0 -0.9238795325112867 -0.3826834323650897
usemtl m_broad_piston
f 20/52/13 23/51/13 21/50/13 18/49/13
usemtl m_belt
f 19/56/14 20/55/14 18/54/14 17/53/14
usemtl m_broad_piston
f 24/60/15 19/59/15 17/58/15 22/57/15
usemtl m_belt
f 23/64/16 24/63/16 22/62/16 21/61/16
f 22/68/17 17/67/17 18/66/17 21/65/17
f 23/72/18 20/71/18 19/70/18 24/69/18
o cube_3
v 1.1875 1.3125 -0.5
v 1.1875 0.9776519966805465 -1.3083945909473758
v 1.1875 1.2547575292180446 -0.4760822854771819
v 1.1875 0.919909525898591 -1.2844768764245578
v 0.8125 0.9776519966805465 -1.3083945909473758
v 0.8125 1.3125 -0.5
v 0.8125 0.919909525898591 -1.2844768764245578
v 0.8125 1.2547575292180446 -0.4760822854771819
vt 0.21875 0.65625
vt 0.25 0.65625
vt 0.25 0.59375
vt 0.21875 0.59375
vt 0.625 0
vt 0.625 0.875
vt 0.6875 0.875
vt 0.6875 0
vt 0.21875 0.65625
vt 0.25 0.65625
vt 0.25 0.59375
vt 0.21875 0.59375
vt 0.375 0.875
vt 0.375 0
vt 0.3125 0
vt 0.3125 0.875
vt 0.3125 0.875
vt 0.6875 0.875
vt 0.6875 0
vt 0.3125 0
vt 0.3125 0
vt 0.6875 0
vt 0.6875 0.875
vt 0.3125 0.875
vn 0 -0.3826834323650897 -0.9238795325112867
vn 1 0 0
vn 0 0.3826834323650897 0.9238795325112867
vn -1 0 0
vn 0 0.9238795325112867 -0.3826834323650897
vn 0 -0.9238795325112867 0.3826834323650897
usemtl m_broad_piston
f 28/76/19 31/75/19 29/74/19 26/73/19
usemtl m_belt
f 27/80/20 28/79/20 26/78/20 25/77/20
usemtl m_broad_piston
f 32/84/21 27/83/21 25/82/21 30/81/21
usemtl m_belt
f 31/88/22 32/87/22 30/86/22 29/85/22
f 30/92/23 25/91/23 26/90/23 29/89/23
f 31/96/24 28/95/24 27/94/24 32/93/24
o cuboid_0
v -0.8125 0.65625 0.875
v -0.8125 0.65625 -0.875
v -0.8125 0.59375 0.875
v -0.8125 0.59375 -0.875
v -1.1875 0.65625 0.875
v -1.1875 0.65625 -0.875
v -1.1875 0.59375 0.875
v -1.1875 0.59375 -0.875
v -0.8125 0.65625 0.125
v -0.8125 0.59375 0.125
v -1.1875 0.59375 0.125
v -1.1875 0.65625 0.125
vt 0.3125 0.75
vt 0.3125 0
vt 0.375 0
vt 0.375 0.75
vt 0.625 0.75
vt 0.625 0
vt 0.6875 0
vt 0.6875 0.75
vt 0.3125 0.75
vt 0.3125 0
vt 0.6875 0
vt 0.6875 0.75
vt 0.3125 0.75
vt 0.3125 0
vt 0.6875 0
vt 0.6875 0.75
vt 0.375 0
vt 0.3649706977958411 1
vt 0.3125 1
vt 0.3125 0
vt 0.6875 0
vt 0.6875 1
vt 0.3125 1
vt 0.3125 0
vt 0.6875 0
vt 0.6875 1
vt 0.625 1
vt 0.625 0
vt 0.6875 0
vt 0.6875 1
vt 0.3125 1
vt 0.3125 0
vn 1 0 0
vn -1 0 0
vn 0 1 0
vn 0 -1 0
vn 1 0 0
vn 0 -1 0
vn -1 0 0
vn 0 1 0
usemtl m_belt
f 35/97/25 42/98/25 41/99/25 33/100/25
f 37/101/26 44/102/26 43/103/26 39/104/26
f 33/105/27 41/106/27 44/107/27 37/108/27
f 39/109/28 43/110/28 42/111/28 35/112/28
f 34/113/29 41/114/29 42/115/29 36/116/29
f 36/117/30 42/118/30 43/119/30 40/120/30
f 40/121/31 43/122/31 44/123/31 38/124/31
f 38/125/32 44/126/32 41/127/32 34/128/32
o cuboid_1
v 1.1875 0.65625 0.875
v 1.1875 0.65625 -0.875
v 1.1875 0.59375 0.875
v 1.1875 0.59375 -0.875
v 0.8125 0.65625 0.875
v 0.8125 0.65625 -0.875
v 0.8125 0.59375 0.875
v 0.8125 0.59375 -0.875
v 1.1875 0.65625 0.125
v 1.1875 0.59375 0.125
v 0.8125 0.59375 0.125
v 0.8125 0.65625 0.125
vt 0.3125 0.75
vt 0.3125 0
vt 0.375 0
vt 0.375 0.75
vt 0.625 0.75
vt 0.625 0
vt 0.6875 0
vt 0.6875 0.75
vt 0.3125 0.75
vt 0.3125 0
vt 0.6875 0
vt 0.6875 0.75
vt 0.3125 0.75
vt 0.3125 0
vt 0.6875 0
vt 0.6875 0.75
vt 0.375 0
vt 0.3649706977958411 1
vt 0.3125 1
vt 0.3125 0
vt 0.6875 0
vt 0.6875 1
vt 0.3125 1
vt 0.3125 0
vt 0.6875 0
vt 0.6875 1
vt 0.625 1
vt 0.625 0
vt 0.6875 0
vt 0.6875 1
vt 0.3125 1
vt 0.3125 0
vn 1 0 0
vn -1 0 0
vn 0 1 0
vn 0 -1 0
vn 1 0 0
vn 0 -1 0
vn -1 0 0
vn 0 1 0
usemtl m_belt
f 47/129/33 54/130/33 53/131/33 45/132/33
f 49/133/34 56/134/34 55/135/34 51/136/34
f 45/137/35 53/138/35 56/139/35 49/140/35
f 51/141/36 55/142/36 54/143/36 47/144/36
f 46/145/37 53/146/37 54/147/37 48/148/37
f 48/149/38 54/150/38 55/151/38 52/152/38
f 52/153/39 55/154/39 56/155/39 50/156/39
f 50/157/40 56/158/40 53/159/40 46/160/40