# Made in Blockbench 4.6.1
mtllib smokestack.mtl

o cub4e
v 0.6875 0.6875 0.5625
v 0.6875 0.6875 0.625
v 0.625 0.5 0.625
v 0.625 0.5 0.5625
v 0.375 0.5 0.625
v 0.3125 0.6875 0.625
v 0.3125 0.6875 0.5625
v 0.375 0.5 0.5625
vt 0.21875 0.53125
vt 0.1875 0.53125
vt 0.1875 0.4375
vt 0.21875 0.4375
vt 0.21875 0.4375
vt 0.21875 0.53125
vt 0.1875 0.53125
vt 0.1875 0.4375
vt 0.125 0.5625
vt 0.3125 0.5625
vt 0.3125 0.59375
vt 0.125 0.59375
vt 0.375 0.53125
vt 0.375 0.5625
vt 0.25 0.5625
vt 0.25 0.53125
vt 0.46875 0.90625
vt 0.5 1
vt 0.3125 1
vt 0.34375 0.90625
vt 0.5 1
vt 0.3125 1
vt 0.34375 0.90625
vt 0.46875 0.90625
vn 0.948683298050514 -0.316227766016838 0
vn -0.948683298050514 -0.316227766016838 0
vn 0 1 0
vn 0 -1 0
vn 0 0 1
vn 0 0 -1
usemtl m_caboose
f 1/1/1 2/2/1 3/3/1 4/4/1
f 5/5/2 6/6/2 7/7/2 8/8/2
f 6/9/3 2/10/3 1/11/3 7/12/3
f 4/13/4 3/14/4 5/15/4 8/16/4
f 3/17/5 2/18/5 6/19/5 5/20/5
f 7/21/6 1/22/6 4/23/6 8/24/6
o cub1e
v 0.5625 0 0.4375
v 0.4375 0 0.4375
v 0.4375 0.6875 0.4375
v 0.5625 0.6875 0.4375
v 0.5625 0 0.5625
v 0.5625 0.6875 0.5625
v 0.4375 0 0.5625
v 0.4375 0.6875 0.5625
vt 0.1875 0.65625
vt 0.25 0.65625
vt 0.25 1
vt 0.1875 1
vt 0.1875 0.65625
vt 0.25 0.65625
vt 0.25 1
vt 0.1875 1
vt 0.1875 0.65625
vt 0.25 0.65625
vt 0.25 1
vt 0.1875 1
vt 0.1875 0.65625
vt 0.25 0.65625
vt 0.25 1
vt 0.1875 1
vt 0.1875 0.75
vt 0.125 0.75
vt 0.125 0.6875
vt 0.1875 0.6875
vt 0.1875 0.46875
vt 0.125 0.46875
vt 0.125 0.53125
vt 0.1875 0.53125
vn 0 0 -1
vn 1 0 0
vn 0 0 1
vn -1 0 0
vn 0 1 0
vn 0 -1 0
usemtl m_caboose
f 9/25/7 10/26/7 11/27/7 12/28/7
f 13/29/8 9/30/8 12/31/8 14/32/8
f 15/33/9 13/34/9 14/35/9 16/36/9
f 10/37/10 15/38/10 16/39/10 11/40/10
f 16/41/11 14/42/11 12/43/11 11/44/11
f 10/45/12 9/46/12 13/47/12 15/48/12
o cub2e
v 0.6875 0.6875 0.375
v 0.3125 0.6875 0.375
v 0.3125 0.75 0.375
v 0.6875 0.75 0.375
v 0.6875 0.6875 0.625
v 0.6875 0.75 0.625
v 0.3125 0.6875 0.625
v 0.3125 0.75 0.625
vt 0.125 0.625
vt 0.3125 0.625
vt 0.3125 0.65625
vt 0.125 0.65625
vt 0.125 0.53125
vt 0.25 0.53125
vt 0.25 0.5625
vt 0.125 0.5625
vt 0.125 0.625
vt 0.3125 0.625
vt 0.3125 0.65625
vt 0.125 0.65625
vt 0.125 0.53125
vt 0.25 0.53125
vt 0.25 0.5625
vt 0.125 0.5625
vt 0.1875 1
vt 0 1
vt 0 0.875
vt 0.1875 0.875
vt 0.1875 0.875
vt 0 0.875
vt 0 1
vt 0.1875 1
vn 0 0 -1
vn 1 0 0
vn 0 0 1
vn -1 0 0
vn 0 1 0
vn 0 -1 0
usemtl m_caboose
f 17/49/13 18/50/13 19/51/13 20/52/13
f 21/53/14 17/54/14 20/55/14 22/56/14
f 23/57/15 21/58/15 22/59/15 24/60/15
f 18/61/16 23/62/16 24/63/16 19/64/16
f 24/65/17 22/66/17 20/67/17 19/68/17
f 18/69/18 17/70/18 21/71/18 23/72/18
o cu3be
v 0.6875 0.6875 0.375
v 0.6875 0.6875 0.4375
v 0.625 0.5 0.4375
v 0.625 0.5 0.375
v 0.375 0.5 0.4375
v 0.3125 0.6875 0.4375
v 0.3125 0.6875 0.375
v 0.375 0.5 0.375
vt 0.21875 0.53125
vt 0.1875 0.53125
vt 0.1875 0.4375
vt 0.21875 0.4375
vt 0.21875 0.4375
vt 0.21875 0.53125
vt 0.1875 0.53125
vt 0.1875 0.4375
vt 0.3125 0.59375
vt 0.5 0.59375
vt 0.5 0.625
vt 0.3125 0.625
vt 0.375 0.53125
vt 0.375 0.5625
vt 0.25 0.5625
vt 0.25 0.53125
vt 0.46875 0.90625
vt 0.5 1
vt 0.3125 1
vt 0.34375 0.90625
vt 0.5 1
vt 0.3125 1
vt 0.34375 0.90625
vt 0.46875 0.90625
vn 0.948683298050514 -0.316227766016838 0
vn -0.948683298050514 -0.316227766016838 0
vn 0 1 0
vn 0 -1 0
vn 0 0 1
vn 0 0 -1
usemtl m_caboose
f 25/73/19 26/74/19 27/75/19 28/76/19
f 29/77/20 30/78/20 31/79/20 32/80/20
f 30/81/21 26/82/21 25/83/21 31/84/21
f 28/85/22 27/86/22 29/87/22 32/88/22
f 27/89/23 26/90/23 30/91/23 29/92/23
f 31/93/24 25/94/24 28/95/24 32/96/24