# Made in Blockbench 4.6.1
mtllib wheels.mtl

o cube_1
v 1.6875 0.125 0.125
v 1.6875 0.125 -0.125
v 1.6875 -0.125 0.125
v 1.6875 -0.125 -0.125
v -1.6875 0.125 -0.125
v -1.6875 0.125 0.125
v -1.6875 -0.125 -0.125
v -1.6875 -0.125 0.125
vt 0.2578125 0.8828125
vt 0.6796875 0.8828125
vt 0.6796875 0.8515625
vt 0.2578125 0.8515625
vt 0.1171875 0.671875
vt 0.1484375 0.671875
vt 0.1484375 0.640625
vt 0.1171875 0.640625
vt 0.2578125 0.8828125
vt 0.6796875 0.8828125
vt 0.6796875 0.8515625
vt 0.2578125 0.8515625
vt 0.1171875 0.671875
vt 0.1484375 0.671875
vt 0.1484375 0.640625
vt 0.1171875 0.640625
vt 0.6796875 0.8515625
vt 0.2578125 0.8515625
vt 0.2578125 0.8828125
vt 0.6796875 0.8828125
vt 0.6796875 0.8828125
vt 0.2578125 0.8828125
vt 0.2578125 0.8515625
vt 0.6796875 0.8515625
vn 0 0 -1
vn 1 0 0
vn 0 0 1
vn -1 0 0
vn 0 1 0
vn 0 -1 0
usemtl m_0
f 4/4/1 7/3/1 5/2/1 2/1/1
f 3/8/2 4/7/2 2/6/2 1/5/2
f 8/12/3 3/11/3 1/10/3 6/9/3
f 7/16/4 8/15/4 6/14/4 5/13/4
f 6/20/5 1/19/5 2/18/5 5/17/5
f 7/24/6 4/23/6 3/22/6 8/21/6
o cylinder_2
v 1.5625 -3.3306690738754696e-16 1.1102230246251566e-17
v 1.3125 -2.7755575615628914e-16 1.1102230246251566e-17
v 1.5625000000000002 0.20710678118654724 0.5
v 1.3125000000000002 0.20710678118654724 0.5
v 1.5625000000000002 0.49999999999999967 0.2071067811865476
v 1.3125000000000002 0.49999999999999967 0.2071067811865476
v 1.5625000000000002 0.49999999999999967 -0.20710678118654752
v 1.3125000000000002 0.49999999999999967 -0.20710678118654752
v 1.5625000000000002 0.20710678118654724 -0.5
v 1.3125000000000002 0.20710678118654724 -0.5
v 1.5625 -0.2071067811865478 -0.5
v 1.3125 -0.20710678118654774 -0.5
v 1.5625 -0.5000000000000003 -0.20710678118654788
v 1.3125 -0.5000000000000002 -0.20710678118654788
v 1.5625 -0.5000000000000003 0.20710678118654768
v 1.3125 -0.5000000000000002 0.20710678118654768
v 1.5625 -0.20710678118654824 0.49999999999999983
v 1.3125 -0.20710678118654818 0.49999999999999983
vt 0.2451949050156864 1
vt 0.19341811581764706 1
vt 0.21930651041666674 0.9375000469507012
vt 0.28125 0.96875
vt 0.3359375 0.96875
vt 0.3359375 1
vt 0.28125 1
vt 0.08838828125 0.6484375
vt 0.125 0.68504921875
vt 0.0625 0.7109375
vt 0.2448986979166667 1
vt 0.1931221354166667 1
vt 0.21901041666666674 0.9375
vt 0.28125 0.96875
vt 0.3359375 0.96875
vt 0.3359375 1
vt 0.28125 1
vt 0.125 0.68504921875
vt 0.125 0.73682578125
vt 0.0625 0.7109375
vt 0.2451949050156865 1
vt 0.19341811581764715 1
vt 0.2193065104166668 0.9375000469507012
vt 0.28125 0.96875
vt 0.3359375 0.96875
vt 0.3359375 1
vt 0.28125 1
vt 0.125 0.73682578125
vt 0.08838828125 0.7734375
vt 0.0625 0.7109375
vt 0.24463828125 1
vt 0.19286171875000005 1
vt 0.21875000000000003 0.9375
vt 0.28125 0.96875
vt 0.3359375 0.96875
vt 0.3359375 1
vt 0.28125 1
vt 0.08838828125 0.7734375
vt 0.03661171875 0.7734375
vt 0.0625 0.7109375
vt 0.24486313418235298 1
vt 0.19308634498431368 1
vt 0.21897473958333338 0.9375000469507012
vt 0.28125 0.96875
vt 0.3359375 0.96875
vt 0.3359375 1
vt 0.28125 1
vt 0.03661171875 0.7734375
vt 0 0.73682578125
vt 0.0625 0.7109375
vt 0.24515911458333348 1
vt 0.19338255208333346 1
vt 0.2192708333333335 0.9375
vt 0.28125 0.96875
vt 0.3359375 0.96875
vt 0.3359375 1
vt 0.28125 1
vt 0 0.73682578125
vt 0 0.68504921875
vt 0.0625 0.7109375
vt 0.2448631341823528 1
vt 0.19308634498431362 1
vt 0.21897473958333333 0.9375000469507012
vt 0.28125 0.96875
vt 0.3359375 0.96875
vt 0.3359375 1
vt 0.28125 1
vt 0 0.68504921875
vt 0.03661171875 0.6484375
vt 0.0625 0.7109375
vt 0.24463828125000006 1
vt 0.1928617187500001 1
vt 0.21875000000000008 0.9375
vt 0.28125 0.96875
vt 0.3359375 0.96875
vt 0.3359375 1
vt 0.28125 1
vt 0.03661171875 0.6484375
vt 0.08838828125 0.6484375
vt 0.0625 0.7109375
vn 1 -2.220446049250313e-16 0
vn 1.5700924586837752e-16 0.7071067811865476 0.7071067811865476
vn -1 2.220446049250313e-16 0
vn 1 -2.220446049250313e-16 0
vn 2.220446049250313e-16 1 0
vn -1 2.220446049250313e-16 0
vn 1 -2.220446049250313e-16 0
vn 1.5700924586837752e-16 0.7071067811865476 -0.7071067811865475
vn -1 2.220446049250313e-16 0
vn 1 -2.220446049250313e-16 0
vn 0 0 -1
vn -1 2.220446049250313e-16 0
vn 1 -2.220446049250313e-16 0
vn -1.5700924586837742e-16 -0.7071067811865471 -0.707106781186548
vn -1 2.220446049250313e-16 0
vn 1 -2.220446049250313e-16 0
vn -2.220446049250313e-16 -1 0
vn -1 2.220446049250313e-16 0
vn 1 -2.220446049250313e-16 0
vn -1.5700924586837754e-16 -0.7071067811865477 0.7071067811865475
vn -1 2.220446049250313e-16 0
vn 1 -2.220446049250313e-16 0
vn -8.927243888486632e-32 -4.0204732249633932e-16 1
vn -1 2.220446049250313e-16 0
usemtl m_0
f 13/25/7 11/26/7 9/27/7
f 11/28/8 13/29/8 14/30/8 12/31/8
f 12/32/9 14/33/9 10/34/9
f 15/35/10 13/36/10 9/37/10
f 13/38/11 15/39/11 16/40/11 14/41/11
f 14/42/12 16/43/12 10/44/12
f 17/45/13 15/46/13 9/47/13
f 15/48/14 17/49/14 18/50/14 16/51/14
f 16/52/15 18/53/15 10/54/15
f 19/55/16 17/56/16 9/57/16
f 17/58/17 19/59/17 20/60/17 18/61/17
f 18/62/18 20/63/18 10/64/18
f 21/65/19 19/66/19 9/67/19
f 19/68/20 21/69/20 22/70/20 20/71/20
f 20/72/21 22/73/21 10/74/21
f 23/75/22 21/76/22 9/77/22
f 21/78/23 23/79/23 24/80/23 22/81/23
f 22/82/24 24/83/24 10/84/24
f 25/85/25 23/86/25 9/87/25
f 23/88/26 25/89/26 26/90/26 24/91/26
f 24/92/27 26/93/27 10/94/27
f 11/95/28 25/96/28 9/97/28
f 25/98/29 11/99/29 12/100/29 26/101/29
f 26/102/30 12/103/30 10/104/30
o cylinder_3
v -1.3124999999999998 5.551115123125783e-16 -5.805090501521863e-16
v -1.1249999999999998 4.440892098500626e-16 -6.034711776361991e-16
v -1.3124999999999996 0.2588834764831841 -0.6250000000000009
v -1.1249999999999996 0.258883476483184 -0.625000000000001
v -1.3124999999999996 0.6250000000000002 -0.258883476483186
v -1.1249999999999996 0.625 -0.258883476483186
v -1.3124999999999996 0.6250000000000011 0.2588834764831829
v -1.1249999999999996 0.6250000000000009 0.2588834764831829
v -1.3124999999999996 0.2588834764831859 0.6249999999999991
v -1.1249999999999996 0.25888347648318577 0.624999999999999
v -1.3125 -0.25888347648318283 0.6249999999999998
v -1.125 -0.2588834764831829 0.6249999999999998
v -1.3125 -0.6249999999999989 0.25888347648318516
v -1.125 -0.624999999999999 0.25888347648318516
v -1.3125 -0.6249999999999997 -0.25888347648318427
v -1.125 -0.6249999999999998 -0.25888347648318427
v -1.3125 -0.2588834764831852 -0.625
v -1.125 -0.2588834764831853 -0.625
vt 0.11059526677223441 1
vt 0.045874004061098865 1
vt 0.07823463541666664 0.9218751967951697
vt 0.28125 0.8828125
vt 0.34375 0.8828125
vt 0.34375 0.90625
vt 0.28125 0.90625
vt 0.11059526677223436 0.9993694656516101
vt 0.045874004061098816 0.9993694656516101
vt 0.07823463541666659 0.9212446624467798
vt 0.11022473958333333 1
vt 0.04550442708333333 1
vt 0.07786458333333333 0.921875
vt 0.28125 0.8828125
vt 0.34375 0.8828125
vt 0.34375 0.90625
vt 0.28125 0.90625
vt 0.11022473958333329 0.9994791666666667
vt 0.045504427083333354 0.9994791666666667
vt 0.07786458333333335 0.9213541666666667
vt 0.11059526677223447 1
vt 0.045874004061098865 1
vt 0.0782346354166667 0.9218751967951697
vt 0.28125 0.8828125
vt 0.34375 0.8828125
vt 0.34375 0.90625
vt 0.28125 0.90625
vt 0.1105952667722343 0.9995887364849434
vt 0.04587400406109876 0.9995887364849434
vt 0.07823463541666653 0.9214639332801132
vt 0.11048515624999998 1
vt 0.04576484374999999 1
vt 0.07812499999999999 0.921875
vt 0.28125 0.8828125
vt 0.34375 0.8828125
vt 0.34375 0.90625
vt 0.28125 0.90625
vt 0.11048515625 1
vt 0.045764843750000006 1
vt 0.078125 0.921875
vt 0.11037599593890113 1
vt 0.04565473322776555 1
vt 0.07801536458333333 0.9218751967951697
vt 0.28125 0.8828125
vt 0.34375 0.8828125
vt 0.34375 0.90625
vt 0.28125 0.90625
vt 0.11037599593890113 0.9995887364849434
vt 0.04565473322776553 0.9995887364849434
vt 0.07801536458333336 0.9214639332801132
vt 0.11152682291666667 1
vt 0.0453125 1
vt 0.07916666666666668 0.921875
vt 0.28125 0.8828125
vt 0.34375 0.8828125
vt 0.34375 0.90625
vt 0.28125 0.90625
vt 0.11074557291666665 0.9994791666666667
vt 0.04602526041666666 0.9994791666666667
vt 0.07838541666666665 0.9213541666666667
vt 0.11037599593890113 1
vt 0.04565473322776555 1
vt 0.07801536458333333 0.9218751967951697
vt 0.28125 0.8828125
vt 0.34375 0.8828125
vt 0.34375 0.90625
vt 0.28125 0.90625
vt 0.11037599593890102 0.9993694656516101
vt 0.04565473322776542 0.9993694656516101
vt 0.07801536458333319 0.9212446624467798
vt 0.11048515625 1
vt 0.04576484375 1
vt 0.078125 0.921875
vt 0.28125 0.8828125
vt 0.34375 0.8828125
vt 0.34375 0.90625
vt 0.28125 0.90625
vt 0.11048515624999997 0.9997395833333333
vt 0.04576484374999998 0.9997395833333333
vt 0.07812499999999997 0.9216145833333333
vn -1 4.440892098500628e-16 1.224646799147352e-16
vn 2.274228861132052e-16 0.7071067811865465 -0.7071067811865486
vn 1 -4.440892098500628e-16 -1.224646799147352e-16
vn -1 4.440892098500628e-16 1.224646799147352e-16
vn 4.440892098500624e-16 1 -1.4547323094649232e-15
vn 1 -4.440892098500628e-16 -1.224646799147352e-16
vn -1 4.440892098500628e-16 1.224646799147352e-16
vn 4.006140973603046e-16 0.7071067811865486 0.7071067811865465
vn 1 -4.440892098500628e-16 -1.224646799147352e-16
vn -1 4.440892098500628e-16 1.224646799147352e-16
vn 1.224646799147358e-16 1.4547323094649234e-15 1
vn 1 -4.440892098500628e-16 -1.224646799147352e-16
vn -1 4.440892098500628e-16 1.224646799147352e-16
vn -2.2742288611320504e-16 -0.7071067811865462 0.707106781186549
vn 1 -4.440892098500628e-16 -1.224646799147352e-16
vn -1 4.440892098500628e-16 1.224646799147352e-16
vn -4.440892098500624e-16 -1 1.4547323094649232e-15
vn 1 -4.440892098500628e-16 -1.224646799147352e-16
vn -1 4.440892098500628e-16 1.224646799147352e-16
vn -4.0061409736030463e-16 -0.7071067811865488 -0.7071067811865464
vn 1 -4.440892098500628e-16 -1.224646799147352e-16
vn -1 4.440892098500628e-16 1.224646799147352e-16
vn -1.2246467991473599e-16 -1.883582786794352e-15 -1
vn 1 -4.440892098500628e-16 -1.224646799147352e-16
usemtl m_0
f 31/105/31 29/106/31 27/107/31
f 29/108/32 31/109/32 32/110/32 30/111/32
f 30/112/33 32/113/33 28/114/33
f 33/115/34 31/116/34 27/117/34
f 31/118/35 33/119/35 34/120/35 32/121/35
f 32/122/36 34/123/36 28/124/36
f 35/125/37 33/126/37 27/127/37
f 33/128/38 35/129/38 36/130/38 34/131/38
f 34/132/39 36/133/39 28/134/39
f 37/135/40 35/136/40 27/137/40
f 35/138/41 37/139/41 38/140/41 36/141/41
f 36/142/42 38/143/42 28/144/42
f 39/145/43 37/146/43 27/147/43
f 37/148/44 39/149/44 40/150/44 38/151/44
f 38/152/45 40/153/45 28/154/45
f 41/155/46 39/156/46 27/157/46
f 39/158/47 41/159/47 42/160/47 40/161/47
f 40/162/48 42/163/48 28/164/48
f 43/165/49 41/166/49 27/167/49
f 41/168/50 43/169/50 44/170/50 42/171/50
f 42/172/51 44/173/51 28/174/51
f 29/175/52 43/176/52 27/177/52
f 43/178/53 29/179/53 30/180/53 44/181/53
f 44/182/54 30/183/54 28/184/54
o cylinder_4
v -1.5624999999999998 6.661338147750939e-16 -5.471173226119396e-16
v -1.3124999999999998 5.551115123125783e-16 -5.777334925906233e-16
v -1.5624999999999998 0.20710678118654746 -0.5000000000000009
v -1.3124999999999998 0.20710678118654735 -0.5000000000000009
v -1.5624999999999996 0.5000000000000004 -0.20710678118654888
v -1.3124999999999996 0.5000000000000004 -0.2071067811865489
v -1.5624999999999996 0.5000000000000009 0.20710678118654624
v -1.3124999999999996 0.5000000000000009 0.2071067811865462
v -1.5624999999999998 0.20710678118654902 0.49999999999999917
v -1.3124999999999998 0.2071067811865489 0.4999999999999991
v -1.5624999999999998 -0.20710678118654607 0.4999999999999998
v -1.3124999999999998 -0.20710678118654618 0.4999999999999997
v -1.5625 -0.49999999999999895 0.20710678118654807
v -1.3125 -0.49999999999999906 0.20710678118654804
v -1.5625 -0.49999999999999956 -0.2071067811865475
v -1.3125 -0.49999999999999967 -0.20710678118654752
v -1.5624999999999998 -0.20710678118654796 -0.5000000000000001
v -1.3124999999999998 -0.20710678118654807 -0.5000000000000001
vt 0.2451949050156864 1
vt 0.19341811581764706 1
vt 0.21930651041666674 0.9375000469507012
vt 0.28125 0.96875
vt 0.3359375 0.96875
vt 0.3359375 1
vt 0.28125 1
vt 0.08838828125 0.6484375
vt 0.125 0.68504921875
vt 0.0625 0.7109375
vt 0.2448986979166667 1
vt 0.1931221354166667 1
vt 0.21901041666666674 0.9375
vt 0.28125 0.96875
vt 0.3359375 0.96875
vt 0.3359375 1
vt 0.28125 1
vt 0.125 0.68504921875
vt 0.125 0.73682578125
vt 0.0625 0.7109375
vt 0.2451949050156865 1
vt 0.19341811581764715 1
vt 0.2193065104166668 0.9375000469507012
vt 0.28125 0.96875
vt 0.3359375 0.96875
vt 0.3359375 1
vt 0.28125 1
vt 0.125 0.73682578125
vt 0.08838828125 0.7734375
vt 0.0625 0.7109375
vt 0.24463828125 1
vt 0.19286171875000005 1
vt 0.21875000000000003 0.9375
vt 0.28125 0.96875
vt 0.3359375 0.96875
vt 0.3359375 1
vt 0.28125 1
vt 0.08838828125 0.7734375
vt 0.03661171875 0.7734375
vt 0.0625 0.7109375
vt 0.24486313418235298 1
vt 0.19308634498431368 1
vt 0.21897473958333338 0.9375000469507012
vt 0.28125 0.96875
vt 0.3359375 0.96875
vt 0.3359375 1
vt 0.28125 1
vt 0.03661171875 0.7734375
vt 0 0.73682578125
vt 0.0625 0.7109375
vt 0.24515911458333348 1
vt 0.19338255208333346 1
vt 0.2192708333333335 0.9375
vt 0.28125 0.96875
vt 0.3359375 0.96875
vt 0.3359375 1
vt 0.28125 1
vt 0 0.73682578125
vt 0 0.68504921875
vt 0.0625 0.7109375
vt 0.2448631341823528 1
vt 0.19308634498431362 1
vt 0.21897473958333333 0.9375000469507012
vt 0.28125 0.96875
vt 0.3359375 0.96875
vt 0.3359375 1
vt 0.28125 1
vt 0 0.68504921875
vt 0.03661171875 0.6484375
vt 0.0625 0.7109375
vt 0.24463828125000006 1
vt 0.1928617187500001 1
vt 0.21875000000000008 0.9375
vt 0.28125 0.96875
vt 0.3359375 0.96875
vt 0.3359375 1
vt 0.28125 1
vt 0.03661171875 0.6484375
vt 0.08838828125 0.6484375
vt 0.0625 0.7109375
vn -1 4.440892098500628e-16 1.224646799147352e-16
vn 2.2742288611320524e-16 0.7071067811865466 -0.7071067811865486
vn 1 -4.440892098500628e-16 -1.224646799147352e-16
vn -1 4.440892098500628e-16 1.224646799147352e-16
vn 4.440892098500624e-16 1 -1.4547323094649232e-15
vn 1 -4.440892098500628e-16 -1.224646799147352e-16
vn -1 4.440892098500628e-16 1.224646799147352e-16
vn 4.0061409736030453e-16 0.7071067811865486 0.7071067811865465
vn 1 -4.440892098500628e-16 -1.224646799147352e-16
vn -1 4.440892098500628e-16 1.224646799147352e-16
vn 1.224646799147358e-16 1.4547323094649234e-15 1
vn 1 -4.440892098500628e-16 -1.224646799147352e-16
vn -1 4.440892098500628e-16 1.224646799147352e-16
vn -2.2742288611320494e-16 -0.7071067811865461 0.707106781186549
vn 1 -4.440892098500628e-16 -1.224646799147352e-16
vn -1 4.440892098500628e-16 1.224646799147352e-16
vn -4.440892098500624e-16 -1 1.4547323094649232e-15
vn 1 -4.440892098500628e-16 -1.224646799147352e-16
vn -1 4.440892098500628e-16 1.224646799147352e-16
vn -4.0061409736030463e-16 -0.7071067811865487 -0.7071067811865465
vn 1 -4.440892098500628e-16 -1.224646799147352e-16
vn -1 4.440892098500628e-16 1.224646799147352e-16
vn -1.2246467991473596e-16 -1.8567796319612627e-15 -1
vn 1 -4.440892098500628e-16 -1.224646799147352e-16
usemtl m_0
f 49/185/55 47/186/55 45/187/55
f 47/188/56 49/189/56 50/190/56 48/191/56
f 48/192/57 50/193/57 46/194/57
f 51/195/58 49/196/58 45/197/58
f 49/198/59 51/199/59 52/200/59 50/201/59
f 50/202/60 52/203/60 46/204/60
f 53/205/61 51/206/61 45/207/61
f 51/208/62 53/209/62 54/210/62 52/211/62
f 52/212/63 54/213/63 46/214/63
f 55/215/64 53/216/64 45/217/64
f 53/218/65 55/219/65 56/220/65 54/221/65
f 54/222/66 56/223/66 46/224/66
f 57/225/67 55/226/67 45/227/67
f 55/228/68 57/229/68 58/230/68 56/231/68
f 56/232/69 58/233/69 46/234/69
f 59/235/70 57/236/70 45/237/70
f 57/238/71 59/239/71 60/240/71 58/241/71
f 58/242/72 60/243/72 46/244/72
f 61/245/73 59/246/73 45/247/73
f 59/248/74 61/249/74 62/250/74 60/251/74
f 60/252/75 62/253/75 46/254/75
f 47/255/76 61/256/76 45/257/76
f 61/258/77 47/259/77 48/260/77 62/261/77
f 62/262/78 48/263/78 46/264/78
o cylinder_5
v 1.3125 -2.7755575615628914e-16 1.3877787807814457e-17
v 1.125 -2.220446049250313e-16 1.3877787807814457e-17
v 1.3125000000000002 0.2588834764831841 0.625
v 1.1250000000000002 0.2588834764831842 0.625
v 1.3125000000000002 0.6249999999999998 0.2588834764831845
v 1.1250000000000002 0.6249999999999998 0.2588834764831845
v 1.3125000000000002 0.6249999999999998 -0.2588834764831844
v 1.1250000000000002 0.6249999999999998 -0.2588834764831844
v 1.3125000000000002 0.2588834764831841 -0.625
v 1.1250000000000002 0.2588834764831842 -0.625
v 1.3125 -0.2588834764831846 -0.625
v 1.125 -0.25888347648318455 -0.625
v 1.3125 -0.6250000000000002 -0.2588834764831848
v 1.125 -0.6250000000000001 -0.2588834764831848
v 1.3125 -0.6250000000000002 0.2588834764831846
v 1.125 -0.6250000000000001 0.2588834764831846
v 1.3125 -0.25888347648318516 0.6249999999999998
v 1.125 -0.2588834764831851 0.6249999999999998
vt 0.11059526677223441 1
vt 0.045874004061098865 1
vt 0.07823463541666664 0.9218751967951697
vt 0.28125 0.8828125
vt 0.34375 0.8828125
vt 0.34375 0.90625
vt 0.28125 0.90625
vt 0.11059526677223436 0.9993694656516101
vt 0.045874004061098816 0.9993694656516101
vt 0.07823463541666659 0.9212446624467798
vt 0.11022473958333333 1
vt 0.04550442708333333 1
vt 0.07786458333333333 0.921875
vt 0.28125 0.8828125
vt 0.34375 0.8828125
vt 0.34375 0.90625
vt 0.28125 0.90625
vt 0.11022473958333329 0.9994791666666667
vt 0.045504427083333354 0.9994791666666667
vt 0.07786458333333335 0.9213541666666667
vt 0.11059526677223447 1
vt 0.045874004061098865 1
vt 0.0782346354166667 0.9218751967951697
vt 0.28125 0.8828125
vt 0.34375 0.8828125
vt 0.34375 0.90625
vt 0.28125 0.90625
vt 0.1105952667722343 0.9995887364849434
vt 0.04587400406109876 0.9995887364849434
vt 0.07823463541666653 0.9214639332801132
vt 0.11048515624999998 1
vt 0.04576484374999999 1
vt 0.07812499999999999 0.921875
vt 0.28125 0.8828125
vt 0.34375 0.8828125
vt 0.34375 0.90625
vt 0.28125 0.90625
vt 0.11048515625 1
vt 0.045764843750000006 1
vt 0.078125 0.921875
vt 0.11037599593890113 1
vt 0.04565473322776555 1
vt 0.07801536458333333 0.9218751967951697
vt 0.28125 0.8828125
vt 0.34375 0.8828125
vt 0.34375 0.90625
vt 0.28125 0.90625
vt 0.11037599593890113 0.9995887364849434
vt 0.04565473322776553 0.9995887364849434
vt 0.07801536458333336 0.9214639332801132
vt 0.11152682291666667 1
vt 0.0453125 1
vt 0.07916666666666668 0.921875
vt 0.28125 0.8828125
vt 0.34375 0.8828125
vt 0.34375 0.90625
vt 0.28125 0.90625
vt 0.11074557291666665 0.9994791666666667
vt 0.04602526041666666 0.9994791666666667
vt 0.07838541666666665 0.9213541666666667
vt 0.11037599593890113 1
vt 0.04565473322776555 1
vt 0.07801536458333333 0.9218751967951697
vt 0.28125 0.8828125
vt 0.34375 0.8828125
vt 0.34375 0.90625
vt 0.28125 0.90625
vt 0.11037599593890102 0.9993694656516101
vt 0.04565473322776542 0.9993694656516101
vt 0.07801536458333319 0.9212446624467798
vt 0.11048515625 1
vt 0.04576484375 1
vt 0.078125 0.921875
vt 0.28125 0.8828125
vt 0.34375 0.8828125
vt 0.34375 0.90625
vt 0.28125 0.90625
vt 0.11048515624999997 0.9997395833333333
vt 0.04576484374999998 0.9997395833333333
vt 0.07812499999999997 0.9216145833333333
vn 1 -2.220446049250313e-16 0
vn 1.570092458683775e-16 0.7071067811865475 0.7071067811865476
vn -1 2.220446049250313e-16 0
vn 1 -2.220446049250313e-16 0
vn 2.220446049250313e-16 1 0
vn -1 2.220446049250313e-16 0
vn 1 -2.220446049250313e-16 0
vn 1.5700924586837752e-16 0.7071067811865476 -0.7071067811865475
vn -1 2.220446049250313e-16 0
vn 1 -2.220446049250313e-16 0
vn 0 0 -1
vn -1 2.220446049250313e-16 0
vn 1 -2.220446049250313e-16 0
vn -1.5700924586837744e-16 -0.7071067811865472 -0.707106781186548
vn -1 2.220446049250313e-16 0
vn 1 -2.220446049250313e-16 0
vn -2.220446049250313e-16 -1 0
vn -1 2.220446049250313e-16 0
vn 1 -2.220446049250313e-16 0
vn -1.5700924586837757e-16 -0.7071067811865478 0.7071067811865474
vn -1 2.220446049250313e-16 0
vn 1 -2.220446049250313e-16 0
vn -9.522393481052407e-32 -4.288504773294286e-16 1
vn -1 2.220446049250313e-16 0
usemtl m_0
f 67/265/79 65/266/79 63/267/79
f 65/268/80 67/269/80 68/270/80 66/271/80
f 66/272/81 68/273/81 64/274/81
f 69/275/82 67/276/82 63/277/82
f 67/278/83 69/279/83 70/280/83 68/281/83
f 68/282/84 70/283/84 64/284/84
f 71/285/85 69/286/85 63/287/85
f 69/288/86 71/289/86 72/290/86 70/291/86
f 70/292/87 72/293/87 64/294/87
f 73/295/88 71/296/88 63/297/88
f 71/298/89 73/299/89 74/300/89 72/301/89
f 72/302/90 74/303/90 64/304/90
f 75/305/91 73/306/91 63/307/91
f 73/308/92 75/309/92 76/310/92 74/311/92
f 74/312/93 76/313/93 64/314/93
f 77/315/94 75/316/94 63/317/94
f 75/318/95 77/319/95 78/320/95 76/321/95
f 76/322/96 78/323/96 64/324/96
f 79/325/97 77/326/97 63/327/97
f 77/328/98 79/329/98 80/330/98 78/331/98
f 78/332/99 80/333/99 64/334/99
f 65/335/100 79/336/100 63/337/100
f 79/338/101 65/339/101 66/340/101 80/341/101
f 80/342/102 66/343/102 64/344/102