# Blender 4.1.0
# www.blender.org
mtllib monorail_buffer_stop.mtl
o cube
v -0.000000 0.281251 0.000000
v -0.000000 0.531251 0.000000
v 1.000000 0.281251 0.000000
v 1.000000 0.531251 0.000000
v -0.000000 0.281251 0.187500
v -0.000000 0.531251 0.187500
v 1.000000 0.281251 0.187500
v 1.000000 0.531251 0.187500
vn -0.0000 -0.0000 -1.0000
vn 1.0000 -0.0000 -0.0000
vn -0.0000 -0.0000 1.0000
vn -1.0000 -0.0000 -0.0000
vn -0.0000 -1.0000 -0.0000
vn -0.0000 1.0000 -0.0000
vt 0.375000 0.000000
vt 0.625000 0.000000
vt 0.625000 0.250000
vt 0.375000 0.250000
vt 0.625000 0.500000
vt 0.375000 0.500000
vt 0.531250 0.875000
vt 0.531250 1.000000
vt 0.031250 1.000000
vt 0.031250 0.875000
vt 0.375000 0.750000
vt 0.625000 0.750000
vt 0.625000 1.000000
vt 0.375000 1.000000
vt 0.531250 0.781250
vt 0.031250 0.781250
s 0
usemtl 1
f 1/1/1 2/2/1 4/3/1 3/4/1
f 3/4/2 4/3/2 8/5/2 7/6/2
f 7/7/3 8/8/3 6/9/3 5/10/3
f 5/11/4 6/12/4 2/13/4 1/14/4
f 3/15/5 7/7/5 5/10/5 1/16/5
f 8/15/6 4/7/6 2/10/6 6/16/6
o cube.001
v -0.812500 0.281251 0.000000
v -0.812500 0.531251 0.000000
v -0.187500 0.281251 0.000000
v -0.187500 0.531251 0.000000
v -0.812500 0.281251 0.187500
v -0.812500 0.531251 0.187500
v -0.187500 0.281251 0.187500
v -0.187500 0.531251 0.187500
vn -0.0000 -0.0000 -1.0000
vn 1.0000 -0.0000 -0.0000
vn -0.0000 -0.0000 1.0000
vn -1.0000 -0.0000 -0.0000
vn -0.0000 -1.0000 -0.0000
vn -0.0000 1.0000 -0.0000
vt 0.375000 0.000000
vt 0.625000 0.000000
vt 0.625000 0.250000
vt 0.375000 0.250000
vt 0.625000 0.500000
vt 0.375000 0.500000
vt 0.312500 0.875000
vt 0.312500 1.000000
vt 0.000000 1.000000
vt 0.000000 0.875000
vt 0.656250 1.000000
vt 0.656250 0.875000
vt 0.750000 0.875000
vt 0.750000 1.000000
vt 0.312500 0.781250
vt 0.000000 0.781250
s 0
usemtl 1
f 9/17/7 10/18/7 12/19/7 11/20/7
f 11/20/8 12/19/8 16/21/8 15/22/8
f 15/23/9 16/24/9 14/25/9 13/26/9
f 13/27/10 14/28/10 10/29/10 9/30/10
f 11/31/11 15/23/11 13/26/11 9/32/11
f 16/31/12 12/23/12 10/26/12 14/32/12
o cube.002
v 1.187500 0.281251 0.000000
v 1.187500 0.531251 0.000000
v 1.812500 0.281251 0.000000
v 1.812500 0.531251 0.000000
v 1.187500 0.281251 0.187500
v 1.187500 0.531251 0.187500
v 1.812500 0.281251 0.187500
v 1.812500 0.531251 0.187500
vn -0.0000 -0.0000 -1.0000
vn 1.0000 -0.0000 -0.0000
vn -0.0000 -0.0000 1.0000
vn -1.0000 -0.0000 -0.0000
vn -0.0000 -1.0000 -0.0000
vn -0.0000 1.0000 -0.0000
vt 0.375000 0.000000
vt 0.625000 0.000000
vt 0.625000 0.250000
vt 0.375000 0.250000
vt 0.750000 1.000000
vt 0.750000 0.875000
vt 0.656250 0.875000
vt 0.656250 1.000000
vt 0.000000 0.875000
vt 0.000000 1.000000
vt 0.312500 1.000000
vt 0.312500 0.875000
vt 0.375000 0.750000
vt 0.625000 0.750000
vt 0.625000 1.000000
vt 0.375000 1.000000
vt 0.000000 0.781250
vt 0.312500 0.781250
s 0
usemtl 1
f 17/33/13 18/34/13 20/35/13 19/36/13
f 19/37/14 20/38/14 24/39/14 23/40/14
f 23/41/15 24/42/15 22/43/15 21/44/15
f 21/45/16 22/46/16 18/47/16 17/48/16
f 19/49/17 23/41/17 21/44/17 17/50/17
f 24/49/18 20/41/18 18/44/18 22/50/18
o cube.003
v 1.250000 0.156250 -0.812500
v 1.250000 0.656250 -0.812500
v 1.750000 0.156250 -0.812500
v 1.750000 0.656250 -0.812500
v 1.250000 0.156250 -0.750000
v 1.250000 0.656250 -0.750000
v 1.750000 0.156250 -0.750000
v 1.750000 0.656250 -0.750000
vn -0.0000 -0.0000 -1.0000
vn 1.0000 -0.0000 -0.0000
vn -0.0000 -0.0000 1.0000
vn -1.0000 -0.0000 -0.0000
vn -0.0000 -1.0000 -0.0000
vn -0.0000 1.0000 -0.0000
vt 0.250000 0.406250
vt 0.250000 0.656250
vt 0.000000 0.656250
vt 0.000000 0.406250
vt 0.281250 0.406250
vt 0.281250 0.656250
s 0
usemtl 4
f 25/51/19 26/52/19 28/53/19 27/54/19
f 27/55/20 28/56/20 32/52/20 31/51/20
f 31/51/21 32/52/21 30/53/21 29/54/21
f 29/55/22 30/56/22 26/52/22 25/51/22
f 27/55/23 31/51/23 29/52/23 25/56/23
f 32/51/24 28/55/24 26/56/24 30/52/24
o cube.004
v 1.375000 0.281250 -0.750000
v 1.375000 0.531250 -0.750000
v 1.625000 0.281250 -0.750000
v 1.625000 0.531250 -0.750000
v 1.375000 0.281250 -0.500000
v 1.375000 0.531250 -0.500000
v 1.625000 0.281250 -0.500000
v 1.625000 0.531250 -0.500000
vn -0.0000 -0.0000 -1.0000
vn 1.0000 -0.0000 -0.0000
vn -0.0000 -0.0000 1.0000
vn -1.0000 -0.0000 -0.0000
vn -0.0000 -1.0000 -0.0000
vn -0.0000 1.0000 -0.0000
vt 0.375000 0.000000
vt 0.625000 0.000000
vt 0.625000 0.250000
vt 0.375000 0.250000
vt 0.718750 0.968750
vt 0.593750 0.968750
vt 0.593750 0.843750
vt 0.718750 0.843750
vt 0.375000 0.500000
vt 0.625000 0.500000
vt 0.625000 0.750000
vt 0.375000 0.750000
s 0
usemtl 4
f 33/57/25 34/58/25 36/59/25 35/60/25
f 35/61/26 36/62/26 40/63/26 39/64/26
f 39/65/27 40/66/27 38/67/27 37/68/27
f 37/61/28 38/62/28 34/63/28 33/64/28
f 35/64/29 39/61/29 37/62/29 33/63/29
f 40/64/30 36/61/30 34/62/30 38/63/30
o cube.005
v 1.187500 0.218750 -0.250000
v 1.187500 0.593750 -0.250000
v 1.812500 0.218750 -0.250000
v 1.812500 0.593750 -0.250000
v 1.187500 0.218750 -0.187500
v 1.187500 0.593750 -0.187500
v 1.812500 0.218750 -0.187500
v 1.812500 0.593750 -0.187500
vn -0.0000 -0.0000 -1.0000
vn 1.0000 -0.0000 -0.0000
vn -0.0000 -0.0000 1.0000
vn -1.0000 -0.0000 -0.0000
vn -0.0000 -1.0000 -0.0000
vn -0.0000 1.0000 -0.0000
vt 0.531250 0.812500
vt 0.531250 1.000000
vt 0.218750 1.000000
vt 0.218750 0.812500
vt 0.250000 0.812500
vt 0.250000 1.000000
vt 0.375000 0.500000
vt 0.625000 0.500000
vt 0.625000 0.750000
vt 0.375000 0.750000
vt 0.500000 1.000000
vt 0.500000 0.812500
vt 0.218750 0.968750
vt 0.531250 0.968750
vt 0.218750 0.843750
vt 0.531250 0.843750
s 0
usemtl 4
f 41/69/31 42/70/31 44/71/31 43/72/31
f 43/73/32 44/74/32 48/71/32 47/72/32
f 47/75/33 48/76/33 46/77/33 45/78/33
f 45/69/34 46/70/34 42/79/34 41/80/34
f 43/81/35 47/71/35 45/70/35 41/82/35
f 48/83/36 44/72/36 42/69/36 46/84/36
o cube.006
v 1.312500 0.218750 -0.500000
v 1.312500 0.593750 -0.500000
v 1.687500 0.218750 -0.500000
v 1.687500 0.593750 -0.500000
v 1.312500 0.218750 -0.250000
v 1.312500 0.593750 -0.250000
v 1.687500 0.218750 -0.250000
v 1.687500 0.593750 -0.250000
vn -0.0000 -0.0000 -1.0000
vn 1.0000 -0.0000 -0.0000
vn -0.0000 -0.0000 1.0000
vn -1.0000 -0.0000 -0.0000
vn -0.0000 -1.0000 -0.0000
vn -0.0000 1.0000 -0.0000
vt 0.187500 0.875000
vt 0.000000 0.875000
vt 0.000000 0.687500
vt 0.187500 0.687500
vt 0.187500 1.000000
vt 0.000000 1.000000
vt 0.375000 0.500000
vt 0.625000 0.500000
vt 0.625000 0.750000
vt 0.375000 0.750000
s 0
usemtl 4
f 49/85/37 50/86/37 52/87/37 51/88/37
f 51/89/38 52/90/38 56/86/38 55/85/38
f 55/91/39 56/92/39 54/93/39 53/94/39
f 53/86/40 54/85/40 50/89/40 49/90/40
f 51/90/41 55/86/41 53/85/41 49/89/41
f 56/85/42 52/89/42 50/90/42 54/86/42
o cube.007
v -0.750000 0.156250 -0.812500
v -0.750000 0.656250 -0.812500
v -0.250000 0.156250 -0.812500
v -0.250000 0.656250 -0.812500
v -0.750000 0.156250 -0.750000
v -0.750000 0.656250 -0.750000
v -0.250000 0.156250 -0.750000
v -0.250000 0.656250 -0.750000
vn -0.0000 -0.0000 -1.0000
vn 1.0000 -0.0000 -0.0000
vn -0.0000 -0.0000 1.0000
vn -1.0000 -0.0000 -0.0000
vn -0.0000 -1.0000 -0.0000
vn -0.0000 1.0000 -0.0000
vt 0.250000 0.406250
vt 0.250000 0.656250
vt 0.000000 0.656250
vt 0.000000 0.406250
vt 0.281250 0.406250
vt 0.281250 0.656250
s 0
usemtl 4
f 57/95/43 58/96/43 60/97/43 59/98/43
f 59/99/44 60/100/44 64/96/44 63/95/44
f 63/95/45 64/96/45 62/97/45 61/98/45
f 61/99/46 62/100/46 58/96/46 57/95/46
f 59/99/47 63/95/47 61/96/47 57/100/47
f 64/95/48 60/99/48 58/100/48 62/96/48
o cube.008
v -0.625000 0.281250 -0.750000
v -0.625000 0.531250 -0.750000
v -0.375000 0.281250 -0.750000
v -0.375000 0.531250 -0.750000
v -0.625000 0.281250 -0.500000
v -0.625000 0.531250 -0.500000
v -0.375000 0.281250 -0.500000
v -0.375000 0.531250 -0.500000
vn -0.0000 -0.0000 -1.0000
vn 1.0000 -0.0000 -0.0000
vn -0.0000 -0.0000 1.0000
vn -1.0000 -0.0000 -0.0000
vn -0.0000 -1.0000 -0.0000
vn -0.0000 1.0000 -0.0000
vt 0.375000 0.000000
vt 0.625000 0.000000
vt 0.625000 0.250000
vt 0.375000 0.250000
vt 0.718750 0.968750
vt 0.593750 0.968750
vt 0.593750 0.843750
vt 0.718750 0.843750
vt 0.375000 0.500000
vt 0.625000 0.500000
vt 0.625000 0.750000
vt 0.375000 0.750000
s 0
usemtl 4
f 65/101/49 66/102/49 68/103/49 67/104/49
f 67/105/50 68/106/50 72/107/50 71/108/50
f 71/109/51 72/110/51 70/111/51 69/112/51
f 69/105/52 70/106/52 66/107/52 65/108/52
f 67/108/53 71/105/53 69/106/53 65/107/53
f 72/108/54 68/105/54 66/106/54 70/107/54
o cube.009
v -0.812500 0.218750 -0.250000
v -0.812500 0.593750 -0.250000
v -0.187500 0.218750 -0.250000
v -0.187500 0.593750 -0.250000
v -0.812500 0.218750 -0.187500
v -0.812500 0.593750 -0.187500
v -0.187500 0.218750 -0.187500
v -0.187500 0.593750 -0.187500
vn -0.0000 -0.0000 -1.0000
vn 1.0000 -0.0000 -0.0000
vn -0.0000 -0.0000 1.0000
vn -1.0000 -0.0000 -0.0000
vn -0.0000 -1.0000 -0.0000
vn -0.0000 1.0000 -0.0000
vt 0.531250 0.812500
vt 0.531250 1.000000
vt 0.218750 1.000000
vt 0.218750 0.812500
vt 0.250000 0.812500
vt 0.250000 1.000000
vt 0.375000 0.500000
vt 0.625000 0.500000
vt 0.625000 0.750000
vt 0.375000 0.750000
vt 0.500000 1.000000
vt 0.500000 0.812500
vt 0.218750 0.968750
vt 0.531250 0.968750
vt 0.218750 0.843750
vt 0.531250 0.843750
s 0
usemtl 4
f 73/113/55 74/114/55 76/115/55 75/116/55
f 75/117/56 76/118/56 80/115/56 79/116/56
f 79/119/57 80/120/57 78/121/57 77/122/57
f 77/113/58 78/114/58 74/123/58 73/124/58
f 75/125/59 79/115/59 77/114/59 73/126/59
f 80/127/60 76/116/60 74/113/60 78/128/60
o cube.010
v -0.687500 0.218750 -0.500000
v -0.687500 0.593750 -0.500000
v -0.312500 0.218750 -0.500000
v -0.312500 0.593750 -0.500000
v -0.687500 0.218750 -0.250000
v -0.687500 0.593750 -0.250000
v -0.312500 0.218750 -0.250000
v -0.312500 0.593750 -0.250000
vn -0.0000 -0.0000 -1.0000
vn 1.0000 -0.0000 -0.0000
vn -0.0000 -0.0000 1.0000
vn -1.0000 -0.0000 -0.0000
vn -0.0000 -1.0000 -0.0000
vn -0.0000 1.0000 -0.0000
vt 0.187500 0.875000
vt 0.000000 0.875000
vt 0.000000 0.687500
vt 0.187500 0.687500
vt 0.187500 1.000000
vt 0.000000 1.000000
vt 0.375000 0.500000
vt 0.625000 0.500000
vt 0.625000 0.750000
vt 0.375000 0.750000
s 0
usemtl 4
f 81/129/61 82/130/61 84/131/61 83/132/61
f 83/133/62 84/134/62 88/130/62 87/129/62
f 87/135/63 88/136/63 86/137/63 85/138/63
f 85/130/64 86/129/64 82/133/64 81/134/64
f 83/134/65 87/130/65 85/129/65 81/133/65
f 88/129/66 84/133/66 82/134/66 86/130/66
o cube.011
v -0.187500 -0.531250 0.000000
v -0.187500 0.718750 0.000000
v 0.000000 -0.531250 0.000000
v 0.000000 0.718750 0.000000
v -0.187500 -0.531250 0.250000
v -0.187500 0.718750 0.250000
v 0.000000 -0.531250 0.250000
v 0.000000 0.718750 0.250000
vn -0.0000 -0.0000 -1.0000
vn 1.0000 -0.0000 -0.0000
vn -0.0000 -0.0000 1.0000
vn -1.0000 -0.0000 -0.0000
vn -0.0000 -1.0000 -0.0000
vn -0.0000 1.0000 -0.0000
vt 0.625000 0.781250
vt 0.000000 0.781250
vt 0.000000 0.875000
vt 0.625000 0.875000
vt 0.000000 1.000000
vt 0.625000 1.000000
vt 0.125000 0.500000
vt 0.375000 0.500000
vt 0.375000 0.750000
vt 0.125000 0.750000
vt 0.750000 1.000000
vt 0.750000 0.875000
vt 0.656250 0.875000
vt 0.656250 1.000000
s 0
usemtl 1
f 89/139/67 90/140/67 92/141/67 91/142/67
f 91/142/68 92/141/68 96/143/68 95/144/68
f 95/139/69 96/140/69 94/141/69 93/142/69
f 93/142/70 94/141/70 90/143/70 89/144/70
f 91/145/71 95/146/71 93/147/71 89/148/71
f 96/149/72 92/150/72 90/151/72 94/152/72
o cube.012
v -0.187250 -0.540289 0.445374
v -0.000125 -0.540289 0.445374
v -0.187250 -0.444618 0.676344
v -0.000125 -0.444618 0.676344
v -0.000125 -0.066149 0.248979
v -0.187250 0.587132 0.248979
v -0.187250 -0.066150 0.248979
v -0.000125 0.587132 0.248979
vn -0.0000 -0.3827 -0.9239
vn 1.0000 -0.0000 -0.0000
vn -0.0000 0.3827 0.9239
vn -1.0000 -0.0000 -0.0000
vn -0.0000 -0.9239 0.3827
vt 0.562500 0.781313
vt 0.305898 0.781312
vt 0.305897 0.875000
vt 0.562500 0.875000
vt 0.656250 0.875000
vt 0.399647 0.875000
vt 0.097871 1.000000
vt 0.656250 1.000000
vt 0.000000 0.781313
vt 0.558379 0.781313
vt 0.558379 0.875000
vt 0.000000 0.875000
vt 0.097871 0.875000
vt 0.399648 1.000000
vt 0.125000 0.500000
vt 0.375000 0.500000
vt 0.375000 0.750000
vt 0.125000 0.750000
s 0
usemtl 1
f 97/153/73 103/154/73 101/155/73 98/156/73
f 98/157/74 101/158/74 104/159/74 100/160/74
f 100/161/75 104/162/75 102/163/75 99/164/75
f 99/157/76 102/165/76 103/166/76 97/160/76
f 98/167/77 100/168/77 99/169/77 97/170/77
o cube.013
v -0.250313 -0.718750 -0.187500
v -0.250313 -0.281250 -0.187500
v 0.125000 -0.718750 -0.187500
v 0.125000 -0.281250 -0.187500
v -0.250313 -0.718750 0.812500
v -0.250313 -0.281250 0.812500
v 0.125000 -0.718750 0.812500
v 0.125000 -0.281250 0.812500
vn -0.0000 -0.0000 -1.0000
vn 1.0000 -0.0000 -0.0000
vn -0.0000 -0.0000 1.0000
vn -1.0000 -0.0000 -0.0000
vn -0.0000 -1.0000 -0.0000
vn -0.0000 1.0000 -0.0000
vt 0.687656 0.562500
vt 0.687656 0.781250
vt 0.500000 0.781250
vt 0.500000 0.562500
vt 0.000000 0.781250
vt 0.000000 0.562500
vt 0.000000 0.374844
vt 0.500000 0.374844
s 0
usemtl 1
f 105/171/78 106/172/78 108/173/78 107/174/78
f 107/174/79 108/173/79 112/175/79 111/176/79
f 111/174/80 112/173/80 110/172/80 109/171/80
f 109/174/81 110/173/81 106/175/81 105/176/81
f 107/174/82 111/176/82 109/177/82 105/178/82
f 112/178/83 108/177/83 106/176/83 110/174/83
o cube.014
v 1.000000 -0.531250 -0.000000
v 1.000000 0.718750 -0.000000
v 1.187500 -0.531250 -0.000000
v 1.187500 0.718750 -0.000000
v 1.000000 -0.531250 0.250000
v 1.000000 0.718750 0.250000
v 1.187500 -0.531250 0.250000
v 1.187500 0.718750 0.250000
vn -0.0000 -0.0000 -1.0000
vn 1.0000 -0.0000 -0.0000
vn -0.0000 -0.0000 1.0000
vn -1.0000 -0.0000 -0.0000
vn -0.0000 -1.0000 -0.0000
vn -0.0000 1.0000 -0.0000
vt 0.625000 0.875000
vt 0.000000 0.875000
vt 0.000000 0.781250
vt 0.625000 0.781250
vt 0.625000 1.000000
vt 0.000000 1.000000
vt 0.125000 0.500000
vt 0.375000 0.500000
vt 0.375000 0.750000
vt 0.125000 0.750000
vt 0.656250 1.000000
vt 0.656250 0.875000
vt 0.750000 0.875000
vt 0.750000 1.000000
s 0
usemtl 1
f 113/179/84 114/180/84 116/181/84 115/182/84
f 115/183/85 116/184/85 120/180/85 119/179/85
f 119/179/86 120/180/86 118/181/86 117/182/86
f 117/183/87 118/184/87 114/180/87 113/179/87
f 115/185/88 119/186/88 117/187/88 113/188/88
f 120/189/89 116/190/89 114/191/89 118/192/89
o cube.015
v 1.000125 -0.540289 0.445374
v 1.187250 -0.540289 0.445374
v 1.000125 -0.444618 0.676344
v 1.187250 -0.444618 0.676344
v 1.000125 0.587132 0.248979
v 1.187250 0.587132 0.248979
v 1.187250 -0.066150 0.248979
v 1.000125 -0.066150 0.248979
vn -0.0000 -0.3827 -0.9239
vn 1.0000 -0.0000 -0.0000
vn -0.0000 0.3827 0.9239
vn -1.0000 -0.0000 -0.0000
vn -0.0000 -0.9239 0.3827
vt 0.562500 0.875000
vt 0.305898 0.875000
vt 0.305898 0.781313
vt 0.562500 0.781313
vt 0.656250 1.000000
vt 0.399648 1.000000
vt 0.097871 0.875000
vt 0.656250 0.875000
vt 0.000000 0.875000
vt 0.558379 0.875000
vt 0.558379 0.781313
vt 0.000000 0.781313
vt 0.097871 1.000000
vt 0.399648 0.875000
vt 0.125000 0.500000
vt 0.375000 0.500000
vt 0.375000 0.750000
vt 0.125000 0.750000
s 0
usemtl 1
f 121/193/90 128/194/90 127/195/90 122/196/90
f 122/197/91 127/198/91 126/199/91 124/200/91
f 124/201/92 126/202/92 125/203/92 123/204/92
f 123/197/93 125/205/93 128/206/93 121/200/93
f 122/207/94 124/208/94 123/209/94 121/210/94
o cube.016
v 0.875000 -0.718750 -0.187500
v 0.875000 -0.281250 -0.187500
v 1.250313 -0.718750 -0.187500
v 1.250313 -0.281250 -0.187500
v 0.875000 -0.718750 0.812500
v 0.875000 -0.281250 0.812500
v 1.250313 -0.718750 0.812500
v 1.250313 -0.281250 0.812500
vn -0.0000 -0.0000 -1.0000
vn 1.0000 -0.0000 -0.0000
vn -0.0000 -0.0000 1.0000
vn -1.0000 -0.0000 -0.0000
vn -0.0000 -1.0000 -0.0000
vn -0.0000 1.0000 -0.0000
vt 0.500000 0.562500
vt 0.500000 0.781250
vt 0.687656 0.781250
vt 0.687656 0.562500
vt 0.000000 0.562500
vt 0.000000 0.781250
vt 0.500000 0.374844
vt 0.000000 0.374844
s 0
usemtl 1
f 129/211/95 130/212/95 132/213/95 131/214/95
f 131/215/96 132/216/96 136/212/96 135/211/96
f 135/214/97 136/213/97 134/212/97 133/211/97
f 133/215/98 134/216/98 130/212/98 129/211/98
f 131/217/99 135/218/99 133/215/99 129/211/99
f 136/211/100 132/215/100 130/218/100 134/217/100
o cube.017
v -0.000000 0.156250 -0.187500
v -0.000000 0.656250 -0.187500
v 1.000000 0.156250 -0.187500
v 1.000000 0.656250 -0.187500
v -0.000000 0.156250 0.000000
v -0.000000 0.656250 0.000000
v 1.000000 0.156250 0.000000
v 1.000000 0.656250 0.000000
vn -0.0000 -0.0000 -1.0000
vn 1.0000 -0.0000 -0.0000
vn -0.0000 -0.0000 1.0000
vn -1.0000 -0.0000 -0.0000
vn -0.0000 -1.0000 -0.0000
vn -0.0000 1.0000 -0.0000
vt 1.000000 0.500000
vt 1.000000 1.000000
vt 0.000000 1.000000
vt 0.000000 0.500000
vt 0.375000 0.250000
vt 0.625000 0.250000
vt 0.625000 0.500000
vt 0.375000 0.500000
vt 0.000000 0.000000
vt 1.000000 0.000000
vt 0.375000 0.750000
vt 0.625000 0.750000
vt 0.625000 1.000000
vt 0.375000 1.000000
vt 0.000000 0.812500
vt 1.000000 0.812500
vt 0.000000 0.312500
vt 1.000000 0.312500
s 0
usemtl 3
f 137/219/101 138/220/101 140/221/101 139/222/101
f 139/223/102 140/224/102 144/225/102 143/226/102
f 143/227/103 144/222/103 142/219/103 141/228/103
f 141/229/104 142/230/104 138/231/104 137/232/104
f 139/233/105 143/221/105 141/220/105 137/234/105
f 144/235/106 140/222/106 138/219/106 142/236/106
o cube.018
v -0.875000 0.156250 -0.187500
v -0.875000 0.656250 -0.187500
v -0.000000 0.156250 -0.187500
v -0.000000 0.656250 -0.187500
v -0.875000 0.156250 0.000000
v -0.875000 0.656250 0.000000
v -0.000000 0.156250 0.000000
v -0.000000 0.656250 0.000000
vn -0.0000 -0.0000 -1.0000
vn 1.0000 -0.0000 -0.0000
vn -0.0000 -0.0000 1.0000
vn -1.0000 -0.0000 -0.0000
vn -0.0000 -1.0000 -0.0000
vn -0.0000 1.0000 -0.0000
vt 1.000000 0.500000
vt 1.000000 1.000000
vt 0.125000 1.000000
vt 0.125000 0.500000
vt 0.375000 0.250000
vt 0.625000 0.250000
vt 0.625000 0.500000
vt 0.375000 0.500000
vt 0.125000 0.000000
vt 1.000000 0.000000
vt 0.937500 0.000000
vt 0.937500 0.500000
vt 0.750000 0.500000
vt 0.750000 0.000000
vt 0.125000 0.812500
vt 1.000000 0.812500
vt 0.125000 0.312500
vt 1.000000 0.312500
s 0
usemtl 3
f 145/237/107 146/238/107 148/239/107 147/240/107
f 147/241/108 148/242/108 152/243/108 151/244/108
f 151/245/109 152/240/109 150/237/109 149/246/109
f 149/247/110 150/248/110 146/249/110 145/250/110
f 147/251/111 151/239/111 149/238/111 145/252/111
f 152/253/112 148/240/112 146/237/112 150/254/112
o cube.019
v 1.000000 0.156250 -0.187500
v 1.000000 0.656250 -0.187500
v 1.875000 0.156250 -0.187500
v 1.875000 0.656250 -0.187500
v 1.000000 0.156250 0.000000
v 1.000000 0.656250 0.000000
v 1.875000 0.156250 0.000000
v 1.875000 0.656250 0.000000
vn -0.0000 -0.0000 -1.0000
vn 1.0000 -0.0000 -0.0000
vn -0.0000 -0.0000 1.0000
vn -1.0000 -0.0000 -0.0000
vn -0.0000 -1.0000 -0.0000
vn -0.0000 1.0000 -0.0000
vt 1.000000 0.500000
vt 1.000000 1.000000
vt 0.125000 1.000000
vt 0.125000 0.500000
vt 0.937500 0.000000
vt 0.937500 0.500000
vt 0.750000 0.500000
vt 0.750000 0.000000
vt 0.125000 0.000000
vt 1.000000 0.000000
vt 0.375000 0.750000
vt 0.625000 0.750000
vt 0.625000 1.000000
vt 0.375000 1.000000
vt 0.125000 0.812500
vt 1.000000 0.812500
vt 0.125000 0.312500
vt 1.000000 0.312500
s 0
usemtl 3
f 153/255/113 154/256/113 156/257/113 155/258/113
f 155/259/114 156/260/114 160/261/114 159/262/114
f 159/263/115 160/258/115 158/255/115 157/264/115
f 157/265/116 158/266/116 154/267/116 153/268/116
f 155/269/117 159/257/117 157/256/117 153/270/117
f 160/271/118 156/258/118 154/255/118 158/272/118
