# Blender 4.1.0
# www.blender.org
mtllib buffer_stop.mtl
o cube
v -0.125000 -0.476562 0.125000
v -0.125000 0.835938 0.125000
v 0.062500 -0.476562 0.125000
v 0.062500 0.835938 0.125000
v -0.125000 -0.476562 0.375000
v -0.125000 0.835938 0.375000
v 0.062500 -0.476562 0.375000
v 0.062500 0.835938 0.375000
vn -0.0000 -0.0000 -1.0000
vn 1.0000 -0.0000 -0.0000
vn -0.0000 -0.0000 1.0000
vn -1.0000 -0.0000 -0.0000
vn -0.0000 -1.0000 -0.0000
vn -0.0000 1.0000 -0.0000
vt 0.656250 0.781250
vt 0.000000 0.781250
vt 0.000000 0.875000
vt 0.656250 0.875000
vt 0.000000 1.000000
vt 0.656250 1.000000
vt 0.125000 0.500000
vt 0.375000 0.500000
vt 0.375000 0.750000
vt 0.125000 0.750000
vt 0.750000 1.000000
vt 0.750000 0.875000
s 0
usemtl 9
f 1/1/1 2/2/1 4/3/1 3/4/1
f 3/4/2 4/3/2 8/5/2 7/6/2
f 7/1/3 8/2/3 6/3/3 5/4/3
f 5/4/4 6/3/4 2/5/4 1/6/4
f 3/7/5 7/8/5 5/9/5 1/10/5
f 8/11/6 4/12/6 2/4/6 6/6/6
o cube.001
v -0.124812 -0.654304 0.974156
v 0.062312 -0.654304 0.974156
v -0.124812 -0.477527 1.150933
v 0.062312 -0.477527 1.150933
v -0.124812 -0.057599 0.377452
v -0.124812 0.295954 0.377452
v 0.062312 0.295954 0.377452
v 0.062312 -0.057599 0.377452
vn -0.0000 -0.7071 -0.7071
vn 1.0000 -0.0000 -0.0000
vn -0.0000 0.7071 0.7071
vn -1.0000 -0.0000 -0.0000
vn -0.0000 -0.7071 0.7071
vt 0.593750 0.375062
vt 0.171816 0.375062
vt 0.171816 0.468750
vt 0.593750 0.468750
vt 0.656250 0.875000
vt 0.234316 0.875000
vt 0.109316 1.000000
vt 0.656250 1.000000
vt 0.046816 0.375062
vt 0.046816 0.468750
vt 0.109316 0.875000
vt 0.234316 1.000000
vt 0.125000 0.500000
vt 0.375000 0.500000
vt 0.375000 0.750000
vt 0.125000 0.750000
s 0
usemtl 9
f 9/13/7 13/14/7 16/15/7 10/16/7
f 10/17/8 16/18/8 15/19/8 12/20/8
f 12/13/9 15/21/9 14/22/9 11/16/9
f 11/17/10 14/23/10 13/24/10 9/20/10
f 10/25/11 12/26/11 11/27/11 9/28/11
o cube.002
v 0.937688 -0.654304 0.974156
v 1.124812 -0.654304 0.974156
v 0.937688 -0.477527 1.150933
v 1.124812 -0.477527 1.150933
v 1.124812 -0.057599 0.377452
v 0.937688 0.295954 0.377452
v 0.937688 -0.057599 0.377452
v 1.124812 0.295954 0.377452
vn -0.0000 -0.7071 -0.7071
vn 1.0000 -0.0000 -0.0000
vn -0.0000 0.7071 0.7071
vn -1.0000 -0.0000 -0.0000
vn -0.0000 -0.7071 0.7071
vt 0.593750 0.468750
vt 0.171816 0.468750
vt 0.171816 0.375062
vt 0.593750 0.375062
vt 0.593750 1.000000
vt 0.171816 1.000000
vt 0.046816 0.875000
vt 0.593750 0.875000
vt 0.046816 0.468750
vt 0.046816 0.375062
vt 0.046816 1.000000
vt 0.171816 0.875000
vt 0.125000 0.500000
vt 0.375000 0.500000
vt 0.375000 0.750000
vt 0.125000 0.750000
s 0
usemtl 9
f 17/29/12 23/30/12 21/31/12 18/32/12
f 18/33/13 21/34/13 24/35/13 20/36/13
f 20/29/14 24/37/14 22/38/14 19/32/14
f 19/33/15 22/39/15 23/40/15 17/36/15
f 18/41/16 20/42/16 19/43/16 17/44/16
o cube.003
v -0.187500 -0.835938 -0.062500
v -0.187500 -0.460938 -0.062500
v -0.125000 -0.835938 -0.062500
v -0.125000 -0.460938 -0.062500
v -0.187500 -0.835938 1.250000
v -0.187500 -0.460938 1.250000
v -0.125000 -0.835938 1.250000
v -0.125000 -0.460938 1.250000
vn -0.0000 -0.0000 -1.0000
vn 1.0000 -0.0000 -0.0000
vn -0.0000 -0.0000 1.0000
vn -1.0000 -0.0000 -0.0000
vn -0.0000 -1.0000 -0.0000
vn -0.0000 1.0000 -0.0000
vt 0.656250 0.562500
vt 0.656250 0.750000
vt 0.625000 0.750000
vt 0.625000 0.562500
vt 0.000000 0.562500
vt 0.000000 0.750000
vt 0.000000 0.593750
vt 0.656250 0.593750
s 0
usemtl 9
f 25/45/17 26/46/17 28/47/17 27/48/17
f 27/49/18 28/50/18 32/46/18 31/45/18
f 31/45/19 32/46/19 30/47/19 29/48/19
f 29/45/20 30/46/20 26/50/20 25/49/20
f 27/51/21 31/52/21 29/45/21 25/49/21
f 32/52/22 28/51/22 26/49/22 30/45/22
o cube.004
v 0.062500 -0.835938 -0.062500
v 0.062500 -0.460938 -0.062500
v 0.125000 -0.835938 -0.062500
v 0.125000 -0.460938 -0.062500
v 0.062500 -0.835938 1.250000
v 0.062500 -0.460938 1.250000
v 0.125000 -0.835938 1.250000
v 0.125000 -0.460938 1.250000
vn -0.0000 -0.0000 -1.0000
vn 1.0000 -0.0000 -0.0000
vn -0.0000 -0.0000 1.0000
vn -1.0000 -0.0000 -0.0000
vn -0.0000 -1.0000 -0.0000
vn -0.0000 1.0000 -0.0000
vt 0.656250 0.562500
vt 0.656250 0.750000
vt 0.625000 0.750000
vt 0.625000 0.562500
vt 0.000000 0.562500
vt 0.000000 0.750000
vt 0.000000 0.593750
vt 0.656250 0.593750
s 0
usemtl 9
f 33/53/23 34/54/23 36/55/23 35/56/23
f 35/57/24 36/58/24 40/54/24 39/53/24
f 39/53/25 40/54/25 38/55/25 37/56/25
f 37/53/26 38/54/26 34/58/26 33/57/26
f 35/59/27 39/60/27 37/53/27 33/57/27
f 40/60/28 36/59/28 34/57/28 38/53/28
o cube.005
v -0.125000 -0.648438 -0.062500
v -0.125000 -0.460938 -0.062500
v 0.062500 -0.648438 -0.062500
v 0.062500 -0.460938 -0.062500
v -0.125000 -0.648438 1.250000
v -0.125000 -0.460938 1.250000
v 0.062500 -0.648438 1.250000
v 0.062500 -0.460938 1.250000
vn -0.0000 -0.0000 -1.0000
vn 1.0000 -0.0000 -0.0000
vn -0.0000 -0.0000 1.0000
vn -1.0000 -0.0000 -0.0000
vn -0.0000 -1.0000 -0.0000
vn -0.0000 1.0000 -0.0000
vt 0.750000 0.562500
vt 0.656250 0.562500
vt 0.656250 0.468750
vt 0.750000 0.468750
vt 0.375000 0.250000
vt 0.625000 0.250000
vt 0.625000 0.500000
vt 0.375000 0.500000
vt 0.375000 0.750000
vt 0.625000 0.750000
vt 0.625000 1.000000
vt 0.375000 1.000000
vt 0.000000 0.562500
vt 0.000000 0.468750
s 0
usemtl 9
f 41/61/29 42/62/29 44/63/29 43/64/29
f 43/65/30 44/66/30 48/67/30 47/68/30
f 47/64/31 48/63/31 46/62/31 45/61/31
f 45/69/32 46/70/32 42/71/32 41/72/32
f 43/73/33 47/62/33 45/63/33 41/74/33
f 48/62/34 44/73/34 42/74/34 46/63/34
o cube.006
v 0.937500 -0.476562 0.125000
v 0.937500 0.835938 0.125000
v 1.125000 -0.476562 0.125000
v 1.125000 0.835938 0.125000
v 0.937500 -0.476562 0.375000
v 0.937500 0.835938 0.375000
v 1.125000 -0.476562 0.375000
v 1.125000 0.835938 0.375000
vn -0.0000 -0.0000 -1.0000
vn 1.0000 -0.0000 -0.0000
vn -0.0000 -0.0000 1.0000
vn -1.0000 -0.0000 -0.0000
vn -0.0000 -1.0000 -0.0000
vn -0.0000 1.0000 -0.0000
vt 0.656250 0.875000
vt 0.000000 0.875000
vt 0.000000 0.781250
vt 0.656250 0.781250
vt 0.656250 1.000000
vt 0.000000 1.000000
vt 0.125000 0.500000
vt 0.375000 0.500000
vt 0.375000 0.750000
vt 0.125000 0.750000
vt 0.750000 0.875000
vt 0.750000 1.000000
s 0
usemtl 9
f 49/75/35 50/76/35 52/77/35 51/78/35
f 51/79/36 52/80/36 56/76/36 55/75/36
f 55/75/37 56/76/37 54/77/37 53/78/37
f 53/79/38 54/80/38 50/76/38 49/75/38
f 51/81/39 55/82/39 53/83/39 49/84/39
f 56/79/40 52/75/40 50/85/40 54/86/40
o cube.007
v 1.125000 -0.835938 -0.062500
v 1.125000 -0.460938 -0.062500
v 1.187500 -0.835938 -0.062500
v 1.187500 -0.460938 -0.062500
v 1.125000 -0.835938 1.250000
v 1.125000 -0.460938 1.250000
v 1.187500 -0.835938 1.250000
v 1.187500 -0.460938 1.250000
vn -0.0000 -0.0000 -1.0000
vn 1.0000 -0.0000 -0.0000
vn -0.0000 -0.0000 1.0000
vn -1.0000 -0.0000 -0.0000
vn -0.0000 -1.0000 -0.0000
vn -0.0000 1.0000 -0.0000
vt 0.625000 0.562500
vt 0.625000 0.750000
vt 0.656250 0.750000
vt 0.656250 0.562500
vt 0.000000 0.750000
vt 0.000000 0.562500
vt 0.656250 0.593750
vt 0.000000 0.593750
s 0
usemtl 9
f 57/87/41 58/88/41 60/89/41 59/90/41
f 59/90/42 60/89/42 64/91/42 63/92/42
f 63/87/43 64/88/43 62/89/43 61/90/43
f 61/90/44 62/89/44 58/91/44 57/92/44
f 59/92/45 63/90/45 61/93/45 57/94/45
f 64/90/46 60/92/46 58/94/46 62/93/46
o cube.008
v 0.875000 -0.835938 -0.062500
v 0.875000 -0.460938 -0.062500
v 0.937500 -0.835938 -0.062500
v 0.937500 -0.460938 -0.062500
v 0.875000 -0.835938 1.250000
v 0.875000 -0.460938 1.250000
v 0.937500 -0.835938 1.250000
v 0.937500 -0.460938 1.250000
vn -0.0000 -0.0000 -1.0000
vn 1.0000 -0.0000 -0.0000
vn -0.0000 -0.0000 1.0000
vn -1.0000 -0.0000 -0.0000
vn -0.0000 -1.0000 -0.0000
vn -0.0000 1.0000 -0.0000
vt 0.625000 0.562500
vt 0.625000 0.750000
vt 0.656250 0.750000
vt 0.656250 0.562500
vt 0.000000 0.562500
vt 0.000000 0.750000
vt 0.656250 0.593750
vt 0.000000 0.593750
s 0
usemtl 9
f 65/95/47 66/96/47 68/97/47 67/98/47
f 67/99/48 68/100/48 72/97/48 71/98/48
f 71/95/49 72/96/49 70/97/49 69/98/49
f 69/99/50 70/100/50 66/97/50 65/98/50
f 67/99/51 71/98/51 69/101/51 65/102/51
f 72/98/52 68/99/52 66/102/52 70/101/52
o cube.009
v 0.937500 -0.648438 -0.062500
v 0.937500 -0.460938 -0.062500
v 1.125000 -0.648438 -0.062500
v 1.125000 -0.460938 -0.062500
v 0.937500 -0.648438 1.250000
v 0.937500 -0.460938 1.250000
v 1.125000 -0.648438 1.250000
v 1.125000 -0.460938 1.250000
vn -0.0000 -0.0000 -1.0000
vn 1.0000 -0.0000 -0.0000
vn -0.0000 -0.0000 1.0000
vn -1.0000 -0.0000 -0.0000
vn -0.0000 -1.0000 -0.0000
vn -0.0000 1.0000 -0.0000
vt 0.750000 0.468750
vt 0.656250 0.468750
vt 0.656250 0.562500
vt 0.750000 0.562500
vt 0.375000 0.250000
vt 0.625000 0.250000
vt 0.625000 0.500000
vt 0.375000 0.500000
vt 0.375000 0.750000
vt 0.625000 0.750000
vt 0.625000 1.000000
vt 0.375000 1.000000
vt 0.000000 0.468750
vt 0.000000 0.562500
s 0
usemtl 9
f 73/103/53 74/104/53 76/105/53 75/106/53
f 75/107/54 76/108/54 80/109/54 79/110/54
f 79/106/55 80/105/55 78/104/55 77/103/55
f 77/111/56 78/112/56 74/113/56 73/114/56
f 75/115/57 79/104/57 77/105/57 73/116/57
f 80/104/58 76/115/58 74/116/58 78/105/58
o cube.010
v 0.062500 0.398438 0.125000
v 0.062500 0.648438 0.125000
v 0.937500 0.398438 0.125000
v 0.937500 0.648438 0.125000
v 0.062500 0.398438 0.312500
v 0.062500 0.648438 0.312500
v 0.937500 0.398438 0.312500
v 0.937500 0.648438 0.312500
vn -0.0000 -0.0000 -1.0000
vn 1.0000 -0.0000 -0.0000
vn -0.0000 -0.0000 1.0000
vn -1.0000 -0.0000 -0.0000
vn -0.0000 -1.0000 -0.0000
vn -0.0000 1.0000 -0.0000
vt 0.375000 0.000000
vt 0.625000 0.000000
vt 0.625000 0.250000
vt 0.375000 0.250000
vt 0.625000 0.500000
vt 0.375000 0.500000
vt 0.468750 0.875000
vt 0.468750 1.000000
vt 0.031250 1.000000
vt 0.031250 0.875000
vt 0.375000 0.750000
vt 0.625000 0.750000
vt 0.625000 1.000000
vt 0.375000 1.000000
vt 0.437500 0.468750
vt 0.437500 0.562500
vt 0.000000 0.562500
vt 0.000000 0.468750
s 0
usemtl 9
f 81/117/59 82/118/59 84/119/59 83/120/59
f 83/120/60 84/119/60 88/121/60 87/122/60
f 87/123/61 88/124/61 86/125/61 85/126/61
f 85/127/62 86/128/62 82/129/62 81/130/62
f 83/131/63 87/132/63 85/133/63 81/134/63
f 88/131/64 84/132/64 82/133/64 86/134/64
o cube.012
v 0.500000 0.273438 -0.062500
v 0.500000 0.773438 -0.062500
v 1.187500 0.273438 -0.062500
v 1.187500 0.773438 -0.062500
v 0.500000 0.273438 0.125000
v 0.500000 0.773438 0.125000
v 1.187500 0.273438 0.125000
v 1.187500 0.773438 0.125000
vn -0.0000 -0.0000 -1.0000
vn 1.0000 -0.0000 -0.0000
vn -0.0000 -0.0000 1.0000
vn -1.0000 -0.0000 -0.0000
vn -0.0000 -1.0000 -0.0000
vn -0.0000 1.0000 -0.0000
vt 0.687500 0.500000
vt 0.687500 1.000000
vt 0.000000 1.000000
vt 0.000000 0.500000
vt 0.187500 0.000000
vt 0.187500 0.500000
vt 0.000000 0.000000
vt 0.687500 0.000000
vt 0.375000 0.750000
vt 0.625000 0.750000
vt 0.625000 1.000000
vt 0.375000 1.000000
vt 0.687500 0.812500
vt 0.000000 0.812500
vt 0.687500 0.312500
vt 0.000000 0.312500
s 0
usemtl 3
f 89/135/65 90/136/65 92/137/65 91/138/65
f 91/139/66 92/140/66 96/138/66 95/141/66
f 95/142/67 96/135/67 94/138/67 93/141/67
f 93/143/68 94/144/68 90/145/68 89/146/68
f 91/147/69 95/136/69 93/137/69 89/148/69
f 96/149/70 92/135/70 90/138/70 94/150/70
o cube.013
v -0.187500 0.273438 -0.062500
v -0.187500 0.773438 -0.062500
v 0.500000 0.273438 -0.062500
v 0.500000 0.773438 -0.062500
v -0.187500 0.273438 0.125000
v -0.187500 0.773438 0.125000
v 0.500000 0.273438 0.125000
v 0.500000 0.773438 0.125000
vn -0.0000 -0.0000 -1.0000
vn 1.0000 -0.0000 -0.0000
vn -0.0000 -0.0000 1.0000
vn -1.0000 -0.0000 -0.0000
vn -0.0000 -1.0000 -0.0000
vn -0.0000 1.0000 -0.0000
vt 1.000000 0.500000
vt 1.000000 1.000000
vt 0.312500 1.000000
vt 0.312500 0.500000
vt 0.375000 0.250000
vt 0.625000 0.250000
vt 0.625000 0.500000
vt 0.375000 0.500000
vt 1.000000 0.000000
vt 0.312500 0.000000
vt 0.937500 0.000000
vt 0.937500 0.500000
vt 0.750000 0.500000
vt 0.750000 0.000000
vt 0.312500 0.812500
vt 1.000000 0.812500
vt 0.312500 0.312500
vt 1.000000 0.312500
s 0
usemtl 3
f 97/151/71 98/152/71 100/153/71 99/154/71
f 99/155/72 100/156/72 104/157/72 103/158/72
f 103/159/73 104/151/73 102/154/73 101/160/73
f 101/161/74 102/162/74 98/163/74 97/164/74
f 99/165/75 103/153/75 101/152/75 97/166/75
f 104/167/76 100/154/76 98/151/76 102/168/76
o cube.014
v 0.250000 0.273438 -0.687500
v 0.250000 0.773438 -0.687500
v 0.750000 0.273438 -0.687500
v 0.750000 0.773438 -0.687500
v 0.250000 0.273438 -0.625000
v 0.250000 0.773438 -0.625000
v 0.750000 0.273438 -0.625000
v 0.750000 0.773438 -0.625000
vn -0.0000 -0.0000 -1.0000
vn 1.0000 -0.0000 -0.0000
vn -0.0000 -0.0000 1.0000
vn -1.0000 -0.0000 -0.0000
vn -0.0000 -1.0000 -0.0000
vn -0.0000 1.0000 -0.0000
vt 0.250000 0.406250
vt 0.250000 0.656250
vt 0.000000 0.656250
vt 0.000000 0.406250
vt 0.281250 0.406250
vt 0.281250 0.656250
s 0
usemtl 4
f 105/169/77 106/170/77 108/171/77 107/172/77
f 107/173/78 108/174/78 112/170/78 111/169/78
f 111/169/79 112/170/79 110/171/79 109/172/79
f 109/173/80 110/174/80 106/170/80 105/169/80
f 107/173/81 111/169/81 109/170/81 105/174/81
f 112/169/82 108/173/82 106/174/82 110/170/82
o cube.015
v 0.375000 0.398438 -0.625000
v 0.375000 0.648438 -0.625000
v 0.625000 0.398438 -0.625000
v 0.625000 0.648438 -0.625000
v 0.375000 0.398438 -0.375000
v 0.375000 0.648438 -0.375000
v 0.625000 0.398438 -0.375000
v 0.625000 0.648438 -0.375000
vn -0.0000 -0.0000 -1.0000
vn 1.0000 -0.0000 -0.0000
vn -0.0000 -0.0000 1.0000
vn -1.0000 -0.0000 -0.0000
vn -0.0000 -1.0000 -0.0000
vn -0.0000 1.0000 -0.0000
vt 0.375000 0.000000
vt 0.625000 0.000000
vt 0.625000 0.250000
vt 0.375000 0.250000
vt 0.718750 0.968750
vt 0.593750 0.968750
vt 0.593750 0.843750
vt 0.718750 0.843750
vt 0.375000 0.500000
vt 0.625000 0.500000
vt 0.625000 0.750000
vt 0.375000 0.750000
s 0
usemtl 4
f 113/175/83 114/176/83 116/177/83 115/178/83
f 115/179/84 116/180/84 120/181/84 119/182/84
f 119/183/85 120/184/85 118/185/85 117/186/85
f 117/179/86 118/180/86 114/181/86 113/182/86
f 115/182/87 119/179/87 117/180/87 113/181/87
f 120/182/88 116/179/88 114/180/88 118/181/88
o cube.016
v 0.187500 0.335938 -0.125000
v 0.187500 0.710938 -0.125000
v 0.812500 0.335938 -0.125000
v 0.812500 0.710938 -0.125000
v 0.187500 0.335938 -0.062500
v 0.187500 0.710938 -0.062500
v 0.812500 0.335938 -0.062500
v 0.812500 0.710938 -0.062500
vn -0.0000 -0.0000 -1.0000
vn 1.0000 -0.0000 -0.0000
vn -0.0000 -0.0000 1.0000
vn -1.0000 -0.0000 -0.0000
vn -0.0000 -1.0000 -0.0000
vn -0.0000 1.0000 -0.0000
vt 0.531250 0.812500
vt 0.531250 1.000000
vt 0.218750 1.000000
vt 0.218750 0.812500
vt 0.250000 0.812500
vt 0.250000 1.000000
vt 0.375000 0.500000
vt 0.625000 0.500000
vt 0.625000 0.750000
vt 0.375000 0.750000
vt 0.500000 1.000000
vt 0.500000 0.812500
vt 0.218750 0.968750
vt 0.531250 0.968750
vt 0.218750 0.843750
vt 0.531250 0.843750
s 0
usemtl 4
f 121/187/89 122/188/89 124/189/89 123/190/89
f 123/191/90 124/192/90 128/189/90 127/190/90
f 127/193/91 128/194/91 126/195/91 125/196/91
f 125/187/92 126/188/92 122/197/92 121/198/92
f 123/199/93 127/189/93 125/188/93 121/200/93
f 128/201/94 124/190/94 122/187/94 126/202/94
o cube.017
v 0.312500 0.335938 -0.375000
v 0.312500 0.710938 -0.375000
v 0.687500 0.335938 -0.375000
v 0.687500 0.710938 -0.375000
v 0.312500 0.335938 -0.125000
v 0.312500 0.710938 -0.125000
v 0.687500 0.335938 -0.125000
v 0.687500 0.710938 -0.125000
vn -0.0000 -0.0000 -1.0000
vn 1.0000 -0.0000 -0.0000
vn -0.0000 -0.0000 1.0000
vn -1.0000 -0.0000 -0.0000
vn -0.0000 -1.0000 -0.0000
vn -0.0000 1.0000 -0.0000
vt 0.187500 0.875000
vt 0.000000 0.875000
vt 0.000000 0.687500
vt 0.187500 0.687500
vt 0.187500 1.000000
vt 0.000000 1.000000
vt 0.375000 0.500000
vt 0.625000 0.500000
vt 0.625000 0.750000
vt 0.375000 0.750000
s 0
usemtl 4
f 129/203/95 130/204/95 132/205/95 131/206/95
f 131/207/96 132/208/96 136/204/96 135/203/96
f 135/209/97 136/210/97 134/211/97 133/212/97
f 133/204/98 134/203/98 130/207/98 129/208/98
f 131/208/99 135/204/99 133/203/99 129/207/99
f 136/203/100 132/207/100 130/208/100 134/204/100
